<?xml version="1.0" encoding="utf-8"?>
<!-- Generator: Adobe Illustrator 18.0.0, SVG Export Plug-In . SVG Version: 6.00 Build 0)  -->
<!DOCTYPE svg PUBLIC "-//W3C//DTD SVG 1.1//EN" "http://www.w3.org/Graphics/SVG/1.1/DTD/svg11.dtd">
<svg version="1.1" id="Calque_1" xmlns="http://www.w3.org/2000/svg" xmlns:xlink="http://www.w3.org/1999/xlink" x="0px" y="0px"
	 viewBox="0 0 313.2 313.2" enable-background="new 0 0 313.2 313.2" xml:space="preserve">
<circle fill="#5E636D" cx="156.6" cy="156.6" r="156.6"/>
<g id="xMalIH_1_">
	<g>
		<path fill="#FFFFFF" d="M252.2,71.3c-0.4,1.5-1.1,2.9-1,4.4c0.1,2-1.3,3.2-2,4.8c-0.4,0.9-1.2,1.7-1.9,2.4c-0.4,0.4-1,0.6-1.4,0.8
			c-0.6,0.9-1,1.9-1.7,2.6c-1.9,1.8-3.9,3.5-6,5.1c-2.6,2-5.5,3.7-8.1,5.8c-1.7,1.3-3.5,2.8-4.5,4.6c-1.5,2.6-2.3,5.5-3.4,8.3
			c-0.6,1.4-1.2,2.7-1.8,4.1c-0.9,2-1.8,4-2.7,6c-0.9,2.2-2.7,3.3-4.8,4.4c-2.6,1.4-4.9,0.7-7.3-0.2c-2.8-1-5.6-1.8-8.3-3.1
			c-3.4-1.6-6.8-3.5-9.1-6.6c-0.4-0.6-0.4-1.6-0.4-2.4c0.1-0.9,0.5-1.8,0.8-2.7c0.1-0.4,0.5-0.7,0.6-0.9c0-1.8-0.2-3.5,0-5.2
			c0.5-3.7,1.3-7.3,2-10.9c0.2-1,0.4-2,0.7-3c1.2-3.7,2.3-7.5,3.8-11.1c0.7-1.7,1.1-3.6,2.1-5.2c1-1.7,2.1-3.3,2.9-5.1
			c1.4-3,3.6-5.2,6.3-6.9c0.3-0.2,0.6-0.6,1-0.6c2.7,0,4.7-1.8,7.1-2.7c3-1.2,6-2.6,9.1-3.5c3.6-1,7.3-1.8,11.1-2.3
			c1.4-0.2,3,0.5,4.3,1.2c2.2,1.2,4.3,2.5,6.2,4.1c1.7,1.5,3,3.5,4.1,5.7c1,2.2,0.9,4.4,1.6,6.6c0.1,0.4,0.4,0.8,0.6,1.3
			C252.2,71.1,252.2,71.2,252.2,71.3z M213.5,96.6c-0.2,1.2-0.4,2.4-0.4,3.6c0,1.3,0.3,2.6,0.4,3.8c0.1,3.8,0.1,7.7,0.2,11.5
			c0,1.8-0.8,2.5-2.4,1.8c-0.9-0.4-1.2-0.1-1.2,0.8c0,0.9,0,1.9,0,2.8c0,0.8,0.3,0.9,1.1,0.7c2.3-0.7,3.3-2.5,4.2-4.5
			c2-4.7,4.1-9.4,6.1-14.2c1.5-3.6,4.2-6.3,7-8.8c0.9-0.8,1.8-1.4,2.4-1.9c-0.7-1.3-1.6-2.3-1.9-3.4c-0.3-1.3-0.2-2.8-0.2-4.2
			c0.1-2.6,0.3-5.2,0.5-8.1c-0.4,0.5-0.6,0.8-0.7,1.1c-0.6,2.3-1.3,4.6-1.7,6.9c-0.3,1.8-1.3,3.4-1.4,5.4c0,1-0.6,2-0.9,3
			c-0.2,0.4-0.5,0.8-0.7,1.3c-0.4-0.3-0.7-0.5-1.1-0.8c-0.2-0.1-0.5-0.1-0.6-0.3c-0.4-0.6-1.2-1.3-1.1-1.7c0.4-1.4-0.2-2.5-0.5-3.8
			c-0.3-0.9-0.2-2-0.2-3c-0.1,0-0.2,0-0.2,0c-0.6,5.2-1.3,10.4-1.9,15.8c-0.7,0-1.2,0-1.7-0.1C214.5,99.7,214.2,98,213.5,96.6z
			 M230.2,61.7c0-0.6-0.1-1.2,0-1.7c0.1-0.8,0.5-1.5,0.7-2.2c0.4-1.3,0.1-1.6-1.1-1.3c-2,0.5-4,1.2-6,1.8c-0.3,0.1-0.7,0.5-0.7,0.7
			c-0.1,1-0.2,2-0.2,3.1c0,1.6,0.1,3.2,0.1,4.8c0,1.8-0.2,3.7-0.2,5.5c0,1.8,0.3,3.5,0.4,5.3c0.1,1,0.4,2.1,0,2.8
			c-0.6,1.1-0.1,1.5,0.6,2.1c0.2-0.7,0.5-1.3,0.7-1.9c1.6-5.9,3.2-11.8,4.8-17.6C229.4,62.6,229.8,62.2,230.2,61.7z M232.5,78.1
			c0.1,0,0.3,0.1,0.4,0.1c0.3-1.2,0.6-2.4,1-3.5c0.3-0.8,0.8-1.4,1-2.2c0.3-1,0.2-2.1,0.4-3.1c0.2-0.9,0.6-1.7,0.8-2.6
			c0.4-1.7,0.7-3.4,1.1-5.1c0-0.1,0.2-0.2,0.4-0.3c0.7-0.7,1.4-0.5,2.1,0c1,0.6,1.2,1.6,1,2.6c-0.2,1-0.5,2-0.6,3
			c-0.3,2-0.5,4-0.7,6c-0.1,0.8,0,1.7,0,2.5c0.2,0,0.4,0,0.5,0.1c0.7-1.8,1.4-3.7,2-5.5c1.4-3.8,0.4-7.7-2.6-10.3
			c-0.3-0.2-0.5-0.5-0.7-0.8c0.1-0.1,0.2-0.3,0.2-0.4c2.4-0.2,3.8,1.7,5.3,3.1c1.3-1.7,1.2-2.2-0.3-3.3c-0.6-0.4-1.1-0.8-1.7-1.3
			c-1.8-1.6-4-1.9-6.3-1.7c-0.3,0-0.8,0.5-0.9,0.8c-0.4,2.2-0.8,4.4-1.1,6.6c-0.3,2.3-0.5,4.6-0.7,6.9
			C233,72.4,232.8,75.2,232.5,78.1z M219.3,60c-2.6,1.1-4.9,2.1-7.3,3.1c-2,0.8-2,0.9-0.8,2.6c0.2-0.4,0.3-0.9,0.7-1.2
			c0.5-0.4,1.1-1,1.7-1.1c2,0,3.6,1.6,3.9,3.7c0.2,1.5,0.3,3,0.4,4.5c0.2,0,0.3,0,0.5,0c-0.1-3.7,1.7-7.1,1.4-10.8
			C219.5,60.7,219.4,60.3,219.3,60z M245.5,79c0.1,0,0.2,0.1,0.4,0.1c1.7-1.5,2.2-3.7,2.9-5.8c0.4-1.2,0.6-2.4,0.8-3.3
			c-0.3-1-0.6-1.8-0.8-2.6c-0.3-1.1-0.6-2.2-0.9-3.5c-1.3,1.1-0.6,2-0.6,2.9c0,2.3-0.4,4.6-0.8,6.9C246.4,75.5,245.9,77.2,245.5,79z
			 M232.6,90.3c0.2,0.1,0.4,0.3,0.6,0.4c2-1.6,4.1-3.1,6.3-4.8c-2.3-1.1-3.1-2.7-3.8-4.7C234.6,84.2,233.6,87.3,232.6,90.3z
			 M201.6,75.3c-0.5,0.3-0.7,0.3-0.8,0.5c-0.9,1.6-1.8,3.1-2.5,4.7c-0.1,0.3,0,1,0.2,1.1c1.6,0.9,1.7,2.6,2.2,4.1
			c0.2,0.7,0.3,1.4,0.5,2.1c0.1,0,0.3,0,0.4-0.1C201.6,83.8,201.6,79.7,201.6,75.3z M199.1,99c-0.1,0-0.2,0-0.3,0c0,0.3,0,0.6,0,0.9
			c0.1,1.1,0.3,2.1,0.4,3.2c0.1,2,0.1,3.9,0.2,5.9c0.2,2.9,0.5,5.8,0.6,8.8c0.1,1.9,0.8,2.9,2.1,2.7
			C201.1,113.2,200.1,106.1,199.1,99z M214.5,69c-1.3,2.3-1.8,18.9-0.7,20.5C214,82.5,214.2,75.7,214.5,69z M244.5,81.3
			c-0.7-0.6-1.2-1.1-1.8-1.3c-0.3-0.1-1,0.1-1.1,0.3c-0.6,1.4-1,2.9-1.5,4.4c0.1,0.1,0.2,0.2,0.4,0.3
			C241.9,83.8,243.1,82.7,244.5,81.3z M196.2,90.1c-0.2,0-0.4-0.1-0.7-0.1c-0.4,1.4-0.9,2.8-1.3,4.2c-0.1,0.2,0.1,0.4,0.2,0.7
			c0.4,1,0.8,2,1.4,3.1c0.1-0.3,0.4-0.7,0.4-1.1C196.2,94.5,196.2,92.3,196.2,90.1z M206.2,117.3c-0.1,0-0.2,0-0.3,0
			c-0.3,1.4-0.6,2.8-0.8,4.3c0.7,0.4,1.4,0.5,1.5-0.6C206.6,119.7,206.3,118.5,206.2,117.3z M206.3,67c-1.6,1.6-1.6,2.8-0.4,4.9
			C206,70.3,206.1,68.8,206.3,67z M195.4,117.8c0-2.2-1.6-1.2-2.6-1.5C193.6,116.7,194.4,117.2,195.4,117.8z"/>
		<path fill="#FFFFFF" d="M170.5,218.8c0.3,0,0.7,0.1,1.4,0.1c-1.2-1.1-1-1.8-0.4-3c1-1.9,2.9-2.8,4.4-4.2c2.2-1.9,4.3-4,6.6-5.8
			c2.5-2,4.1-4.7,6.5-6.7c1.3-1.1,2.6-2.1,3.9-3.2c0.5-0.4,0.6-1.1,1-1.6c1.3-1.6,2.6-3.2,4.1-4.7c1.4-1.5,3.2-2.6,4.4-4.2
			c2.2-2.9,5.6-4,8.5-5.8c0.6-0.4,1.5-0.4,2.3-0.7c0.4-0.2,0.6-0.6,1-0.8c2.3-1.5,4.8-1.8,7.5-1.2c1.2,0.3,2.5,0.4,3.7,0.7
			c3.4,0.7,6.3,2.3,8.6,4.9c0.6,0.7,1.4,1.2,2.1,1.9c2.5,2.2,4.1,4.7,4,8.3c0,3-0.1,6-1.3,8.7c-1.1,2.5-2.5,4.8-3.9,7.1
			c-2.7,4.4-5.4,8.7-8.2,13c-0.5,0.7-1.3,1.2-2,1.7c-1.9,1.2-3.7,2.5-5.7,3.3c-3.1,1.3-6.3,2.4-9.5,3.4c-3.1,1-6.2,1.7-9.3,2.6
			c-0.8,0.2-1.5,0.9-2.3,1.3c-2.6,1.7-5.2,3.4-7.8,5c-2.4,1.5-5,2.8-7.9,1.7c-1.5-0.6-2.9-1.7-3.9-2.9c-1.7-2-3.3-4-4.4-6.4
			c-1.4-3.2-2.3-6.7-3.3-10.1C170.4,220.5,170.5,219.6,170.5,218.8z M233.5,198.3c1.7,1.7,1.7,1.7,0.7,3.9c-0.4,0.9-0.7,1.8-1.1,2.8
			c0.5-0.1,0.8-0.3,0.9-0.6c0.4-2,3.1-2.7,2.9-5c0-0.1,0.4-0.1,0.5-0.3c0.1-0.3,0.2-0.6,0.2-0.9c0.1-0.4,0.1-0.9,0.1-1.3
			c0.5-2.9,0.7-5.8-1.1-8.4c-1.1-1.5-2.7-2.7-4-4.1c-1.6-1.7-3.5-2.9-5.9-3.3c-1.8-0.3-3.7-0.7-5.5-0.9c-0.8-0.1-1.6,0.1-2.5,0.1
			c1.6,2.9,1.6,2.9,0,5.6c-0.3,0.5-0.6,1.1-0.9,1.6c0.1,0.1,0.2,0.1,0.3,0.2c0.2-0.3,0.5-0.5,0.7-0.8c1.1-1.6,2.2-3.2,3.2-4.8
			c0.5-0.7,1-0.7,1.7-0.3c0.4,0.3,0.9,0.5,1.4,0.5c1.7,0,2.7,1.4,2,2.9c-0.3,0.6-0.5,1.2-0.7,1.8c0.6-0.3,0.7-0.9,1.1-1.2
			c0.4-0.4,1-1,1.3-0.9c0.5,0.2,1.1,0.8,1.1,1.3c0.1,0.9,0.1,2-0.3,2.7c-2.3,4.4-4.8,8.6-7.2,12.9c-0.7,1.3-1.4,2.6-2,4
			c-0.1,0.2,0,0.5-0.1,1.2c0.7-1,1.1-1.7,1.6-2.4c1.6-2.5,3.1-5.1,4.7-7.6c1.1-1.8,2.2-3.6,3.3-5.3c0.2-0.3,1-0.4,1.4-0.2
			c0.5,0.3,0.8,0.9,1.3,1.5c0.5-0.9,0.7-1.5,1.1-2c0.4-0.6,0.7-1.5,1.7-0.8c0.9,0.6,1.5,1.3,1,2.3
			C235.6,194.5,234.5,196.4,233.5,198.3z M205.2,211.9c-0.5,0.5-0.8,0.8-1.1,1.2c-1.3,2-2.7,3.9-4,5.9c-1.9,2.9-3.6,5.9-5.5,8.8
			c-1.3,2-1.4,1.9-3.3,0.4c-0.1-0.1-0.2,0-0.4-0.1c-1.5,2.8-2.9,5.6-4.4,8.5c0.1,0.1,0.2,0.2,0.4,0.3c0.7-0.4,1.4-0.7,2-1.1
			c1.7-1.1,3.4-2.5,5.2-3.3c1.2-0.5,2.1-1.2,2.7-2.2c0.9-1.5,1.6-3.1,2.4-4.7c0.3-0.5,0.6-1,0.8-1.5c0.4-1.1,0.7-2.2,1.2-3.2
			c0.7-1.4,1.6-2.6,2.2-4C204.1,215.2,204.6,213.7,205.2,211.9z M206.1,223.3c-0.1-0.2-0.2-0.3-0.3-0.5c-0.6,0.2-1.6,0.2-1.9,0.7
			c-1,1.6-1.7,3.3-2.7,5.3c2.4-0.7,4.4-1.2,6.5-1.8c0.1,0,0.3-0.4,0.3-0.5c-0.4-2.4,1.5-4,2-6.1c0.4-1.9,1.6-3.5,2.4-5.3
			c0.7-1.4,1.4-2.9,2.1-4.3c-0.1-0.1-0.2-0.1-0.3-0.2C211.4,214.8,208.8,219.1,206.1,223.3z M185.3,231.9c-0.1-0.1-0.3-0.2-0.4-0.2
			c-0.8,1.2-1.5,2.5-2.4,3.6c-0.2,0.3-0.8,0.4-1.2,0.4c-0.3,0-0.8-0.4-0.8-0.6c-0.1-0.7-0.3-1.6,0-2.2c0.5-1,0-1.4-0.6-1.9
			c-0.9-0.7-1.4-1.4-0.6-2.7c-0.7,0.3-1.1,0.5-1.6,0.6c-2,0.4-2.4,1-1.2,2.6c1,1.5,2.2,3,3.4,4.4c0.6,0.7,1.4,1.2,2.3,2
			C183.3,235.8,184.3,233.9,185.3,231.9z M212.8,225c4.6-0.6,7.8-2.9,11.4-5.7c-1.4-0.2-2.4-0.4-3.6-0.6c-0.6,0.9-1.2,1.9-2,2.9
			c-0.7,1-1.5,1.3-2.6,0.4c-0.3-0.2-1.1-0.2-1.2,0C214.1,222.8,213.6,223.8,212.8,225z M213.2,183c-0.1-0.1-0.2-0.3-0.3-0.4
			c-1,0.7-2,1.4-3.2,2.3C211.7,186.1,211.9,185.9,213.2,183z M201.2,192c-0.2-0.2-0.4-0.3-0.6-0.5c-1.1,1.3-2.2,2.6-3.3,3.9
			c0.2,0.1,0.3,0.3,0.5,0.4C198.9,194.5,200,193.3,201.2,192z"/>
		<path fill="#FFFFFF" d="M109.9,216.7c2.3-3,2.3-3,1.6-4.5c-0.2,0.4-0.3,0.6-0.4,0.9c-0.1,0.3,0,0.7-0.1,0.8
			c-1.6,0.7-1.9,2.6-3.4,3.5c-0.9,0.5-1.5,1.6-2.3,2.3c-1,0.8-0.7,1.6-0.2,2.4c0.6,0,1.1,0,2.1,0c-0.6,0.6-0.8,1.1-1.2,1.3
			c-2.2,1.5-4.4,1.4-6.6-0.3c-0.5-0.4-1.2-0.5-1.8-0.7c-1-0.4-2.1-0.6-2.4-2c-0.2-0.6-0.7-1.2-1.2-1.7c-2.4-2.6-4.9-5.2-7.1-8
			c-0.9-1.1-1.3-2.7-1.5-4.2c-0.3-1.8,0.2-3.5,1.2-5.2c2.7-4.3,5.2-8.8,7.7-13.2c2.3-4.2,5-8,8.7-11c1.2-0.9,2.3-1.9,3.4-2.9
			c0.4-0.3,0.5-0.9,0.7-1.4c0.2-0.4,0.3-1.1,0.6-1.3c0.3-0.1,1,0.1,1.3,0.4c0.6,0.5,1,0.5,1.6,0c2.8-2,6.1-3,9.3-4.2
			c3.8-1.5,7.9-1.6,11.7-2.6c3.2-0.8,5.8,0.5,8.6,1.6c0.9,0.4,2,0.7,2.7,1.4c2,2.1,4.8,3.5,5.5,6.7c0.6,2.8,0.9,5.5-0.4,8.2
			c-0.2,0.4-0.4,0.9-0.3,1.4c0.2,3-1.4,5.2-3,7.5c-1,1.4-1.6,2.9-2.7,4.2c-1.5,1.8-3.3,3.5-5.5,4.5c-0.5,0.2-0.9,0.7-1.3,1
			c-1.2,0.8-2.5,1.4-3.7,2.2c-0.9,0.6-1.8,1.2-2.4,2c-1.5,1.7-3.6,2.5-5.5,3.6c-2.3,1.2-4.4,2.8-6.4,4.4c-1.8,1.4-3.7,2.4-5.8,3.2
			C111,217.2,110.5,216.9,109.9,216.7z M140.2,176.2c-0.8-0.7-1.4-0.4-1.7,0.5c-0.4,1.5-0.8,3-1.2,4.4c-0.3,0.8-0.8,1.6-1.1,2.4
			c-0.5,1.6-1,3.2-1.4,4.8c-0.3,1.3-0.4,2.7-0.6,4.1c0.8-1,1.4-2,1.8-3.1C137.5,184.9,138.8,180.5,140.2,176.2
			c0.9,0.2,1.8,0.5,3,0.8c-0.2-0.5-0.4-0.8-0.5-1.2C141.9,176.2,140.9,174.7,140.2,176.2z M98.3,211.5c0.2,0,0.3,0,0.5,0.1
			c3.2-10.7,5-21.7,7.3-32.7c-2.5,2.4-5.4,4.4-7,7.8c2.3,0.1,1.9,2.1,1.9,3.2c0,1.5-0.7,3-0.8,4.6c-0.4,4.5-1.5,8.9-1.5,13.4
			C98.6,209.2,98.4,210.4,98.3,211.5z M145.7,175.3c0.2-0.1,0.3-0.2,0.5-0.3c-0.4-0.7-0.7-1.6-1.3-2.1c-3.9-3.3-8.1-5.6-13.4-4.6
			c-1.5,0.3-2.9,0.6-3.9,0.8c0.6,0.6,1.2,1.3,1.9,2c-0.1,0.2,0.2,0.1,0.3-0.1c0.5-1.2,1.4-1.1,2.2-0.4c0.9,0.7,1.6,0.5,2.5-0.1
			c0.5-0.4,1.3-0.7,1.9-0.6c1.4,0.3,2.4,1.1,3.1,2.4c0.2,0.3,0.7,0.7,1,0.7C142.5,173,144.3,173.6,145.7,175.3z M126.8,194.7
			c0.1,0,0.3,0.1,0.4,0.1c0.8-1.8,1.7-3.6,2.4-5.4c1.7-4.2,3.3-8.4,4.9-12.6c0.8-2.2,0.8-2.2-1.4-3.9
			C131,180.2,128.9,187.4,126.8,194.7z M118,188.4c0,0,0.1,0,0.1,0c2.5-6.2,5.1-12.4,7.6-18.6c-1.1-0.1-2.2-0.2-2.6,1.3
			c-0.2,0.8-0.5,1.5-0.8,2.2c-0.7,1.5-1.6,2.9-2.5,4.7c-0.3-0.8-0.5-1.1-0.6-1.5c-0.2,0.1-0.3,0.1-0.5,0.2c0.3,0.5,0.5,1.2,0.9,1.4
			c0.9,0.4,0.9,0.9,0.7,1.7c-0.5,1.7-1,3.3-1.4,5C118.5,186,118.2,187.2,118,188.4z M91.5,199.6c-1,1.6-1.9,3.2-3,4.6
			c-1.4,1.8,0,3.6-0.4,5.3c0.8,0.7,1.6,1.3,2.4,2C89.9,207.4,91.3,203.7,91.5,199.6z M108.7,185.2c0.2,0,0.4,0.1,0.6,0.1
			c1.2-3.5,2.5-7,3.8-10.7c-2.9,1-2.9,1-3.6-0.7c-0.6,0.4-1.2,0.8-1.7,1.2c0.3,0.3,0.7,0.6,1,0.9c0.2,0.2,0.5,0.5,0.5,0.8
			c0,1.8,0,3.5-0.1,5.3C109.2,183.3,108.9,184.3,108.7,185.2z M99.2,218.9c-0.1,0-0.2-0.1-0.3-0.1c0.1,0.3,0.2,0.5,0.2,0.8
			c0.2,1.3,1.2,1.7,2.3,1.9c0.4,0.1,1.1-0.2,1.2-0.4c0.2-1.2,1.4-2.5,0.3-3.5c-1.2-1.1-1.2-2.3-0.9-3.7c0.1-0.5,0.1-1.1,0.2-1.7
			c-0.1,0-0.2-0.1-0.4-0.1C100.9,214.3,100,216.6,99.2,218.9z M106.8,213c1.4,0.6,0.8,1.7,0.4,2.7c0.9-0.1,2.3-2.1,2.5-3
			c0.3-2.2,0.7-4.4,1-6.6c0.3-1.5,0.6-3,0.9-4.5c-0.1,0-0.3-0.1-0.4-0.1C109.6,205.1,109.7,209.6,106.8,213z M119.4,171.7
			c-2.6,0.1-3.6,1.6-4.2,3.6c0.2,0.2,0.6,0.6,0.5,0.9c-0.3,1.3-0.6,2.5-1,3.8c-0.1,0.4-0.2,0.8-0.4,1.2c0.1,0.1,0.3,0.1,0.4,0.2
			C116.3,178.2,117.8,175.1,119.4,171.7z M117.7,209.5c-2-0.7-1.8-2.2-1.8-3.7c-1.8,1.9-2.9,3.9-2.1,6.7
			C115.1,211.5,116.2,210.7,117.7,209.5z M126.8,203.8c1.5-1.1,2.8-2,3.7-2.7c-0.3-1.5-0.5-2.7-0.8-3.8c-0.1-0.1-0.3-0.1-0.4-0.2
			C129.4,199.7,126.2,200.7,126.8,203.8z M140.2,193.8c-0.1-0.2-0.2-0.3-0.3-0.4c-0.9,0.8-2.4-1-3.1,0.7c-0.5,1-0.8,2.1-1.1,3.1
			c0.2,0.1,0.3,0.2,0.5,0.3C137.5,196.3,138.8,195,140.2,193.8z M123,206.2c-0.6-1.1-1.1-2-1.7-3.1c-0.5,1.4-1,2.7-1.5,4.1
			c0.1,0.1,0.3,0.2,0.4,0.3C121.2,207,122.2,206.6,123,206.2z M93.8,196.1c0.7,0,1.6,0.1,1.7,0c0.7-1.9,1.2-3.8,1.7-5.7
			c-0.1,0-0.2-0.1-0.3-0.1C95.9,192,94.9,193.9,93.8,196.1z M95.1,211.8c-1.8,2.3-1.8,3.6,0,4.8C95.1,214.9,95.1,213.4,95.1,211.8z
			 M142.4,188.2c-0.1-0.2-0.2-0.4-0.2-0.6c-0.3,0.2-0.8,0.3-1,0.5c-0.8,1-1.6,1.6-2.9,1.2c-0.2-0.1-0.5,0.1-0.8,0.2
			c0.5,0.7,0.9,1.4,1.3,1.9c0.3-0.7,0.4-1.4,0.8-1.6c0.5-0.2,1.1-0.1,1.9-0.1C140.6,188.5,141.5,188.4,142.4,188.2z M98.1,220.3
			c-1-1.9-1.2-2.1-2.8-1.9C96.7,218.8,95.8,221.3,98.1,220.3z"/>
		<path fill="#FFFFFF" d="M183.3,162.6c-3.3,0-5.8-1.7-8.3-3.4c-0.7-0.5-1.6-0.8-2-1.4c-2.2-3.3-4.5-6.4-4.2-10.8
			c0.3-3.3,0.7-6.4,2.4-9.3c0.8-1.5,0.7-3.5,1.3-5.1c0.7-2.2,1.7-4.3,3.4-5.9c1.5-1.4,3.1-1.9,5-1.2c2.7,1,5.2,2.2,7.9,3
			c2.2,0.7,4.6,0.9,6.9,1.5c3.7,0.9,7.6,1.6,10.6,4.1c0.9,0.8,1.6,2,2.2,3.1c0.7,1.2,0.2,2.5-0.1,3.9c-0.4,2.1-1.4,3.8-2.3,5.6
			c-1,1.9-2.3,3.7-3.7,5.4c-1.7,2.1-3.4,4.3-5.4,6c-1.6,1.4-3.8,2.3-5.8,3C188.7,161.8,185.9,162.1,183.3,162.6z M194.2,146.8
			c-0.1,0.6-0.1,1.3-0.2,1.9c-0.5,1.9-0.9,3.8-1.6,5.6c-0.4,1-1,1.9-1.7,2.5c-0.3,0.2-1.5-0.5-2.1-1c-0.4-0.3-0.6-1-0.8-1.5
			c-0.2-0.4-0.3-0.8-0.5-1.4c-0.7,1.8-1.2,3.3-1.9,4.7c-0.2,0.4-0.8,0.9-1.1,0.8c-1-0.4-2.2-0.8-2.3-2.2c-0.1-1.8-0.2-3.6-0.4-5.5
			c-0.6,1.8-1.2,3.5-1.8,5.2c-0.5,1.5-0.8,1.6-2.3,1c-0.5-0.2-1.1-0.1-1.7-0.2c0.7,0.9,1.2,1.6,1.4,2c11.5,2.9,18.8-2.5,24.5-11.5
			c-0.9-1-1.5-1-2,0.1c-0.2,0.3-0.3,0.7-0.5,1c-0.9,1.6-1.4,1.8-2.9,0.7C195.7,148.4,195.1,147.6,194.2,146.8z M190.3,131.2
			c0.5,0.8,1.4,1.7,1.5,2.6c0.1,1.3-0.6,2.6-0.3,4.1c0.2,1.4-0.3,3-0.3,4.5c-0.1,1.1,0,2.1,0,3.2c1-3,1.7-6.1,2.3-9.2
			c0.4-2.2,1.4-2.9,3.2-1.7c0.5,0.3,0.8,1.1,0.9,1.7c0.2,1.7,0.3,3.5,0.4,5.3c0.1,0,0.3,0,0.4,0c0.2-1.1,0.5-2.1,0.7-3.2
			c0.1-0.3,0.3-0.8,0.5-0.9c1.1-0.4,2.2,0.4,2.4,1.6c0.1,0.5,0,1.1,0.2,1.5c0.5,1.3-0.4,2.9,1.2,4.3c0.7-1.7,1.3-3.2,2-4.7
			c1.7-3.7-1.2-5.9-4.1-6.7c-2.2-0.6-4.6-0.9-6.9-1.4C192.9,131.9,191.5,131.4,190.3,131.2z M186.3,129.8c-0.2,2.3-0.3,4.5-0.5,6.8
			c-0.2,2.2-0.3,4.4-0.4,6.7c0.2,0,0.3,0.1,0.5,0.1c0.4-2.1,0.8-4.2,1.3-6.2c0.5-2.1,1.1-4.3,1.6-6.4
			C188.1,130.5,187.2,130.2,186.3,129.8z M179.4,127.9c0.7,1.1,1.4,1.7,1.4,2.4c0.1,1.6-0.1,3.1-0.3,4.7c-0.1,1.7-0.4,3.3-0.5,5
			c0.4-0.3,0.5-0.6,0.6-1c0.7-3.3,1.4-6.6,2-9.8c0.1-0.4-0.4-1.2-0.7-1.3C181.2,127.8,180.4,127.9,179.4,127.9z"/>
		<path fill="#FFFFFF" d="M61,236.2c0.1-3.5,1.7-6.4,3.8-9.1c2.9-3.9,6.1-7.5,9.9-10.6c1.1-0.9,2.6-1.3,3.9-1.9c0.1-0.1,0.3,0,0.4,0
			c2.9,1.7,6.3,2.4,8.6,5.2c1.1,1.3,3,2.2,4.7,2.9c3.1,1.4,5.2,3.8,6.5,6.8c0.7,1.6-0.3,3.4-1.4,4.7c-1.9,2.2-3.9,4.3-5.9,6.3
			c-1.7,1.7-3.4,3.4-5.3,4.8c-2.1,1.5-4.3,2.9-6.6,3.8c-3.6,1.4-7.5,1.7-11.2,0c-4.2-1.8-6.4-5.3-7-9.8
			C61.2,238.4,61.1,237.3,61,236.2z M66.2,245c-0.6-1.4,0.9-3.3-1.2-4.4c-0.1-0.1-0.2-0.5-0.1-0.8c0.1-0.7,0.3-1.5,0.4-2.2
			c0.3-2.2,0.6-4.3,0.9-6.8C62.8,234.8,63.4,241.7,66.2,245z M86.3,241.4c-0.1-0.2-0.1-0.4-0.2-0.6c-0.6-0.3-1.2-0.5-1.7-0.7
			c-0.6,1.1-1,2.3-1.7,3c-1.2,1.3-1.8-0.6-3.1-0.7c-0.2,1.1-0.5,2.3-0.7,3.4c0.2,0.1,0.4,0.2,0.5,0.3C81.8,244.6,84,243,86.3,241.4z
			 M82.4,218.4c-0.2,0.1-0.4,0.2-0.6,0.4c0,0.9-0.1,2.4,0.2,2.5c1.8,0.6,2.5,1.7,2.5,3.5c0,0.1,0.1,0.1,0.2,0.2
			c0.5-1.1,0.2-2.7,2.1-3.3C85.1,220.5,83.8,219.5,82.4,218.4z M88,238.9c0.1,0.1,0.2,0.2,0.4,0.2c0.8-0.7,1.6-1.4,2.5-2.2
			c-0.7-0.7-1.3-1.1-2-1.8C88.6,236.5,88.3,237.7,88,238.9z M71.6,243.6c-0.2,1.4-0.3,2.5-0.5,3.7c0.8,0.1,1.5,0.1,2,0.2
			C72.7,246.2,72.2,245.1,71.6,243.6z M91.5,225.1c0.2,1.4,0.4,2.7,0.6,4.3C93.6,226.4,93.5,225.9,91.5,225.1z"/>
		<path fill="#FFFFFF" d="M157.2,225.6c4.5-0.3,7.1,2.2,8.7,5.5c1.7,3.6,4.2,6.5,6.5,9.6c1.4,1.9,2.4,4.1,3.2,6.4
			c0.3,0.9-0.1,2.5-0.7,3.3c-1.6,2-3.5,3.7-5.3,5.5c-0.8,0.8-1.6,1.7-2.5,2.2c-1.3,0.8-2.8,1.2-4.2,1.8c-5.6,2.4-10.8,0.9-15.9-1.8
			c-2.6-1.4-4.2-3.6-6-5.8c-2.2-2.6-1.9-5.5-2.2-8.5c-0.2-3.1,1-5.8,2.6-8.4c2.6-4.1,6.4-6.5,10.8-8.3
			C154,226.3,155.6,225.3,157.2,225.6z M173.1,248c-0.1-0.8-0.1-1.3-0.2-1.7c-1-2.3-2.1-4.5-3.9-6.3c-1.4-1.4-2.5-3.1-3.6-4.7
			c-1.2-1.8-2.3-3.9-3.6-5.7c-0.7-1-1.9-1-3.2-0.6c0.5,0.3,1.1,0.5,1.6,0.6c1.3,0.1,2.3,1.5,1.8,2.6c-0.5,1.1-0.4,1.8,0.6,2.5
			c1.1,0.7,1.6,1.7,0.4,2.9c-0.4,0.4-0.6,1-0.9,1.6c0.7-0.2,1.3-0.6,1.8-0.5c0.6,0.2,1,0.8,1.4,1.1c0.5-0.1,1.2-0.5,1.6-0.3
			c0.9,0.5,1.8,1.3,1.2,2.6c-0.4,1-0.9,2-1.3,3c-0.5,1.2-0.9,2.4-1.3,3.6c1.1,0,1.9-0.2,2.5-0.6C170.5,246.4,170.5,246.3,173.1,248z
			 M154.6,257.1c3.3,1.7,12.8-1.8,14.8-5.7c-0.9,0.3-1.9,0.7-2.7,1.2c-2.6,1.7-2.5,1.8-4.9,0c-0.1,0-0.2,0-0.4,0
			c-0.3,0.5-0.8,1.1-1,1.7c-1.2,2.7-2.4,2.9-4.1,0.6c0,0-0.1,0-0.2,0C155.5,255.6,155.1,256.3,154.6,257.1z M146.2,246.6
			c0.2,0.1,0.3,0.2,0.5,0.2c1.5-2.6,3-5.1,4.5-7.7c-0.1-0.1-0.3-0.2-0.4-0.2C148.7,241.1,147,243.6,146.2,246.6z M154,233.5
			c0.8-1.3,1.7-2.7,2.6-4.2c-0.7-0.1-1.3,0-1.7,0.3c-0.4,0.2-1,0.6-1.1,1C153.8,231.6,153.9,232.6,154,233.5z M151.5,257
			c0.1-0.1,0.2-0.2,0.2-0.4c-0.9-0.7-1.8-1.4-2.8-2.2c-0.3,0.3-0.6,0.6-1.1,1C149.2,256,150.4,256.5,151.5,257z"/>
	</g>
</g>
</svg>
