<?xml version="1.0" encoding="utf-8"?>
<!-- Generator: Adobe Illustrator 18.0.0, SVG Export Plug-In . SVG Version: 6.00 Build 0)  -->
<!DOCTYPE svg PUBLIC "-//W3C//DTD SVG 1.1//EN" "http://www.w3.org/Graphics/SVG/1.1/DTD/svg11.dtd">
<svg version="1.1" id="Calque_1" xmlns="http://www.w3.org/2000/svg" xmlns:xlink="http://www.w3.org/1999/xlink" x="0px" y="0px"
	 viewBox="0 0 313.2 313.2" enable-background="new 0 0 313.2 313.2" xml:space="preserve">
<circle fill="#5E636D" cx="156.6" cy="156.6" r="156.6"/>
<g id="x9KPmm_1_">
	<g>
		<path fill="#FFFFFF" d="M71.9,258.7c-0.4-0.3-1.1-1-1.2-0.9c-1.4,1-2.8-0.8-4.3-0.1c-0.1,0.1-0.8-0.6-1-1.1
			c-0.6-0.8-1.1-1.5-1.9-2.2c-1.7-1.5-3.5-3.3-2.7-6c0,0,0-0.1,0-0.2c-1.1-3.8,1.1-6.3,3.3-8.8c2.5-2.9,4.8-5.9,7.4-8.7
			c1.4-1.5,3.1-2.7,4.7-3.8c0.6-0.4,1.5-0.5,2.3-0.7c0.5-0.6,1.1-1.6,1.9-2.4c1.1-1.2,1.8-2.5,3.3-3.4c1.2-0.7,1.8-2.3,2.7-3.4
			c0.1-0.1,0.2-0.3,0.3-0.3c1.6-0.5,1.9-2.1,2.9-3.1c1.1-1.1,2.1-2.2,3.1-3.3c0.9-1,1.8-2.1,2.8-3c0.2-0.2,0.8,0,0.8,0
			c0.5-0.9,0.9-1.8,1.5-2.5c1.5-1.7,3.1-3.3,4.5-5.1c1.6-2.1,2.9-4.4,4.6-6.5c1.9-2.4,4-4.6,6-6.9c1.5-1.7,2.8-3.5,4.3-5.2
			c0.2-0.3,0.6-0.3,0.8-0.4c0.4-0.6,0.6-1.3,1.1-1.9c2.3-2.6,4.6-5.2,7-7.8c1.4-1.5,3.1-2.7,4.6-4.1c0.8-0.8,1.2-1.8,1.9-2.7
			c1.3-1.7,2.7-3.4,4.1-5c2.8-3.3,5.7-6.5,8.5-9.8c2.1-2.5,4.2-5,6.2-7.5c0.5-0.6,0.9-1.3,1.5-2.1c-1.1,0.1-1.9,0.1-2.6,0.3
			c-3.7,0.5-7.5,1.2-11.2,1.6c-2.4,0.3-4.7,0.3-7.1,0.4c-0.7,0-1.4,0-2,0.1c-1.9,0.3-4-0.7-4.9-2.4c-0.7-1.4-0.2-2.6,1.2-3.4
			c2-1.3,3.8-2.8,5.8-4.1c1.6-1,3.2-2,5-2.7c1.8-0.8,3.2-2.3,4.9-3.1c3.1-1.4,5.1-4.1,8-5.8c0.4-0.2,0.8-0.3,1.3-0.5
			c-0.1-0.4-0.2-0.8-0.4-1.3c-1.2-2.9-2.4-5.7-3.5-8.7c-0.4-1.1-0.3-2.3-0.5-3.4c-0.3-1.2-0.6-2.4-1.1-3.5c-0.7-1.6-1.3-3.2-2.3-4.6
			c-0.8-1.1-0.4-2.2-0.6-3.3c-0.1-0.2,0.5-0.9,0.7-0.9c1.1,0.3,2.1,0.7,3.2,1c0.5,0.2,1.1,0.2,1.6,0.3c0.3,0.1,0.7,0.1,0.9,0.2
			c2,1.1,3.9,2.3,5.9,3.2c2.5,1.2,5.1,2.1,7.6,3.2c2.4,1,4.8,2.1,7.2,3.1c0.7,0.3,1.6,0.4,2.2,0.1c1.9-1.1,3.7-2.5,5.6-3.7
			c1.8-1.1,3.6-2.1,5.3-3.3c0.4-0.3,0.6-0.9,1.1-1.3c1.7-1.3,3.4-2.5,5.1-3.8c1.4-1,2.7-2.2,4.1-3.1c0.8-0.5,1.8-0.9,2.8-1.2
			c0.9-0.3,2.8,1.7,3.1,2.9c0.5,2.8,0,5.5-0.7,8.3c-0.6,2.3-1,4.6-1.4,6.9c-0.6,2.9-1.2,5.8-1.7,8.8c-0.1,0.6,0.4,1.6,1,1.8
			c2.9,1.4,5.9,2.6,8.7,4c2.1,1.1,4.2,2.3,6.2,3.5c0.7,0.4,1.3,0.9,2,1.1c2.1,0.9,3.9,2.2,5.3,4c1.1,1.4,0.8,3-0.8,4.1
			c-1.5,1-2.8,2.3-4.3,2.9c-2.5,1-4.6,3-7.8,2.7c-3-0.3-6,0.3-9.1,0.4c-2,0.1-4.1,0.3-6.1,0c-1.6-0.2-1.9,0.6-2.1,1.6
			c-0.4,3.2-0.6,6.3-1,9.5c-0.2,2-0.7,3.9-1,5.9c-0.3,1.6-0.4,3.2-0.8,4.7c-0.6,2.5-1.2,5.1-2.1,7.6c-1.4,3.7-3,7.3-4.6,10.9
			c-0.3,0.8-1.2,1.7-1.8,1.8c-0.6,0.1-1.5-0.9-1.9-1.6c-1.9-3.5-3.7-7.1-5.6-10.6c-0.7-1.3-1.7-2.6-2.3-3.9
			c-1.4-3.2-2.7-6.5-3.9-9.8c-0.6-1.6-1-3.3-1.7-5.4c-2.2,2.6-4.1,5-6.1,7.2c-1.1,1.3-2.2,2.6-3.2,4c-1,1.5-2.2,2.9-3.4,4.2
			c-2.3,2.6-4.6,5.1-6.8,7.8c-2.2,2.7-4,5.7-6.1,8.5c-1.1,1.5-2.3,2.9-3.4,4.3c-1.7,2.2-3.4,4.3-5,6.6c-1.9,2.7-3.6,5.5-5.6,8.2
			c-1.3,1.7-2.9,3.2-4.2,5c-2.1,2.9-3.9,6-6.2,8.7c-2.5,2.9-4.7,6-7.3,8.7c-3.4,3.5-6.2,7.6-9.3,11.4c-1.7,2.1-3.2,4.6-5.3,6.3
			c-3.2,2.7-5.4,6.1-8.2,9.1c-2,2.1-4.3,4-6.6,5.9c-0.5,0.4-1.6,0.2-2.2,0.3c-0.3,0.5-0.7,1-1,1.5C72.1,258.7,72,258.7,71.9,258.7z
			 M99.2,214c-0.6,1.3-1.2,2.5-1.8,3.7c-1.4,2.8-3,5.6-4.3,8.4c-0.5,1.1-0.9,1.6-2.1,1.5c-1.1-0.1-1.8,0.3-2.2,1.5
			c-0.5,1.9-1.5,3.7-2.1,5.6c-0.2,0.5,0.2,1.2,0.4,2.1c0.5-0.9,0.7-1.3,1-1.7c0.9-1.2,1.9-2.4,2.8-3.6c2.3-3.2,4.6-6.4,6.8-9.6
			c1-1.4,1.9-2.7,2.9-4.1c1.3-1.9,1.3-1.9-0.7-3.2C99.6,214.5,99.5,214.3,99.2,214z M132.2,172.6c0-0.1-0.1-0.2-0.1-0.4
			c-0.5,0.2-1.1,0.2-1.4,0.6c-2.9,3.1-5.6,6.3-8.5,9.4c-0.8,0.9-0.8,1.5-0.3,2.3c0.5,0.7,1.1,1.4,1.9,2.3
			C126.7,181.9,129.4,177.2,132.2,172.6z M172.7,156.7c-0.2,0-0.4-0.1-0.6-0.1c-0.7,0.6-1.5,1.2-2.1,1.9c-1.4,1.7,0.1,3.2,0.5,4.8
			c0.5,1.6,1.1,3.1,1.7,4.7c0.2,0.4,0.3,0.8,0.5,1.2c0.2,0,0.3,0,0.5,0c0.2-1.2,0.4-2.5,0.4-3.7c0-0.6,0-1.5-0.4-1.8
			c-1-1-0.9-2.3-0.9-3.5C172.5,159,172.6,157.8,172.7,156.7z M180.7,151.1c-0.2,0-0.3-0.1-0.5-0.1c-1.6,2.3-3.3,4.5-3.1,7.6
			c0,0.5,0.8,1,1.2,1.5c0.5-0.5,1.2-0.9,1.3-1.4c0.5-2.1,0.8-4.3,1.2-6.4C180.9,151.9,180.8,151.5,180.7,151.1z M67.7,247.5
			c0.3,4.1,0.7,4.5,4.5,4.6c1.5,0.1,1.9-1.5,3.2-2.5C72.5,249,69.3,251.2,67.7,247.5z M75.5,248c0.3,0.6,0.6,1,1.4,0.1
			c1.1-1.3,2.3-2.6,3.2-4c0.3-0.5-0.1-1.4-0.2-2.1c-0.5,0.3-1.1,0.6-1.4,1.1c-0.6,1-1,2.2-1.5,3.3C76.7,246.9,76.1,247.3,75.5,248z
			 M173.3,116.1c-2.2-1.5-2.8-1.3-3.8,0.6c-0.3,0.6-0.8,1.2-1.2,1.8c-0.1,0.2-0.2,0.5-0.3,0.7c0.3,0.1,0.8,0.3,0.9,0.2
			C170.4,118.4,171.8,117.3,173.3,116.1z M202.3,126.2c1.4,3.9,2.6,4.5,6.6,2.8C206.5,128,204.4,127.1,202.3,126.2z M163.2,111.6
			c0.1-0.2,0.1-0.4,0.2-0.6c-0.9-0.4-1.9-1.1-2.8-1.2c-0.3,0-0.9,1.3-1.2,2.1c-0.2,0.6-0.3,1.3-0.4,1.9c0.1,0.1,0.2,0.2,0.3,0.3
			C160.6,113.3,161.9,112.4,163.2,111.6z M176,148.3c2-2.2,3.5-4,5.2-5.9c0-0.3-0.1-0.8-0.2-1.5c-0.5,0.4-1,0.7-1.3,1
			c-1.3,1.6-2.6,3.2-3.8,4.9C175.7,147.1,175.9,147.7,176,148.3z M113.2,196.2c0.9-1.8,1.7-3.4,2.5-4.9c0.1-0.1-0.1-0.6-0.2-0.6
			c-0.3,0-0.8,0-0.9,0.2c-0.6,0.9-1,2.2-1.8,2.6C110.9,194.6,112.1,195.1,113.2,196.2z M194.4,99.4c0.2-0.1,0.3-0.1,0.5-0.2
			c0.4-1.4,0.8-2.9,1.2-4.3c-0.2-0.1-0.3-0.3-0.5-0.4c-0.9,0.6-1.8,1.2-2.8,1.8c0.1,0.1,0.1,0.3,0.2,0.4c0.4,0.1,0.8,0.2,1.3,0.3
			C194.4,97.9,194.4,98.6,194.4,99.4z M160.4,131.1c0.7,0.4,1.3,0.7,1.6,0.9c0.3-0.8,0.6-1.5,1-2.6c-0.3-0.2-1.2-0.7-1.2-0.6
			C161.3,129.5,160.9,130.3,160.4,131.1z M150.8,109c1-2.1,0.8-3-0.7-3.6C149.4,106.8,149.5,108,150.8,109z M86.2,225.1
			c-0.1-0.1-0.3-0.3-0.4-0.4c-0.7,0.7-1.4,1.3-2,2c-0.1,0.2,0.2,0.9,0.5,1.2c0.1,0.1,0.9-0.2,1-0.4
			C85.7,226.8,85.9,225.9,86.2,225.1z M180.8,110c0.9-1.2,1.7-2.3,2.6-3.7C180.8,107.2,179.7,108.7,180.8,110z M75.9,234.5
			c1,0.3,1.5,0.5,2.3,0.7c-0.2-0.9-0.4-1.7-0.6-2.4C77.1,233.3,76.6,233.8,75.9,234.5z M165.5,147.8c0.3,0.1,0.5,0.1,0.8,0.2
			c0.2-0.7,0.5-1.4,0.6-2.2c0-0.2-0.2-0.5-0.4-0.6c-0.2-0.1-0.6,0.1-0.6,0.2C165.7,146.2,165.6,147,165.5,147.8z M106.1,207.7
			c-0.3,0.9-0.6,1.8-0.9,2.7c0.1,0,0.3,0.1,0.4,0.1C107.4,208.3,107.4,208.3,106.1,207.7z M192,111.9c-0.1,0-0.2,0-0.3,0
			c-0.2,0.6-0.5,1.1-0.7,1.7c-0.1,0.3,0,0.7,0.1,1c0.3-0.2,0.9-0.4,1-0.7C192.2,113.3,192,112.6,192,111.9z M154.8,133.4
			c-1.1,1.1-0.8,1.8,0.7,2.1c0.2-0.5,0.3-1,0.5-1.5C155.6,133.8,155.2,133.6,154.8,133.4z M199.3,135.7c0.1-0.2,0.1-0.4,0.2-0.7
			c-0.6-0.2-1.2-0.4-1.8-0.6c-0.1,0.3-0.1,0.7-0.2,1C198.2,135.5,198.7,135.6,199.3,135.7z"/>
		<path fill="#FFFFFF" d="M183.4,36.5c2.2,2.4,3.3,4.9,1.9,8.3c-1.3,3.3-2,6.9-2.6,10.4c-0.5,2.9-0.5,5.9-0.7,9
			c-2.3,0.5-4.4-1.3-4.5-3.8c-0.1-6.5,1.5-12.6,3.5-18.7c0.6-1.7,1.1-3.5,1.6-5.2C183,36.5,183.2,36.5,183.4,36.5z"/>
		<path fill="#FFFFFF" d="M234.7,116.3c2.2-0.9,4.1-1.9,6.1-2.5c5.2-1.5,10.3-2.9,15.6-4.1c2.9-0.6,5.9-0.9,8.9-1
			c2-0.1,3.8,0.8,5.1,2.5c0.6,0.8,0.4,1.3-0.5,1.7c-0.2,0.1-0.5,0.2-0.8,0.2c-4.9-0.3-9.6,1.3-14.3,2.4c-4,0.9-7.9,2.3-11.7,3.6
			C240.6,120,237,119.1,234.7,116.3z"/>
		<path fill="#FFFFFF" d="M226.8,176.4c1.2,0.4,2.1,0.7,3,0.9c1.5,0.3,3.4,2.6,3.8,4.6c0.1,0.5,0.2,1.1,0.4,1.5
			c1.2,2.2,1.2,2.2-1.2,3.2c2.7,1.3,5.4,2.5,4.8,5.8c1.4,2.8,2.7,5.4,3.8,8.1c0.2,0.5-0.1,1.1-0.2,1.7c-0.6-0.2-1.2-0.2-1.7-0.5
			c-3-2-4.5-5.2-6-8.2c-2.2-4.3-4-8.8-5.8-13.3C227.2,179.1,227.1,177.7,226.8,176.4z"/>
		<path fill="#FFFFFF" d="M125.7,101.7c-0.5,0.2-1.2,0.6-1.5,0.4c-1.5-1-3.6-1.3-4.5-3.3c-1.4-3.1-3.8-5.4-6.9-7
			c-1.4-0.7-2.6-1.9-3.9-2.6c-1.4-0.8-2.9-1.2-4.3-1.9c-1-0.5-2-1.2-2.9-1.9c-0.2-0.2,0-0.9-0.1-1.4c0.4,0.1,0.8,0.3,1.1,0.4
			c0.2,0.1,0.4,0.5,0.6,0.5c4.2,0.1,7.1,2.7,10.3,5c1.3,1,2.8,1.7,4.2,2.6c0.3,0.2,0.6,0.3,0.7,0.6c0.4,1.9,1.7,2.8,3.4,3.6
			c1,0.4,1.5,1.9,2.3,2.8C124.6,100,125,100.7,125.7,101.7z"/>
	</g>
</g>
</svg>
