<?xml version="1.0" encoding="utf-8"?>
<!-- Generator: Adobe Illustrator 18.0.0, SVG Export Plug-In . SVG Version: 6.00 Build 0)  -->
<!DOCTYPE svg PUBLIC "-//W3C//DTD SVG 1.1//EN" "http://www.w3.org/Graphics/SVG/1.1/DTD/svg11.dtd">
<svg version="1.1" id="Calque_1" xmlns="http://www.w3.org/2000/svg" xmlns:xlink="http://www.w3.org/1999/xlink" x="0px" y="0px"
	 viewBox="0 0 68.2 61" enable-background="new 0 0 68.2 61" xml:space="preserve">
<g>
	<g>
		<path fill="#4B505C" d="M36.1,7.7c-1.1,0-1.9,0.9-1.9,1.9c0,1.1,0.9,1.9,1.9,1.9c4.3,0,9.6,3.9,9.6,9.8c0,1.1,0.9,1.9,1.9,1.9
			c1.1,0,1.9-0.9,1.9-1.9C49.5,12.5,42.7,7.7,36.1,7.7z"/>
		<path fill="#4B505C" d="M34.2,0c-12.7,0-23,10.3-23,23c0,7.4,3.6,14.4,9.6,18.7l0.3,0.2c1.4,0.8,1.5,3.5,1.5,4l0,0.2v7.5
			c0,1.4,0.8,2.8,2.1,3.4l7.7,3.9c0.5,0.3,1.1,0.4,1.7,0.4c0.6,0,1.2-0.1,1.7-0.4l7.8-4c1.3-0.6,2.1-2,2.1-3.4v-7.5
			c0-3.8,2.3-5,2.3-5l0.8-0.5c5.2-4.4,8.2-10.8,8.2-17.6C57.2,10.3,46.8,0,34.2,0z M34.2,57.6l-7.7-3.9H42L34.2,57.6z M42,46.1v3.7
			H26.4v-3.7V46H42L42,46.1z M46.5,37.6c0,0-2.6,1.2-3.8,4.5H25.8c-0.5-1.3-1.3-2.7-2.8-3.6c-4.9-3.5-8-9.2-8-15.6
			c0-10.6,8.6-19.2,19.2-19.2c10.6,0,19.2,8.6,19.2,19.2C53.3,28.9,50.7,34.1,46.5,37.6z"/>
	</g>
</g>
</svg>
