<?xml version="1.0" encoding="utf-8"?>
<!-- Generator: Adobe Illustrator 18.0.0, SVG Export Plug-In . SVG Version: 6.00 Build 0)  -->
<!DOCTYPE svg PUBLIC "-//W3C//DTD SVG 1.1//EN" "http://www.w3.org/Graphics/SVG/1.1/DTD/svg11.dtd">
<svg version="1.1" id="Calque_1" xmlns="http://www.w3.org/2000/svg" xmlns:xlink="http://www.w3.org/1999/xlink" x="0px" y="0px"
	 viewBox="0 0 313.2 313.2" enable-background="new 0 0 313.2 313.2" xml:space="preserve">
<circle fill="#5E636D" cx="156.6" cy="156.6" r="156.6"/>
<g id="rf5Yxk_1_">
	<g>
		<path fill="#FFFFFF" d="M45.3,221.4c0.2-0.2,0.4-0.4,0.6-0.6c-0.6-0.5-0.4-0.9-0.1-1.4c0.5-0.8,0.7-1.7,0.6-2.7
			c-0.1-1.2,0.1-2.4,0.2-3.6c0.1,0,0.1,0.1,0.2,0.1c0.3-0.4,0.6-0.8,0.8-1.2c0.5-1.1,0.9-2.2,1.4-3.3c0.9-2,2-4,2.9-6
			c1-2.1,1.9-4.3,3-6.4c2.2-4.2,4.4-8.4,6.7-12.6c1.2-2.2,2.3-4.4,3.6-6.6c1.1-2,2.3-3.9,3.4-5.8c1.3-2.4,2.6-4.9,3.9-7.3
			c0.6-1,1.3-2,2-2.9c0-0.1,0.1-0.1,0.1-0.2c0.2-2.1,2-3.3,2.8-5.2c0.4-0.9,1.1-1.7,1.5-2.7c0.1-0.3,0.1-0.7,0-1.1
			c-0.1-0.8,0.3-1.3,0.9-1.7c0.5-0.4,0.8-1,1.2-1.5c1.3-2.3,2.5-4.6,3.7-7c0.6-1.2,1-2.5,1.6-3.7c0.6-1.2,1.1-2.4,1.8-3.5
			c1.1-1.9,2.3-3.8,3.4-5.7c0.9-1.5,1.9-3,2.9-4.5c1.4-2.1,2.7-4.3,4.2-6.4c1.4-2,3-3.9,4.5-5.8c1.2-1.5,2.4-3,3.6-4.5
			c0.2-0.2,0.2-0.6,0.3-1c0.1-0.2,0.1-0.6,0.3-0.6c0.7-0.2,0.9-0.8,1.1-1.4c0.2-0.4,0.7-0.8,1.1-1.1c2.1-1.5,4.9-1.7,6.8-3.7
			c0.5-0.5,1.3-0.7,2-0.8c3.1-0.7,6-1.9,8.9-3.3c2.4-1.2,4.7-2.5,7.1-3.6c2.7-1.3,5.4-2.3,8.1-3.5c2.6-1.1,5.2-2.3,7.8-3.5
			c2.6-1.2,5.2-2.5,7.9-3.6c1.6-0.6,3.2-1,4.8-1.6c1-0.4,1.8-0.9,2.8-1.4c0.7-0.4,1.4-0.7,2.2-1c1.8-0.6,3.6-1.3,5.4-1.7
			c2.3-0.6,4.3-0.3,6,1.8c2.8,3.4,5.9,6.6,8.6,10.1c2.5,3.3,4.8,6.8,7.1,10.3c1.7,2.6,3.7,5,5.7,7.3c0.7,0.8,1.3,1.8,2.1,2.6
			c0.7,0.8,1.5,1.6,2.3,2.3c1,0.8,1.4,2,0.5,2.7c-0.9-1.1-1.6-2.4-3.3-2.8c0.3,0.9,0.6,1.6,0.9,2.3c0,0.1,0.1,0.2,0.2,0.2
			c0.6-0.1,1,0.3,0.8,0.8c-0.2,0.5-0.6,0.8-1,1.2c-0.2,0.2-0.5,0.1-0.8,0.2c0.1,0.8,0.2,1.6,0.2,2.5c0,0.8-0.6,1.7-1.4,2
			c-0.8,0.2-1.4,0.1-2-0.6c0.1,0.7,0.2,1.4,0.4,2.1c0.3,1.5,0.5,2.9,0.8,4.4c0,0.2,0.1,0.5,0.1,0.7c0.2,0.8-0.4,1.6-1.2,1.7
			c-0.2,0-0.6-0.3-0.7-0.5c-0.2-0.7-0.2-1.5-0.3-2.2c-0.1,0-0.1,0-0.2,0c0,0.8,0,1.7,0,2.5c0,1.3-0.3,1.6-1.7,1.2
			c0.1,2.6,0.2,5.1,0.4,7.6c0.1,0,0.2,0,0.3,0c0.3-1,0.7-2.1,1.1-3.1c0.3-0.9,0.8-1.7,1.2-2.5c0.8-1.9,1.4-3.9,2.2-5.9
			c0.6-1.5,1.2-3,1.8-4.6c0.1-0.2,0.3-0.3,0.4-0.5c0.2-0.2,0.4-0.4,0.6-0.6c0.7-1.4,1.2-2.8,2-4.1c0.5-0.8,1.3-1.4,2-2.1
			c-0.1-0.1-0.2-0.2-0.3-0.3c-0.1-0.1-0.2-0.2-0.3-0.4c-0.5-0.9-0.2-1.4,0.9-1.5c0.5-0.1,1-0.2,1.5-0.4c2.1-1.1,4.1-2.2,6.2-3.4
			c1.8-1.1,3.5-2.3,5.2-3.4c0.3-0.2,0.5-0.3,0.8-0.4c2-0.7,3.8-1.9,5.5-3.2c0.3-0.2,0.7-0.4,1.1-0.6c2-1.1,4.1-2.1,6.1-3.2
			c2.1-1.1,4.1-2.1,6.2-3.2c0.9-0.4,1.8-0.8,2.7-1.3c1.2-0.7,2.4-1.5,3.6-2.3c0.4-0.2,0.8-0.4,1.2-0.6c0.4-0.2,0.7-0.5,1.1-0.7
			c0.1-0.1,0.2-0.3,0.3-0.3c1.5-0.8,3.1-1.7,4.6-2.5c0.2-0.1,0.4-0.2,0.6-0.3c1.3-0.8,2.6-1.7,3.9-2.6c1-0.6,2-1.2,3-1.8
			c1-0.5,2.1-0.5,3.4-0.1c-0.4,0.3-0.6,0.6-0.8,0.6c-2.3,0.3-4.2,1.6-6.1,2.8c-2.3,1.4-4.6,2.9-6.9,4.3c-2.5,1.5-4.9,3.1-7.5,4.5
			c-3.2,1.8-6.5,3.4-9.7,5.2c-5,2.7-10,5.2-14.7,8.4c-2.3,1.5-4.6,3.1-6.9,4.5c-0.9,0.6-1.8,1-2.8,1.4c-0.3,0.2-0.6,0.4-0.9,0.7
			c1,0,1.2,0.7,1.5,1.4c1.7,3.1,3.5,6.3,5.3,9.4c0.3,0.6,0.7,1.2,1.2,1.7c0.1-1.6,0-3.1-0.7-4.6c-1.3-2.4-2.3-4.8-3.5-7.3
			c-0.2-0.3-0.2-0.9,0-1.2c0.5-0.7,1.4-0.9,1.9,0.2c0.8,1.8,1.7,3.7,2.7,5.6c0.1-0.9,0.2-1.6,0.3-2.4c0.1-0.6,0.2-1.2,0.2-1.8
			c0-0.3,0-0.6-0.1-0.8c-0.5-0.7-0.1-1.1,0.5-1.4c0.6-0.3,1,0,1.4,0.5c1.7,2.7,3.4,5.4,5.1,8.1c1.5,2.4,3,4.8,4.4,7.2
			c0.1,0,0.2-0.1,0.2-0.1c-0.3-0.8-0.6-1.5-0.9-2.3c-0.4-0.8-0.8-1.7-1.3-2.4c-0.3-0.5-0.7-0.8-1-1.3c-1.8-3.1-3.6-6.2-5.4-9.4
			c-0.3-0.6-0.5-1.2-0.8-1.9c-0.3-0.7,0.2-1.1,0.7-1.2c0.4-0.1,1.1,0.1,1.3,0.4c1.2,1.8,2.3,3.6,3.5,5.4c1,1.6,2,3.2,3,4.7
			c0.1,0.2,0.4,0.3,0.6,0.5c0-0.1,0.1-0.1,0.1-0.2c-0.1-0.3-0.4-0.6-0.3-0.9c0.6-1.7-0.6-2.8-1.3-4c-0.9-1.6-1.9-3.1-2.9-4.6
			c-0.4-0.7-0.2-1.1,0.3-1.5c0.6-0.4,1-0.2,1.4,0.3c0.6,0.9,1.2,1.8,1.8,2.7c0.1,0.2,0.3,0.3,0.6,0.6c0.4-1-0.1-1.6-0.4-2.2
			c-0.5-0.9-1.1-1.8-1.6-2.7c-0.2-0.3-0.6-0.7,0-1.1c0.5-0.3,0.9-1,1.6-0.4c0.1,0.1,0.3,0.2,0.5,0.3c0-0.5,0.1-0.9,0.1-1.4
			c0-0.7,0.3-1.2,1-1.2c0.7,0,1.5,0,1.6,0.9c0.2,1.6,0.4,3.2,0.4,4.8c0,1.1,0.4,1.9,1,2.7c1.3,2,2.7,3.9,4.1,5.8
			c0.3,0.4,0.6,0.8,1.1,1.3c0.4-1.7,0.2-3.1-0.4-4.4c-1.4-2.9-2.7-5.7-4.1-8.6c-0.4-0.8,0.3-1,0.7-1.3c0.3-0.2,1,0,1.2,0.2
			c0.8,1,1.5,2.2,2.3,3.2c0.1,0.2,0.3,0.3,0.5,0.5c0.1-0.2,0.2-0.3,0.2-0.4c0-1.1-0.1-2.2,0-3.3c0-1.6,0.1-3.1,0.2-4.7
			c0-0.8,0.1-1.7,0.1-2.5c0-0.7,0.5-0.9,1-0.8c0.5,0.1,1.1,0,1.2,0.8c0.1,0.9,0.4,1.9,0.4,2.8c0.1,2.4,1.6,3.8,3.2,5.2
			c0.4,0.4,0.9,0.7,1.4,1.1c1-3,1.8-5.9,1.2-9c-0.2-1.1-0.3-2.3,0.9-3c0.3-0.2,0.9-0.2,1.1,0c0.6,0.4,0.8,0.2,1-0.3
			c0.9-1.6,1.8-3.3,2.9-4.8c0.6-0.9,1.6-1.5,2.4-2.2c0.2-0.2,0.7-0.2,1-0.2c0.3,0.1,0.5,0.3,0.8,0.5c-0.2,0.2-0.4,0.5-0.6,0.5
			c-1.3,0.3-1.9,1.5-2.6,2.5c-0.8,1.2-1.4,2.5-2.1,3.8c0,0.1,0,0.2,0.1,0.6c1.3-2,2.5-3.8,4.9-4.1c0.1,0.5,0.2,0.9,0.2,1.4
			c-0.3,0.1-0.6,0.3-0.9,0.2c-0.9-0.3-1.3,0.3-1.8,0.9c-0.7,0.9-1.3,1.8-2,2.7c-0.2,0.3-0.6,0.6-1,0.7c-1.1,0.2-1.4,1.1-1.7,1.9
			c-0.7,2.1-1.1,4.3-0.8,6.5c0.1,1.1-0.3,2.2-1.5,2.8c-0.7,0.3-0.7,1-0.8,1.6c-0.1,1.1-0.7,2.2-1.6,2.7c0.2,0.8,0.5,1.5,0.7,2.3
			c0.4,1.2,0.2,2.1-0.5,2.6c-0.8,0.5-1.7,0.5-2.6-0.4c-1.2-1.1-2.3-2.3-3.6-3.5c0.4,0.8,0.8,1.7,1.2,2.5c0.9,1.9,1.7,3.8,2.6,5.7
			c0.3,0.7,0.2,1.3-0.3,1.9c-0.6,0.6-1.2,0.6-2,0.4c-0.4-0.1-0.7-0.3-1.2-0.5c0.1,0.3,0.1,0.6,0.2,0.9c0.7,1.5,1.5,2.9,2.2,4.3
			c0.4,0.7,0.4,1.4,0,2c-0.5,0.8-1.3,0.9-2.7,0.4c0.2,0.5,0.4,0.8,0.5,1.1c0.2,0.7,0.5,1.3,0.5,2c0,0.4-0.5,1-0.8,1.1
			c-0.7,0.2-1,0.5-0.9,1.2c0,1.2-0.7,2.4-0.2,3.8c0.3,0.8-0.3,1.5-0.9,1.7c-0.3,0.7-0.4,1.4-0.8,1.8c-0.8,0.9-1.3,0.8-2.4,0.2
			c-0.3-0.2-0.7-0.4-1-0.6c-0.3-0.2-0.7-0.4-1.2-0.5c0.8,1.1,1.6,2.1,2.3,3.2c0.5,0.8,1,1.6,1.5,2.4c0.3,0.7-0.1,1.1-0.7,1.5
			c-0.6,0.4-0.9,0.1-1.3-0.3c-0.5-0.4-0.9-0.9-1.4-1.3c-0.2,0.3-0.4,0.6-0.5,0.8c0.2,0.7,0.2,1.4,0.5,1.9c0.9,1.6,1.9,3.2,2.8,4.9
			c0.7,1.1,0.6,1.6-0.3,2.3c-0.5,0.4-0.8,0.4-1.3,0c-0.2-0.2-0.5-0.2-0.8-0.3c0,0.3-0.1,0.6,0,0.8c0.1,1.4,0.5,2.8-0.3,4.2
			c-0.2,0.3-0.1,0.7-0.2,1c-0.3,0.4-0.7,0.8-1.1,1.1c-0.1,0.1-0.6-0.4-0.8-0.7c-0.9-1.1-1.7-2.3-2.6-3.4c-1.6-2.1-3.2-4.1-4.8-6.1
			c-0.9-1.1-1.8-2.2-2.8-3.4c0.2,2.9,0.6,5.6,2.4,8c1.4,1.9,2.6,3.9,4,5.8c1,1.4,2.2,2.8,3.3,4.2c0.4,0.5,0.7,1,0.2,1.6
			c-0.5,0.6-1,0.6-1.6,0c-1.4-1.7-2.9-3.3-4.3-5c-0.1,0-0.2,0.1-0.2,0.1c0.2,0.4,0.5,0.8,0.7,1.1c0.7,0.9,1.3,1.8,2,2.7
			c0.8,1,1.5,2.1,2.2,3.1c0.3,0.5,0.6,1,0.7,1.5c0.2,0.6-0.1,1.1-0.6,1.5c-0.6,0.3-0.9,0-1.3-0.4c-1.2-1.5-2.4-3.1-3.6-4.6
			c-0.1-0.1-0.2-0.2-0.4-0.3c-0.5,0.7-0.1,1.3,0.2,1.7c1.5,2.1,3.1,4.2,4.7,6.3c0,0,0.1,0.1,0.3,0.2c0.4-1,0.8-2,1.2-3
			c1.2-3.1,2.3-6.2,3.4-9.4c1.2-3.4,2.4-6.9,3.6-10.3c1.1-3.2,2.2-6.4,3.4-9.5c1.3-3.6,2.7-7.1,4.1-10.7c1.1-2.9,2.3-5.7,3.4-8.6
			c0.8-2.1,1.3-4.4,2-6.5c0.7-2.1,1.4-4.3,2.1-6.4c0.6-1.9,1.3-3.8,1.8-5.7c1.2-4.4,3-8.5,4.7-12.7c1.4-3.3,2.6-6.6,4-9.9
			c0.8-1.9,1.8-3.8,2.8-5.7c0.1-0.3,0.7-0.5,1-0.4c0.5,0.2,1.3,0.1,1.4,1c0.2,1.9-0.1,3.7-0.7,5.4c-0.6,1.7-1.4,3.3-2.1,4.9
			c-1.5,3.5-2.6,7.1-3.5,10.8c-1,4.2-2.4,8.1-4.1,12c-1.5,3.3-2.9,6.7-4.2,10.1c-1.3,3.4-2.3,6.9-3.5,10.3c-0.9,2.5-1.9,4.9-2.9,7.4
			c-2.5,6.1-5.3,12.1-7.3,18.4c-0.8,2.4-1.6,4.8-2.4,7.3c-1,3-2,6-2.9,9c-0.8,2.6-1.3,5.3-2.1,8c-0.6,2.3-1.4,4.6-2.1,6.8
			c-0.2,0.8-0.3,1.5-0.4,2.4c1.3-1.5,0.5-4.1,2.4-5.3c0.1,0,0.2,0,0.4,0.1c0,0.5,0.2,0.9,0.1,1.4c-0.6,2.4-1.1,4.8-1.9,7.2
			c-0.7,2.1-1.8,4.1-2.6,6.2c-0.2,0.4-0.3,0.8-0.5,1.4c0.5-0.2,0.8-0.4,1.1-0.5c0.9-0.2,1.7-0.4,2.6-0.6c0.3,0,0.6,0.2,0.8,0.4
			c-0.2,0.2-0.3,0.6-0.5,0.7c-1.4,0.7-2.9,1.4-4.3,2c-0.2,0.1-0.4,0.2-0.6,0.4c-0.3,0.2-0.6,0.4-0.9,0.6c-0.6,0.4-1.1,0.9-1.7,1.3
			c-0.7,0.6-1.5,1.2-2.3,1.6c-2.4,1.1-4.9,2-7.3,3c-2.7,1.1-5.4,2.1-8.1,3.2c-2.5,1-4.9,2.1-7.4,3.1c-2.2,0.9-4.4,1.6-6.7,2.4
			c-3.5,1.2-7,2.3-10.4,3.7c-4.1,1.7-8.2,3.6-12.3,5.5c-2.1,0.9-4.2,1.9-6.4,2.7c-2.3,0.8-4.6,1.5-6.9,2.2c-1.3,0.4-2.6,0.6-3.9,0.8
			c-3.2,0.4-5.6-1.2-7.6-3.5c-1-1.1-2.2-2.2-3.2-3.3c-1.7-1.9-3.5-3.7-4.9-5.8c-2.7-3.9-5.3-7.9-7.9-11.9c-0.2-0.3-0.4-0.6-0.5-1
			c-0.9-2.4-2.4-4.3-3.9-6.3c-1-1.4-2.3-2.5-3.4-3.8c-0.6-0.6-0.9-1.5-1.6-2c-1.2-1-2.6-1.9-3.9-2.8c-2.1-1.5-4.1-0.3-6,0.3
			c-1.8,0.6-3.5,1.4-5.2,2.1c-2.4,1-4.7,2.1-7.1,3.1c-4.9,2.1-9.7,4.1-14.6,6.1c-2.2,0.9-4.5,1.6-6.7,2.5c-1.4,0.6-2.7,1.4-4.1,2
			c-2.1,0.8-4.2,1.5-6.3,2.2c-2,0.7-4,1.5-6,2.4c-2.4,1.1-4.9,1.7-7.5,1.8c-1.7,0.1-3,0.7-4.2,1.8C46.8,222.4,46.1,222.3,45.3,221.4
			z M91.8,131.8L91.8,131.8C91.7,131.8,91.8,131.8,91.8,131.8z M93.7,128.3L93.7,128.3c1.5-1.1,3.2-4,2.8-4.9
			C95.5,125,94.6,126.6,93.7,128.3z M151.3,197.4c-0.5-1.8-0.9-3.6-1.4-5.4c-0.1,0-0.3,0.1-0.4,0.1c0.2,1.8,0.7,3.6,1.6,5.3
			c0.4,1.2,0.8,2.5,1.3,3.7c0.1,0,0.2-0.1,0.3-0.1C152.3,199.8,152.2,198.4,151.3,197.4z M187.6,135.3c0-0.9,0-1.8,0-2.6
			c-1.2,0-2.2,0-3.5,0c0.3,0.7,0.6,1.2,0.9,1.7c0.2,0.5,0.5,0.7,1.2,0.6C186.6,134.9,187.1,135.2,187.6,135.3c0,0.4,0.1,0.7,0.1,0.8
			c1.2,0.4,2.2,0.7,3.2,1.1c-0.3-0.8-0.5-1.6-0.8-2.4c-0.1-0.2-0.4-0.5-0.6-0.5c-0.2,0-0.5,0.3-0.5,0.6
			C188.6,135.8,188.5,135.8,187.6,135.3z M156.7,113.2c-0.6,0.9-1.1,1.9-1.7,2.8c1.2-0.7,1.2,0.5,1.8,1.2
			C156.8,115.7,156.8,114.5,156.7,113.2c0.1-0.1,0.1-0.3,0.2-0.4c0.4-0.2,0.9-0.6,1.4-0.6c0.2,0,0.5,0.6,0.6,1
			c0.3,0.9,0.5,1.8,0.7,2.7c0.1,0,0.2,0,0.3,0c0.1-0.7,0.2-1.5,0.2-2.2c-0.1-2.1-0.2-4.2-0.2-6.3c0-0.4,0.3-1.1,0.6-1.2
			c1.2-0.3,1.3-1.1,1.3-2.1c0-1.1,0.3-2,1.4-2.5c0.6-0.3,0.9-0.3,1.1,0.4c0.1,0.9,0.3,1.7,0.4,2.6c0.1,0,0.1,0,0.2,0
			c0.1-2.8,0.3-5.6,0.4-8.3c0,0-0.2,0.2-0.3,0.4c-1,1.7-2,3.5-2.9,5.2c-1.8,3.5-3.6,7-5.3,10.6C156.7,112.7,156.7,112.9,156.7,113.2
			z M67.1,210.5c2.6-1,5.1-2,7.5-3.3c-0.3-0.7-0.4-1.1-0.6-1.5c-0.3-0.8-0.5-1.7-0.9-2.4c-0.1-0.3-0.6-0.4-1-0.6
			c-0.1,0.3-0.2,0.6-0.2,1c0,0.6,0.2,1.3,0.2,1.9c0.2,1.7-0.8,2.4-2.5,1.8c-1.1-0.4-1.4-1.4-1.7-2.3c-0.4-1.4-0.8-2.7-1.2-4.1
			c-0.2,0.2-0.2,0.4-0.2,0.6c0.3,1.9,0.7,3.7,0.9,5.6C67.6,208.2,68,209.5,67.1,210.5c-0.3,0-0.6,0.2-0.9,0.2
			c-0.5-0.1-1.2-0.1-1.5-0.4c-0.5-0.6-0.8-1.4-1.1-2.1c-0.5-1.5-0.9-3.1-1.4-4.7c-0.1-0.4-0.4-0.7-0.7-1c0-0.4,0.2-1,0.1-1.5
			c-0.5-1.6-1-3.1-1.6-4.7c-0.2-0.4-0.4-0.9-0.7-1.3c-0.1,0-0.2,0.1-0.3,0.1c0.2,1.2,0.4,2.4,0.6,3.6c0.8,3.6,1.7,7.2,2.6,10.7
			c0.2,0.6,0.2,1.2-0.6,1.4c-1,0.3-1.4,0.1-1.8-0.7c-0.3-0.7-0.7-1.4-1.1-2c-0.1,0-0.2,0.1-0.3,0.1c0.1,0.5,0.3,0.9,0.3,1.4
			c0.1,1,0.8,2.1-0.4,2.9c-0.1,0.1,0,0.5,0,0.7c0.1,0.6,0.2,1.1-0.6,1.3c-0.8,0.2-1.2-0.1-1.3-0.8c-0.1-0.5-0.1-1-0.2-1.5
			c-0.1-0.6-0.3-1.2-0.5-1.7c-0.6-1.5-1.3-3-1.9-4.5c-0.2-0.6,0.3-1.2,0.9-1.1c0.3,0,0.5,0.5,0.7,0.7c1-1,0.8-2.8-0.2-4.1
			c-0.2,0.5-0.4,0.9-0.6,1.3c-0.8,1.5-1.5,3.1-2.3,4.6c-1,2.1-1.9,4.1-2.8,6.2c-0.5,1.2-1.2,2.4-0.6,3.8c0.4,0.8,0.7,1,1.5,0.6
			c1.1-0.6,2.1-1.3,3.3-1.6c3.4-1,6.6-2.5,9.8-4C64.8,211.8,65.9,211.1,67.1,210.5z M199.4,151.8c-0.7-1.3-1.4-2.6-2-4
			c-0.5-1.2-1-2.4-1.4-3.6c-0.3-0.7,0.1-1.3,0.7-1.6c0.7-0.3,1,0.1,1.2,0.7c0.4,0.8,0.9,1.5,1.4,2.4c0.1-0.3,0.2-0.5,0.3-0.7
			c0-0.9,0-1.7,0-2.6c0-0.2,0.1-0.5,0-0.7c-0.3-0.9-0.7-1.8-1.1-2.7c-0.4-0.9,0.2-1.2,0.8-1.5c0.6-0.3,1-0.1,1.2,0.6
			c0.5,1.4,1,2.8,2.4,3.7c0.4,0.2,0.5,0.8,0.7,1.2c0.4,0.8,0.6,1.7,1,2.5c1,1.8,2.1,3.5,3.2,5.2c0.1,0,0.2-0.1,0.3-0.1
			c-0.2-0.4-0.4-0.8-0.7-1.3c-1.6-3.3-3.3-6.5-4.7-9.8c-0.8-2-2.2-3.8-1.9-6.1c0-0.4,0.4-1,0.8-1.2c0.3-0.1,1,0.2,1.2,0.5
			c1.3,2,2.5,4,3.7,5.9c0.6,1,1.3,1.9,1.9,2.9c0.1,0,0.2-0.1,0.3-0.1c-0.3-0.9-0.4-1.9-0.8-2.8c-0.7-1.6-1.5-3.2-2.1-4.8
			c-0.9-2.1-1.7-4.3-2.5-6.4c-0.3-0.7-0.7-1.5-1.1-2.3c-1.3,3.2-2.4,6.3-3.7,9.2c-2.4,5.5-4.9,11-7.4,16.5
			c-2.2,4.8-4.5,9.6-6.7,14.4c-1.8,4-3.6,8-5.5,12c-0.9,1.9-1.7,3.8-2.6,5.8c0.3-0.1,0.5-0.2,0.6-0.2c0.2,0,0.4,0,0.4,0
			c2.3,4.2,4.4,8.2,7.5,11.9c0.5-0.9,0.1-1.6-0.2-2.2c-0.9-1.5-1.9-3-2.9-4.5c-1-1.6-1.9-3.2-2.8-4.9c-0.1-0.2,0.3-0.8,0.6-0.9
			c0.2-0.1,0.8,0,1,0.3c0.7,1,1.4,2,2,3c0.4,0.6,0.9,1.2,1.3,1.8c0.2-1.5,0.3-3-0.3-4.4c-0.7-1.5-1.5-2.8-2.4-4.2
			c-0.3-0.4-0.8-0.8-0.1-1.3c0.6-0.4,1.2-0.4,1.7,0.3c0.3,0.5,0.6,1,0.9,1.6c0.1-0.3,0.2-0.4,0.2-0.6c0.1-0.8,0-1.7,0.2-2.5
			c0.3-1.5,0.2-3.2,1.4-4.4c0.1-0.1,0-0.4-0.1-0.5c-0.5-0.9-1-1.9-1.6-2.8c-0.5-0.8,0.1-1.2,0.5-1.5c0.5-0.4,0.9,0.1,1.3,0.5
			c1.1,1.3,1.3,3.3,3.2,4.1c0.1,0.1,0.3,0.3,0.3,0.4c0.4,0.8,0.8,1.6,1.2,2.4c0.4,0.7,0.7,1.4,1.2,2.1c1.1,1.6,2.3,3.2,3.5,4.8
			c0.7,1,1.5,2.1,2.2,3.1c0.1,0.1,0.3,0.2,0.5,0.3c0.1-0.1,0.2-0.2,0.2-0.2c-0.9-1.8-1.8-3.7-2.8-5.5c-1.5-3-3.1-5.9-4.6-8.9
			c-0.7-1.4-1.1-3-1.6-4.6c-0.2-0.7,0.3-1,0.7-1.2c0.3-0.1,0.8,0.2,1.1,0.4c0.5,0.4,0.8,1,1.3,1.5c0.1-0.1,0.1-0.1,0.2-0.2
			c-1-2.2-2.1-4.5-3.1-6.7c-0.1-0.3-0.1-0.8,0.1-1c0.8-0.8,1.3-0.7,1.7,0.4c0.4,0.8,0.8,1.7,1.3,2.5c0.1,0,0.2-0.1,0.3-0.1
			c-0.2-0.6-0.4-1.2-0.6-1.8c-0.3-1-0.7-2-1-3c-0.2-0.8,0.5-1.2,1-1.4c0.6-0.3,0.9,0.2,1,0.7c0.1,0.2,0.2,0.4,0.3,0.7
			c1.7-0.6,2.1-0.4,2.3,1.3c0.1,1,0.2,2,0.5,2.9c0.3,1,0.7,2,1.2,2.9c0.6,1.1,1.4,2.2,2.1,3.3c1,1.5,1.9,3,2.9,4.5
			c0.8-0.5,0-0.8,0-1.2c-0.1-2.3-1.7-3.9-2.6-5.8c-1.3-2.7-2.6-5.4-4-8.1c-0.5-0.9,0.4-1.1,0.8-1.5c0.5-0.4,0.8,0.1,1,0.6
			c0.1,0.3,0.2,0.6,0.4,0.8c0.3,0.5,0.5,1,0.8,1.4c0.1,0,0.1-0.1,0.2-0.1c-0.3-0.7-0.7-1.4-0.9-2.2c-0.3-0.8-0.6-1.6-0.8-2.4
			c-0.1-0.3-0.1-0.7,0.1-0.9c0.7-0.9,1.2-0.8,1.9,0.1c0.2,0.5,0.3,1.1,0.5,1.6C200.5,152.5,199.7,152.3,199.4,151.8z M144.2,227.7
			c-0.3-0.6-0.5-1.3-0.8-1.9c-1.3-2.9-1.7-6.2-3.1-9.1c-1-2.1-1.8-4.3-2.7-6.5c-0.4-0.9-0.7-1.9-1.1-2.8c-0.3-0.6-0.6-1.2-0.9-1.8
			c-0.2,0.3-0.3,0.6-0.2,0.8c0.7,1.7,1.4,3.4,2.2,5c0.6,1.4,0.3,2.3-1.2,2.7c-1,0.3-1.6,0.1-2.2-1.3c-1-2.3-1.9-4.7-2.8-7
			c-0.3-0.7-0.6-1.4-0.9-2.2c-0.1,0-0.2,0.1-0.3,0.1c0.1,0.6,0.2,1.3,0.2,1.9c0.1,1.5,0.2,2.9,0.3,4.4c0,0.3,0.1,0.6,0.3,0.9
			c1.3,1.7,2.7,3.3,4,4.9c1.8,2.3,3.5,4.6,5.3,6.9c1.3,1.7,2.6,3.4,3.9,5.1c0,0.2,0,0.4,0.1,0.5c0.9,1.3,1.7,2.6,2.6,3.9
			c0.8,1.2,1.7,2.3,2.8,3.7c0.3-0.8,0.6-1.5,0.8-2.2c0.7-2,1.5-4,3-5.6c0.1-0.1,0.1-0.1,0.1-0.2c0.4-0.7,0.8-1.4,1.1-2.1
			c0.4-0.7,0.8-1.4,1.1-2.2c0.5-1.8,1.3-3.5,2.6-5c-0.5-0.6-0.5-0.8,0.2-1.4c1.1-0.8,1.2-2,1.1-3.2c-0.2-1.4-0.1-1.7,1.3-2
			c1-0.2,1.6-0.9,1.7-1.7c0.2-1.2,0.8-2,1.3-3c0.4-0.8,0.9-1.6,1.1-2.4c0.2-0.7,0.1-1.6,0.2-2.4c0.1-1.8,0.6-3.5-0.1-5.3
			c-0.3-0.7-0.6-1.4-0.7-2.2c-0.1-0.6-0.4-0.8-1-0.7c-0.9,0.2-1.4-0.3-1.8-1c-0.1-0.2-0.2-0.3-0.3-0.4c0.1,1.8,0.6,3.8-2.2,3.9
			c0.3,1.7,0.6,3.3,0.8,4.8c0,0.2,0,0.5-0.1,0.7c-0.2,0.8-1,0.9-1.6,0.9c-0.2,0-0.4-0.7-0.5-1c-0.5-2.6-1-5.2-1.5-7.9
			c-0.1-0.6-0.3-1.2-0.5-1.8c-0.3-1.1-0.6-2.1-1-3.2c-0.4-1.2-0.9-2.4-1.3-3.6c-0.1-0.4,0-0.8-0.1-1.2c-0.4-1.5-0.8-3-1.3-4.5
			c-0.2-0.5-0.3-1-0.5-1.5c-0.1,1.6-0.1,3.1,0,4.6c0.1,1,0.2,2.1,0.4,3.1c0.2,1.2,0.4,2.4,0.8,3.6c0.7,2.2,1.5,4.4,2.1,6.7
			c0.8,2.8,1.5,5.7,2.1,8.5c0.5,2,0.9,4,1.3,6c0.2,1.1,0.1,1.3-1,1.5c-0.2,0-0.5,0.1-0.7,0.1c-0.3-1.3-0.6-2.5-0.9-3.7
			c-0.1,0-0.1,0-0.2,0.1c0,0.6-0.1,1.2,0,1.7c0.2,0.8,0.6,1.7,0.7,2.5c0.2,1.2,0.2,2.5,0.3,3.7c0.1,1-0.6,1.4-1.3,1.5
			c-0.6,0.2-1.4,0.2-1.7-0.7c-0.4-1-0.8-1.9-1.1-2.9c-0.7-2.6-1-5.2-2-7.7c-0.2-0.4-0.1-0.8-0.3-1.2c-0.3-0.6-0.7-1.1-0.9-1.8
			c-0.8-2.4-1.5-4.8-2.2-7.2c-0.1-0.3-0.1-0.6-0.1-1c-0.2-0.2-0.4-0.4-0.5-0.6c-0.3-0.9-0.5-1.8-0.8-2.8c-0.4-1.3-0.9-2.6-1.2-3.9
			c-0.4-1.5-0.4-3.1-1.1-4.5c-0.7-1.4-0.3-2.9-1.2-4.4c-0.8-1.4-1-3.2-1.4-4.8c-0.2-0.8-0.5-1.5-0.8-2.5c-0.1,0.3-0.2,0.4-0.2,0.5
			c-0.1,1.4-0.1,2.9-0.1,4.3c0,1.6-0.2,3.3,0.2,4.9c1.1,5.1,2.2,10.2,3.6,15.3c1.4,5.1,3.2,10.2,4.9,15.2c1,2.8,2.3,5.6,3.4,8.4
			c0.5,1.2,0.9,2.5,1.2,3.8c0.2,0.8-0.4,1.2-1.1,1.4c-0.7,0.2-0.9-0.3-1.2-0.7c-0.6-1.1-1.2-2.2-1.8-3.3c-1.1-1.9-2.3-3.7-3.4-5.6
			c-0.6-1.1-1.1-2.3-1.6-3.5c-0.1,0-0.2,0.1-0.3,0.1c0.1,0.5,0.1,1,0.2,1.5c0.2,0.9,0.9,1.6,0.7,2.6c-0.1,0.3-0.1,0.7,0,1
			c0.2,0.7,0.7,1.3,0.9,1.9c0.7,2.5,1.4,4.9,1.9,7.4c0.1,0.5-0.2,1.2-0.5,1.6c-0.4,0.5-1.1,0.3-1.6-0.2
			C144.9,228.6,144.6,228.1,144.2,227.7z M108.3,195.9c-3,1-6,2-9,3.1c-3.7,1.4-7.5,2.8-11.3,4.1c-1,0.3-2,0.8-3,1.3
			c-1.6,0.8-3.1,1.6-4.9,2.1c-1.6,0.5-3,1.4-4.5,2.1c-3.5,1.6-6.9,3.2-10.4,4.8c-1.2,0.6-2.4,1.1-3.7,1.6c0.2,0.2,0.3,0.2,0.4,0.2
			c2.3-0.7,4.6-1.3,6.9-2.2c1.9-0.7,3.6-1.9,5.5-2.6c3.3-1.3,6.6-2.4,9.9-3.8c3.6-1.5,7.2-3,10.8-4.6c2.4-1,4.8-2.1,7.3-3.2
			c2-0.9,4-1.8,6-2.7c1.1-0.3,2.3-0.6,3.4-0.9c0.9-0.3,1.8-0.2,2.6,0.2c1.1,0.6,2.3,1.1,3.6,1.8c-0.7-0.8-1.1-1.8-1.7-2
			c-1-0.3-1.1-0.9-1.1-1.7c0.9-0.5,1.7-0.5,2.3,0.3c2.2,2.9,4.3,5.8,6.4,8.6c0.3,0.5,0.7,0.9,1.1,1.3c0.1,0,0.1-0.1,0.2-0.1
			c-0.1-0.2-0.1-0.5-0.2-0.7c-0.3-0.8-0.7-1.7-1-2.5c-1-2.9-2-5.8-3-8.7c-0.3-1-0.1-1.6,0.8-1.7c0.9-0.2,1.1,0.5,1.2,1.2
			c0.4,1.7,0.5,3.6,1.2,5.2c1.1,2.4,1.3,5.1,2.7,7.3c0.5,0.8,0.7,1.7,1,2.6c0.3,0.7,0.5,1.3,0.8,2c0.1,0,0.2,0,0.3-0.1
			c-0.1-0.6-0.2-1.3-0.2-1.9c0-1.1,0.1-2.1-0.1-3.1c-0.3-1.8-0.7-3.7-1.2-5.5c-0.5-1.6-1.2-3.1-1.9-4.6c-0.4-1-0.4-1.2,0.9-1.8
			c-0.2-1.3-0.4-2.6-0.7-3.9c-0.1-0.8-0.4-1.5-0.5-2.3c-0.2-1-0.3-1.9-0.4-2.9c0-0.5-0.2-1.4,0-1.5c0.6-0.3,1.4-0.5,2.1-0.5
			c0.3,0,0.6,0.5,0.8,0.8c0.7,1.7,1.4,3.4,2.1,5.2c0.1,0.1,0.2,0.3,0.4,0.6c0-0.6,0-1-0.1-1.3c-0.3-1.7-0.7-3.5-0.9-5.2
			c-0.1-1.2-0.1-2.4-0.1-3.6c0-0.9-0.2-1.8-0.2-2.7c0-1.3,0-2.6,0.1-3.9c0-0.7,0.5-1,1.1-1.1c0.7-0.1,1,0.2,1.1,0.8
			c0.1,0.6,0.2,1.2,0.3,1.7c0.8,3.8,0.9,7.8,2.6,11.5c0.2,0.5,0.4,1.1,0.6,1.7c1,3.4,2.1,6.9,3.1,10.3c0.3,1,0.7,1.9,1.1,3.1
			c0.1-2-0.4-3.8-1.2-5.3c-1.1-2.1-1.1-4.6-2.1-6.7c-0.3-0.7-0.5-1.5-0.6-2.3c-0.6-2.8-1.3-5.7-1.8-8.5c-0.4-1.9-0.6-3.8-0.9-5.7
			c-0.1-0.9,0.6-1.2,1.2-1.4c0.8-0.3,0.7,0.5,0.8,0.8c0.4,1.3,0.8,2.7,1.2,4.1c0.3,1,0.7,2.1,1,3.1c0.1,0,0.2-0.1,0.3-0.1
			c-0.2-0.9-0.5-1.8-0.6-2.8c-0.3-2.1-0.6-4.2-0.8-6.4c-0.1-0.6,0.1-1.3-0.1-1.9c-0.5-1.1-0.3-2.1,0-3.1c0.1-0.4,0.8-0.9,1.2-0.9
			c0.3,0,0.8,0.5,1,0.9c0.4,0.7,0.5,1.6,0.8,2.3c0.1,0.3,0.4,0.6,0.5,0.9c0.1-0.1,0.2-0.1,0.4-0.2c-0.2-0.8-0.5-1.6-0.6-2.5
			c-0.2-2-0.3-4-0.4-6c0-0.9,0.7-1.2,1.4-1.3c0.7-0.1,0.8,0.5,1,1c0.2,0.4,0.3,0.8,0.4,1.2c0.1,0,0.3-0.1,0.4-0.1
			c-0.1-0.7-0.2-1.5-0.2-2.2c0-1.1-0.8-2.1-0.3-3.2c-0.8-2-0.5-3.9-0.1-5.9c0.2-0.8,0.7-1.1,1.4-1.2c0.8-0.1,1.1,0.4,1.4,1.1
			c0.4,0.9,0.8,1.8,1.2,2.6c0.1-1.2,0-2.3,0.1-3.5c0-0.4,0.3-1,0.7-1.2c0.6-0.4,0.7-0.8,0.6-1.4c-0.1-1.1-0.1-2.3-0.2-3.4
			c0-0.7,0.7-1.4,1.4-1.4c0.8,0,0.6,0.7,0.7,1.1c0.7,3.1,1.3,6.2,2,9.3c0.1,0.3,0.3,0.6,0.4,1c0.2-1,0.3-2,0.2-2.9
			c-0.1-1.7-0.4-3.4-0.6-5.1c-0.2-1.4-0.3-2.8-0.5-4.2c-0.2-1.6-0.4-3.3-0.5-4.9c-0.1-0.7,0.7-1.5,1.3-1.5c0.9,0,0.7,0.7,0.8,1.2
			c0.3,0.9,0.5,1.9,0.8,2.8c0.5,1.6,1,3.2,1.5,4.9c0,0.2,0.3,0.3,0.4,0.4c0.1-0.1,0.2-0.3,0.2-0.3c-0.2-1.1-0.5-2.1-0.7-3.2
			c-0.5-2.5-1-5-1.3-7.6c0-0.3,0.6-0.7,1-1c0.1-0.1,0.6,0.2,0.7,0.4c0.3,0.7,0.4,1.5,0.6,2.2c0.5,1.9,1.1,3.7,1.6,5.6
			c0.1,0.2,0.4,0.3,0.6,0.4c0.1-0.2,0.3-0.5,0.3-0.6c-0.2-1.1-0.5-2.1-0.6-3.1c-0.2-2.3-1.4-4.4-1-6.8c0-0.2-0.1-0.4-0.1-0.6
			c-0.3-2.1-0.6-4.2-1-6.3c0-0.3-0.1-0.5-0.2-0.9c-0.8,1.5-1.4,2.7-2.1,4c-2,3.8-4,7.5-5.9,11.3c-1.1,2.1-2.2,4.2-3.3,6.4
			c-1.1,2.1-2,4.3-3,6.5c-1.6,3.4-3.2,6.8-4.8,10.3c-1.5,3.1-2.9,6.3-4.4,9.4c-0.7,1.5-1.6,2.9-2.3,4.4c-1.2,2.2-2.4,4.4-3.5,6.6
			c-1.4,2.8-2.9,5.6-4.2,8.5c-0.9,2.1-1.6,4.3-2.5,6.4c-0.5,1.2-0.9,1.3-2.1,0.5c0.6-1.3,1.1-2.6,1.6-3.7c-0.8-0.2-1.5-0.1-1.9-0.5
			c-0.6-0.5-1-1.2-1.3-1.9c-1-2.5-1.9-5-2.7-7.6c-0.5-1.7-1-3.3-1.9-4.8c-1.4-2.3-2.8-4.6-4.1-6.9c-1.4-2.4-2.8-4.9-4.2-7.3
			c-0.1-0.2-0.3-0.3-0.7-0.6c0.3,1.1,0.6,1.9,0.8,2.7c0.3,1.3,0.3,2.6,0.7,3.9c0.5,1.3,1.2,2.6,1.9,3.9c1.3,2.4,2.6,4.7,3.9,7.1
			c1.3,2.5,2.6,4.9,3.8,7.4c0.4,0.7,0.4,1.7,0.5,2.5c0.1,0.7-0.3,1.3-1,1.6c-0.8,0.3-1-0.3-1.3-0.8c-0.1-0.2-0.2-0.4-0.3-0.6
			c-0.4-0.6-0.9-1.3-1.3-1.9c-0.2-1-1.9-3.8-2.5-3.9c0.8,1.4,1.6,2.7,2.4,4c0.5,1,1.1,2,1.6,3c0.4,0.8,0.8,1.7,0.3,2.5
			c-0.3,0.5-0.8,0.9-1.3,1.3c0.1,0.4,0.3,0.9,0.5,1.5c0.2,0.6,0.4,0.7,1.1,0.5c1.4-0.5,2.9-0.8,4.3-1.1c0.2,0,0.5,0.2,0.6,0.3
			c0.1,0.1-0.1,0.5-0.3,0.6c-0.3,0.2-0.7,0.4-1,0.6C112.2,194.4,110.3,195.1,108.3,195.9z M126.1,150.3c-0.1,0.1-0.2,0.1-0.3,0.2
			c0.1,0.9,0.3,1.7,0.4,2.6c0.1,0.7,0.1,1.5,0.3,2.2c0.3,0.9,0.6,1.7-0.1,2.5c-0.3,0.3-0.7,0.8-1.1,0.8c-0.5,0-1.1-0.2-1.4-0.6
			c-1.4-1.8-1.9-4-2.5-6.2c-0.8-2.9-2.8-5-4-7.6c0,0.6,0.1,1.2,0.2,1.7c0.2,1.3,0.2,2.7,0.7,3.9c1.2,2.7,2.6,5.3,3.9,8
			c1.1,2.3,2.3,4.5,3.3,6.8c0.2,0.5,0.3,1.1,0.1,1.6c-0.1,0.4-0.6,0.8-1.1,1c-0.2,0.1-0.6-0.3-0.9-0.6c-0.1-0.1-0.2-0.4-0.3-0.6
			c-0.8-1.3-1.7-2.6-2.5-3.9c-0.1,0-0.2,0.1-0.3,0.1c0.5,1.6,1,3.2,1.4,4.8c0.2,0.7,0.2,1.4,0.1,2.1c0,0.3-0.6,0.5-1,0.7
			c-0.1,0.1-0.5-0.1-0.5-0.2c0-0.6-0.5-0.5-0.9-0.7c-0.3-0.1-0.8-0.3-0.9-0.6c-0.8-1.6-1.6-3.3-2.3-4.9c-0.4-0.9-0.8-1.8-1.3-2.7
			c-0.5-1-1.2-2-1.8-3c-0.4-0.7-1-1.4-1.4-2.1c-0.6-1-1.3-2-1.9-2.9c-0.1,0.1-0.2,0.1-0.3,0.2c0.2,0.8,0.5,1.7,0.6,2.5
			c0.1,1.9,0.6,3.8,1.4,5.5c1.4,2.8,3,5.6,4.4,8.4c0.4,0.8,0.8,1.6,1.1,2.4c0.3,0.7-0.2,1.1-0.8,1.3c-0.3,0.1-0.8,0-0.9-0.2
			c-0.6-1-1-2-1.5-3c-0.1-0.2-0.3-0.4-0.4-0.6c0,2.1,0.4,4,1.2,5.8c0.5,1.2,1.2,2.3,0.9,3.7c-0.1,0.2,0.1,0.5,0.1,0.8
			c0.4,1.4,0.8,2.8,1.2,4.3c0.3,0.9,0.6,1.9,0.9,2.8c0.1,0,0.2,0.1,0.3,0.1c0.3-0.6,0.9-1.2,0.8-1.7c-0.3-2.4,1.8-3.8,2.5-5.7
			c0.4-1.2,1.5-2.1,1.9-3.3c0.2-0.6,0.6-1.1,0.9-1.6c0.8-1.3,1.4-2.7,2.1-4.1c0.1-0.2,0.1-0.3,0.2-0.5c0.7-1,1.3-2,2-3
			c0.1-0.1,0.2-0.4,0.1-0.5c-0.3-0.6,0.2-0.8,0.5-1.1c0.7-1,1.4-2.1,2.1-3.2c0,0,0-0.1,0-0.1c-0.2-0.1-0.3-0.1-0.5-0.2
			c0.7-1.1,1.3-2.2,1.9-3.2c0-0.1,0.1-0.2,0.1-0.2c-0.5-0.7,0-1.1,0.5-1.5c0.2-0.2,0.2-0.5,0.4-0.7c0.5-0.9,1-1.8,1.4-2.7
			c0.3-0.6,0.4-1.2,0.6-2c1.4-1.4,1.7-3.5,2.3-5.5c0.3-0.2,0.6-0.3,0.8-0.6c0.4-0.8,0.7-1.6,1.1-2.4c0.3-0.7,0.7-1.4,1-2
			c0.3-0.5,0.5-1,0.8-1.5c0.1-0.2,0.2-0.4,0.3-0.7c0.1-0.4,0.3-0.7,0.4-1.1c-0.1,0-0.2-0.1-0.3-0.1c0.7-0.3,1.2-0.7,1.1-1.5
			c0-0.2,0.3-0.5,0.4-0.7c0.2-0.3,0.6-0.5,0.6-0.7c-0.1-0.7,0.3-1.1,0.8-1.6c0.5-0.4,1.1-1.3,1-1.7c-0.5-1.2,0.6-1.4,1-2
			c0.1-0.2,0.3-0.5,0.2-0.6c-0.5-0.8,0.3-1,0.6-1.5c0.2-0.2,0.5-0.4,0.6-0.6c0.7-1.2,1.3-2.5,2-3.8c0.3-0.6,0.5-1.5,1-1.9
			c0.5-0.4,0.5-0.7,0.2-0.9c0.3-0.6,0.6-1.1,0.9-1.6c0.9-1.5,1.9-3,2.4-4.8c0.2-0.6-0.1-1.6,1-1.7c-0.2-0.6,1.3-1,0.4-1.6
			c0.1-0.3,0.2-0.5,0.2-0.7c0.1-0.3,0.1-0.5,0.3-0.7c0.4-0.5,0.8-1,1.2-1.6c0.4-0.7,0.8-1.3,1.1-2.1c0.5-1.3,1.4-2.5,1.6-4
			c0,0,0-0.1,0-0.1c0.6-0.8,1.3-1.7,1.9-2.5c0.3-0.4,0.5-0.9,0.7-1.4c0.6-1.2,1.1-2.5,1.8-3.6c0.7-1.3,1.7-2.4,2.4-3.7
			c0.5-0.8,0.6-2,1.2-2.6c1.1-1.2,1.8-2.5,2.5-3.8c0.9-1.7,2.2-3.2,3.3-4.8c0.3-0.4,0.5-0.7,0.8-1.3c-2.1,0.7-3.9,1.3-5.8,2
			c0.4,0.3,0.6,0.4,0.8,0.6c0.2,0.2,0.3,0.5,0.4,0.8c-0.3,0-0.6,0-0.9-0.1c-0.9-0.5-1.8-0.6-2.8-0.2c-2,0.8-2.9,2.5-3.9,4.2
			c1.5,0.8,2.7,0.1,4-0.4c-0.2,0.5-0.4,0.9-0.7,1.1c-0.9,0.8-2,0.9-3.1,0.9c-0.4,0-1,0.1-1,0.3c-0.2,0.6-0.4,1.4-0.4,2
			c0,0.7,0.2,1.5,0.3,2.2c0.3,2.9-0.8,3.9-3.7,3.4c-0.2,0-0.3,0.1-0.4,0.1c0.3,1.9,0.6,3.7,1,5.4c0.3,1.5-0.7,3.1-2.7,2.6
			c-0.5-0.1-1-0.3-1.4-0.5c-0.2,0.5-0.3,1-0.5,1.4c-0.6,1.3-1.1,2.6-1.7,4c-0.9,1.9-4.1,2.9-5.4,1.4c-1.2-1.5-2-3.2-3-4.8
			c-0.1-0.2-0.2-0.4-0.4-0.7c-0.4,2,0.3,5.8,1.1,7.5c0.7,1.7,1.2,3.5,1.7,5.3c0.2,0.7,0.1,1.5-0.6,2c-0.7,0.5-1.3,0.3-2.2-0.3
			c0.1,1.3,0.2,2.2,0.3,3.2c0,0.4,0.2,0.7,0.1,1.1c0,0.7-0.5,1.2-1.2,1.4c-0.6,0.2-1-0.1-1.2-0.7c-0.1-0.2-0.4-0.3-0.6-0.5
			c-0.3-0.3-0.8-0.6-0.9-1c-0.8-2.5-2.2-4.8-3.5-7.1c-0.1-0.2-0.3-0.4-0.4-0.6c0,2-0.4,4,0.6,5.9c0.9,1.7,1.6,3.5,2.3,5.3
			c0.3,0.7,0.5,1.4,0.8,2.1c0.5,1.3,1.2,2.5,1.7,3.7c0.2,0.5,0.3,1.2,0.1,1.7c-0.2,0.5-0.8,0.9-1.4,1.2c-0.2,0.1-0.7-0.2-0.9-0.5
			c-0.9-1.5-1.8-3.1-2.7-4.6c-0.1-0.2-0.3-0.3-0.5-0.4c-0.1,0.2-0.2,0.4-0.2,0.5c0,1.6-0.2,3.1,0.5,4.6c0.4,1,0.7,2,0.8,3.1
			c0.1,0.8-0.5,1.2-1.2,1.3c-0.7,0.1-0.9-0.2-1.2-0.7c-0.2-0.4-0.6-0.9-1-0.9c-1.4,0-2.1-0.8-2.5-2c-0.4-1.4-0.8-2.8-1.2-4.3
			c-0.2-0.5-0.4-1-0.6-1.6c-0.1,0-0.2,0.1-0.3,0.1c0.2,0.9,0.3,1.9,0.5,2.8c0.1,0.7,0.2,1.4,0.5,2.1c1,2.2,2.2,4.3,3.2,6.5
			c0.3,0.6,0.4,1.4,0.4,2.1c0,0.7-0.5,1-1.1,1.2c-0.8,0.2-0.9-0.2-1.2-0.7c-0.1-0.1-0.2-0.3-0.5-0.6c-0.1,0.5-0.1,0.7-0.1,1
			c0.2,2,0.5,4,0.6,6c0,0.4-0.5,0.9-0.9,1.1c-0.5,0.2-1.1,0.3-1.5-0.4c-0.8-1.4-1.6-2.7-2.4-4c-0.9-1.6-1.8-3.1-2.7-4.7
			c-0.1,0.5-0.1,1,0.1,1.4c1.2,2.3,2.5,4.5,3.6,6.9c0.5,1.1,0.7,2.4,1,3.6c0.1,0.7-0.3,1.1-1,1.2c-0.7,0.1-1-0.1-1.3-0.7
			C126.9,151.6,126.5,151,126.1,150.3z M161.5,168.7c-0.1,0-0.1,0.1-0.2,0.1c0.2,1.9,0.4,3.9,0.6,5.8c0.1,0.9,0.4,1.8,0.5,2.8
			c0.2,0.8,0.3,1.5,0.5,2.3c0,0.2,0.1,0.5,0.1,0.7c0.1,1,0.2,2.1,0.3,3.1c0.2,1.2,0.5,2.4,0.8,3.5c0.3,1.1,0.5,2.3,0.8,3.4
			c0.3,1.1,0.8,2.2,1.3,3.3c0.5,1.4,1,2.7,1.5,4.1c0.1,0,0.2,0,0.3,0.1c0.2-0.4,0.2-1.1,0.6-1.3c0.8-0.5,0.9-1.3,1.2-1.9
			c0.5-1.1,0.8-2.4,1.2-3.6c0.3-0.8,0.9-1.6,1.3-2.4c0.5-1,1-2.1,1.5-3.1c0.4-0.9,0.9-1.8,1.3-2.7c-0.2,0.1-0.5,0.2-0.8,0.4
			c0.2-0.6,0.7-1.1,0.8-1.6c0.3-1.8,2.3-2.6,2.3-4.5c0,0,0.1-0.1,0.1-0.1c0.4-0.6,0.8-1.3,1.2-1.9c0.7-1,0.7-2.3,1.3-3.3
			c0.1-0.2,0-0.5,0.1-0.8c0.1-0.3,0.2-0.6,0.3-0.8c0.2-0.2,0.5-0.3,0.7-0.5c-0.2-0.2-0.4-0.4-0.4-0.4c0.2-0.5,0.4-0.8,0.6-1.2
			c0.1-0.1,0.2-0.2,0.3-0.3c0.2-0.2,0.5-0.5,0.6-0.8c0.4-1,0.7-2,1.2-2.9c0.3-0.7,0.8-1.3,1.1-2c0.3-0.6,0.4-1.2,0.6-1.8
			c0.3-0.6,0.7-1.2,1.1-1.9c0-0.1,0-0.2,0-0.3c-0.2,0-0.4,0-0.6,0.1c0.2-0.4,0.7-0.6,0.8-0.9c0.9-1.8,1.8-3.5,2.7-5.3
			c0.7-1.5,1.4-3,2.1-4.5c1-2.3,2-4.5,3-6.8c0.1-0.3,0.3-0.7,0.2-0.9c-0.1-0.5-0.4-1-0.5-1.5c-0.2-0.7-0.5-0.8-0.8-0.6
			c-0.1,0.7-0.2,1.3-0.3,1.8c-0.1,0.5-0.3,0.9-0.4,1.3c-0.1,0.3-0.1,0.6-0.1,0.9c-0.1,0.5-0.3,1-0.3,1.5c-0.1,1-0.7,2.1-1.6,2.4
			c-0.9,0.3-1.9-0.1-2.5-1.1c-0.2-0.3-0.5-0.6-0.7-0.9c-0.1,0-0.2,0.1-0.3,0.1c0.1,0.6,0.1,1.1,0.2,1.7c0.1,0.4,0.2,0.8,0.2,1.3
			c0,1.2-0.1,2.3-0.2,3.5c0,0.4-0.2,1.1-0.4,1.1c-0.9,0.1-1.9,0.1-2.9,0.1c-0.1,0-0.2-0.2-0.3-0.3c-0.4-1-0.7-2-1.1-3
			c-0.2-0.6-0.5-1.2-0.8-1.8c-0.1,0.2-0.2,0.5-0.1,0.7c0.7,2.5,1.3,5,2,7.6c0.2,0.8,0.5,1.5,0.6,2.3c0.2,0.9-0.5,1.1-1.2,1.3
			c-0.7,0.2-0.8-0.3-1-0.8c-0.2-0.6-0.5-1.1-0.7-1.7c-0.1,0-0.2,0.1-0.2,0.1c0.3,1.2,0.7,2.4,1,3.6c0.1,0.5,0.3,1.1,0.1,1.5
			c-0.2,0.4-0.8,0.6-1.3,0.7c-0.5,0.1-0.5-0.4-0.6-0.8c-0.7-2.8-1.5-5.6-2.3-8.4c-0.1,0-0.2,0-0.3,0c0,0.2-0.1,0.4,0,0.5
			c0,0.3,0.1,0.5,0.1,0.8c0.5,2.9,1.1,5.8,1.5,8.7c0.2,1.2,0,2.3-1.3,2.8c0.2,0.8,0.5,1.5,0.7,2.3c0.2,0.9-0.6,0.9-1.2,1.1
			c-0.5,0.2-0.7-0.2-0.9-0.6c-0.2-0.8-0.5-1.6-0.7-2.4c-0.1,0-0.2,0-0.3,0c0,0.4-0.1,0.7,0,1.1c0,0.5,0.3,1,0.2,1.5
			c0,0.4-0.3,1-0.6,1.2c-0.4,0.2-1,0.6-1.5-0.1c-0.1-0.1-0.5-0.1-0.7-0.1c0.5,2.1,1,4.1,1.5,6.1c0.3,1.3-0.3,1.9-1.4,1.7
			c-3.5-7.2-5.8-14.6-7.9-22c0.1,1.6,0.1,3.2,0.3,4.8c0,0.5,0.2,0.9,0.3,1.3c0.9,2.2,1.9,4.4,2.8,6.7c0.7,1.9,1.4,3.8,2,5.8
			c0.6,2,1.2,4.1,1.7,6.2c0.3,1.4-0.1,1.8-1.7,1.8c-0.6-3.7-2.5-7-3.6-10.6c-0.1,0.2-0.2,0.5-0.2,0.7c0.5,1.8,1,3.5,1.5,5.3
			c0.4,1.6,0.9,3.2,1.3,4.8c0.5,1.9,1,3.7,1.4,5.6c0.2,0.8-0.6,0.9-1.2,1.1c-0.6,0.2-0.6-0.3-0.8-0.7c-1.1-2.6-1.9-5.4-3.2-7.9
			c-0.4-0.7-0.6-1.5-0.9-2.3c-0.3-0.9-0.3-2-0.8-2.8c-0.7-1-0.9-2.1-1.4-3.2C162.3,170.6,161.9,169.7,161.5,168.7z M186.1,125.7
			c-1.5,0.6-3,0.8-4.6,0.5c-0.2-0.1-0.5,0-0.7,0.1c-1.6,0.3-3.1,0.8-4.8,0.5c-1.2-0.2-1.5-0.4-1.7-1.6c-0.6-2.6-1.2-5.3-1.8-7.9
			c-0.2-0.7-0.8-1-1.5-0.7c-0.3,0.1-0.5,0.1-0.8,0.2c-0.6,0.1-0.8,0.3-0.7,0.9c0.4,2.4,0.7,4.8,1.1,7.2c0.1,0.7,0.3,1.3,0.6,1.9
			c0.6,1,0.6,1.3-0.5,1.6c-3.1,0.8-6.1,1.5-9.2,2.2c-0.2,0.1-0.6,0.3-0.6,0.5c0.1,1.3,0.2,2.5,0.3,3.7c1.5-0.3,2.9-0.5,4.2-0.7
			c1.8-0.3,3.6-0.6,5.4-0.8c0.3,0,0.9,0.2,1,0.4c0.7,1.5,1.3,3.1,1.4,4.8c0.1,1.7,0.4,3.4,0.5,5.1c0.1,0.8,0.6,1,1.3,0.9
			c0.9-0.1,1.9-0.3,2.9-0.5c0-0.3-0.1-0.7-0.1-1c-0.4-2.1-0.7-4.2-1.1-6.4c-0.2-1.2-0.3-2.4-0.7-3.6c-0.3-1.1-0.4-1.4,0.6-1.8
			c1.3-0.4,2.7-0.7,4-0.8c1.9-0.1,3.8-0.1,5.7-0.1c0.2,0,0.6-0.4,0.5-0.6C186.5,128.4,186.3,127.1,186.1,125.7z M150,107.2
			c0-0.5,0.1-0.8,0-1.1c-0.5-2.5-0.9-5-1.4-7.6c-0.2-1.4-0.5-2.8-0.6-4.3c-0.1-0.8,0.4-1.4,1.2-1.7c0.8-0.4,1.4-0.2,1.9,0.5
			c1,1.3,2.1,2.6,3.2,3.9c0.2,0.2,0.4,0.3,0.7,0.7c0.2-1.6,0.3-2.9,0.6-4.2c0.5-2.3,1.1-4.5,1.7-6.8c0.1-0.2,0.4-0.5,0.6-0.5
			c0.6,0,1.4,0,1.3,1c0,0.2,0.2,0.4,0.3,0.6c0.1,0,0.2,0,0.2,0c0.1-0.6,0.1-1.1,0.2-1.7c0.1-0.4,0.2-0.9,0.5-1.1
			c1.2-0.7,1.2-2,1.9-3c-1.2,0.4-2.4,0.8-3.6,1.3c-1.5,0.6-2.9,1.1-4.4,1.7c-1.5,0.7-2.9,1.6-4.4,2.2c-3.9,1.6-7.8,3.2-11.8,4.8
			c-0.5,0.2-0.7,0.5-0.6,1c0.3,2.1,0.5,4.3,0.9,6.4c0.3,1.7,0.2,3.4,1.1,5c1,1.8,1.9,3.6,2.9,5.3c0,0.1,0.1,0.1,0.3,0.1
			c-0.1-0.5-0.1-0.9-0.2-1.3c-0.6-1.6-1.3-3.1-1.8-4.7c-0.6-1.6-1.1-3.1-1.6-4.7c-0.3-1-0.5-2-0.6-3c-0.1-0.9,0.5-1.5,1.3-1.8
			c0.8-0.3,1.3,0.2,1.7,0.8c0.4,0.6,0.8,1.2,1.2,1.8c0.1,0,0.2,0,0.3-0.1c0.1-1.1,0.2-2.1,0.3-3.2c0.1-0.6,0.1-1.3,0.4-1.8
			c0.1-0.2,0.8-0.3,1.2-0.2c0.3,0.1,0.6,0.6,0.7,0.9c0.2,1.4,0.3,2.9,0.6,4.3c0.4,2.4,0.8,4.8,1.4,7.2
			C148.2,105.2,148.6,106.4,150,107.2z M73.5,192.9c-0.8-2.7-1.5-5.1-2.1-7.5c-0.7-2.7-1.4-5.5-2-8.2c-0.1-0.3-0.2-0.6-0.1-0.8
			c0.3-0.5,0.7-1,1.2-1.2c0.2-0.1,0.8,0.5,1.1,0.8c0.1,0.1,0.2,0.3,0.3,0.5c1.1,1.5,2.2,3,3.3,4.5c0.8,1.1,1.6,2.2,2.5,3.3
			c0-0.9-0.2-1.7-0.5-2.4c-0.3-1-0.6-2.1-1-3.1c-0.3-0.9-0.4-1.8-0.8-2.6c-0.7-1.4-1.5-2.8-2.1-4.2c-0.2-0.4-0.3-1.1-0.1-1.3
			c0.7-0.9,0.3-1.6-0.1-2.5c-0.7,1.3-1.5,2.5-2.1,3.8c-1.3,2.5-2.5,5-3.8,7.5c-1.6,3.1-3.3,6.1-5,9.2c-0.4,0.7,0,1.2,0.4,1.6
			c0.2,0.2,0.7,0.2,1,0.1c0.8-0.2,1.4-0.3,1.7,0.6c0.6,1.8,1.3,3.6,1.9,5.4c0.4,1.2,1.4,1.8,2.4,2.9c0-0.4,0-0.5,0-0.6
			c-1.3-2.7-2.6-5.4-3.8-8.1c-0.4-1-1-2.2,0-3.2c0.4-0.4,0.4-0.7,0.2-1.1c-0.1-0.3-0.3-0.7-0.4-1c-0.3-0.5-0.1-0.7,0.3-0.9
			c0.6-0.3,1.1-0.4,1.4,0.4c0.2,0.5,0.4,1,0.6,1.5c0.3,0.7,0.5,1.6,1,2.2c1.1,1.3,2.4,2.5,3.6,3.7C72.7,192.1,73,192.4,73.5,192.9z
			 M189.9,212.6c-0.1,0.1-0.1,0.1-0.2,0.2c1.1,1.4,2.2,2.9,3.3,4.3c0.4,0.5,0.7,1,0.1,1.6c-0.7,0.6-1.2,0.6-1.8-0.2
			c-0.7-0.8-1.3-1.5-2-2.3c-0.1,0.3-0.2,0.4-0.2,0.6c0,0.7-0.4,1.3-1.1,1.4c-0.5,0-1.2-0.2-1.6-0.6c-0.5-0.4-0.9-1.1-1.3-1.7
			c-0.8-1.5-1.5-3.1-2.4-4.6c-1.1-1.9-2.4-3.6-3.6-5.4c-0.1-0.2-0.3-0.3-0.5-0.5c-0.1,0.3,0,0.6,0.1,0.8c1.3,2.1,2.6,4.2,3.9,6.3
			c0.8,1.4,1.6,2.7,2.4,4.1c0.6,1,1.2,1.9,1.7,2.9c0.3,0.5,0.3,1.1-0.5,1.4c-0.7,0.3-1.2,0.3-1.6-0.3c-0.6-0.8-1.2-1.5-1.9-2.3
			c-1.1-1.4-2.3-2.7-3.4-4.1c-1-1.2-1.9-2.5-2.8-3.8c-0.1,0-0.2,0.1-0.2,0.1c0.1,0.3,0.2,0.7,0.4,0.9c0.8,1.3,1.7,2.6,2.5,3.9
			c1,1.6,1.9,3.2,2.8,4.8c0.6,1.1,1.5,2,0.9,3.5c7.4-3.2,14.7-6.3,22-9.5c-2.9-3.1-5.9-6.3-8.9-9.5c-0.1,0-0.1,0.1-0.2,0.1
			c0.2,0.4,0.4,0.8,0.7,1.1c1.2,1.5,2.4,3,3.6,4.4c0.5,0.7,0.7,1.7,0.4,2c-0.7,0.7-1.3,0.5-2.2-0.4c-1.8-1.8-3.6-3.6-5.4-5.4
			c-0.1-0.1-0.2-0.1-0.4-0.1c0.4,0.8,0.9,1.5,1.4,2.1c0.4,0.5,0.7,1.1,1.1,1.6c0.8,1.1,1.7,2.2,2.5,3.4c0.5,0.8,0.2,1.6-0.8,1.8
			c-0.4,0.1-0.7,0.4-1.1,0.6c-0.5,0.2-1.2,0.5-1.6,0.3c-0.8-0.5-1.5-1.3-2.3-2C191.2,213.9,190.5,213.3,189.9,212.6z M161.7,222.1
			c0.1,0,0.1-0.1,0.2-0.1c-0.5-1.6-1.1-3.2-1.7-4.8c-3.1,5.9-6.3,11.7-8.5,18c6.2-2,12.3-3.9,18.4-5.9c-1-0.9-1.8-1.5-2.7-2.3
			c0,2.4,0,2.4-0.5,2.7c-1.3,0.8-2.3,0.2-2.9-1c-1.6,1.1-2.3,1.1-3.2,0.1c-1-1-2-2.1-3-3.1c-0.4-0.4-0.3-0.6,0.1-0.9
			c0.9-0.8,1.2-0.8,1.9,0.2c0.6,0.7,1.1,1.4,1.7,2.1c-0.8-2-1.7-3.9-2.6-5.8c-0.2-0.4-0.4-0.8,0.2-1.1c0.5-0.2,1-0.5,1.4,0.2
			C160.9,221,161.3,221.6,161.7,222.1z M142.5,147.4c-0.1,0-0.2,0-0.2,0c0,0.1-0.1,0.2-0.1,0.3c0,0.2-0.1,0.3,0,0.5
			c0.4,3.4,0.3,6.8,1.6,10.1c0.8,2.1,1,4.4,1.4,6.7c0.3,1.7,0.4,3.6,0.9,5.3c0.7,2.6,1.8,5.1,2.7,7.6c0.3,1,0.7,1.9,1,2.9
			c0.1,0,0.2,0,0.3,0c0-0.6-0.1-1.2-0.1-1.8c0-2,0.2-3.9,0-5.9c-0.1-1.8-0.6-3.5-1-5.3c-0.3-1.5-0.8-2.9-1.2-4.4
			c-0.2-0.7-0.2-1.4-0.2-2c-0.2-0.4-0.4-0.8-0.5-1.1c-0.5-2-0.5-4.1-1.5-6c-0.9-1.6-1.4-3.3-2.1-5
			C143.1,148.6,142.8,148,142.5,147.4z M121.1,101.2c1.2,0,1.3,0.9,1.4,1.6c0.4,2.1,0.7,4.3,1,6.4c0.2,1.6,0.5,3.2,1.4,4.6
			c1,1.5,1.8,3.1,2.7,4.6c0.1,0.1,0.2,0.2,0.4,0.3c0-1.3-0.2-2.5-0.5-3.7c-0.1-0.3-0.2-0.5-0.4-0.8c-0.2-0.4-0.5-0.7-0.6-1.1
			c-0.5-1.3-1-2.6-1.5-3.8c-0.6-1.5-1.2-3.1-1.6-4.7c-0.3-0.9,0.2-1.4,1.1-1.7c0.8-0.3,1.2,0.2,1.6,0.8c0.3,0.5,0.5,0.9,0.8,1.4
			c0.1-1,0.1-1.9,0-2.9c-0.1-1.1,0.2-1.5,1.3-1.7c0.1,0,0.3-0.1,0.4-0.2c0-0.1-0.1-0.2-0.1-0.3c-0.3-1,0-1.7,0.8-2.2
			c1-0.5,1.3,0.3,1.7,0.9c1.4,2.3,2.8,4.6,4.2,7c0.1,0.2,0.3,0.4,0.4,0.6c0.7-2.3-0.2-4.3-0.7-6.3c-0.4-1.4-0.5-1.4,0.7-2.3
			c0.1-0.1,0.3-0.3,0.3-0.5c0.1-1.4,0.1-2.8,0.2-4.4c-1,0.6-1.8,1.1-2.4,1.4c0.1,0.6,0.5,1.3,0.3,1.4c-0.5,0.5-1.2,0.8-1.9,1
			c-0.4,0.2-0.9,0.1-1.3,0.2c-1,0.3-2,0.6-3,1C125.3,98.8,123,99.4,121.1,101.2z M89.5,181.5c1.7,5.8,2.7,11.9,5.4,17.4
			c3.5-1.3,7-2.6,10.6-3.9c-1.9-3.1-3.7-6.1-5.5-9.2c-0.1,0-0.2,0.1-0.2,0.1c0.4,1.6,0.8,3.2,1.2,4.8c0,0,0,0,0,0.1
			c0.3,0.9,0.7,1.8,0.9,2.8c0.2,0.8-0.4,1.3-1.3,1.3c-0.3,0-0.7,0.1-0.9,0.3c-0.6,0.3-1,0.5-1.4-0.3c-0.1-0.3-0.3-0.5-0.5-0.8
			c-1.5-2.4-2.9-4.8-4.4-7.1C92.1,185.1,90.8,183.3,89.5,181.5z M208.4,132c0.3-1.8,0.4-3.3,0-4.9c-0.3-1-0.6-2.1,0.5-2.9
			c0.2-0.1,0.2-0.6,0.1-0.9c-0.2-0.7-0.6-1.4-0.9-2c-0.3-0.8,0.4-1.1,0.8-1.3c0.4-0.2,0.9-0.1,1.1,0.6c0.2,0.7,0.6,1.3,1,2
			c0.2,0.4,0.5,0.9,0.8,1.3c0.3,0.4,0.8,0.7,0.9,1c0.4,2.2,1.8,3.8,2.8,5.7c0.4,0.8,1,1.6,1.5,2.4c0.1,0,0.2-0.1,0.3-0.1
			c-0.1-0.9-0.1-2-0.4-2.8c-0.6-1.3-1.5-2.5-2.2-3.8c-1.8-3.2-3.5-6.3-5.2-9.5c-0.5-0.9-0.8-1.8-1.3-2.9c-2.3,3.4-4,6.9-5.6,10.7
			c0.5-0.2,0.8-0.4,1-0.4c0.2,0,0.6,0.1,0.7,0.3c1,1.8,2,3.7,2.9,5.5C207.5,130.6,207.9,131.3,208.4,132z M207,194.5
			c0,0.1,0.1,0.3,0.2,0.5c0.8,1.1,1.6,2.3,2.5,3.4c1.3,1.6,2.6,3.2,4,4.8c0.9,1.1,1.9,2.1,2.8,3.2c0.6,0.7,0.6,1.4,0,1.8
			c-0.7,0.5-1.2,0.2-1.7-0.4c-2.4-2.7-4.9-5.3-7.3-8c-2-2.3-3.8-4.7-5.7-7c-0.3-0.3-0.6-0.6-0.9-0.9c-0.1,0.1-0.2,0.1-0.3,0.2
			c0.7,1.4,1.4,2.8,2.3,4.1c1.1,1.6,2.3,3,3.5,4.5c2.2,2.8,4.4,5.7,6.6,8.5c0.3,0.5,0.6,1.2,1,1.3c0.5,0.1,1.1-0.4,1.7-0.6
			c1.3-0.5,2.5-1,3.9-1.6c-3.5-4.6-6.8-9.2-10.2-13.8c0,0.1-0.1,0.2-0.1,0.3C208.5,194.7,207.7,194.6,207,194.5z M173.4,96.7
			c0.1,0,0.1,0,0.2,0c0-0.2,0-0.3,0-0.5c-0.3-1.5-0.6-2.9-0.8-4.4c-0.1-0.4,0-1.1,0.2-1.3c0.5-0.5,0.7-0.9,0.7-1.6
			c0-0.6,0.1-1.3,0.1-1.9c0.1-0.9,0.6-1.4,1.4-1.7c0.7-0.3,1.1-0.1,1.2,0.7c0.1,0.6,0.1,1.2,0.3,1.7c0.2,0.5,0.4,1.1,1.3,0.6
			c0.5-0.3,0.9-0.1,1,0.5c0,0.2,0.1,0.3,0.2,0.6c0.1-1.5,0.4-2.9,0.4-4.3c0-1.6,0.3-2.3,1.7-2.7c-1.6-1.7-3.1-3.4-4.7-5.1
			c-2.8,3.7-5.1,7.5-6.5,12c0.3-0.1,0.6-0.3,0.8-0.2c0.3,0.1,0.8,0.3,0.9,0.5c0.4,1.6,0.6,3.2,1,4.8C172.9,95.2,173.2,96,173.4,96.7
			z M229.5,137.7c0.1-0.3,0.1-0.5,0.1-0.6c0-1.5-0.1-3-0.1-4.5c0-0.3,0-0.6-0.2-0.8c-0.8-1.5-1.7-3-2.6-4.5
			c-1.4-2.3-2.9-4.6-4.4-6.9c-0.5-0.8-1-1.6-1.5-2.5c-0.2,0.2-0.2,0.4-0.2,0.5c0.3,2.2,0.6,4.4,1,6.6c0.1,0.5,0.2,1,0.5,1.4
			c1.9,3.1,3.8,6.3,5.8,9.4C228.3,136.5,228.9,137,229.5,137.7z M156,150.3c-0.1,0-0.2,0.1-0.3,0.1c1.1,10.5,1.7,21,5.9,30.9
			c0.1-0.2,0.1-0.4,0.1-0.5c-0.2-1.4-0.4-2.7-0.5-4.1c-0.4-2.6-0.7-5.2-1.1-7.7c-0.4-2.6-0.8-5.3-1.1-7.9c-0.2-1.2-0.1-2.4-0.4-3.5
			C157.7,155.1,156.8,152.7,156,150.3z M105.5,112.1c-0.9,1.3-1.6,2.3-2.3,3.4c-0.8,1.4-1.7,2.8-2.4,4.2c-0.2,0.5-0.4,1.1-0.3,1.6
			c0.2,1.5,0.6,3,0.8,4.5c0.1,0.7,0.2,1.3,1,1c1.2,2.5,2.3,4.9,3.5,7.3c0.1,0,0.2-0.1,0.3-0.1c0-0.2,0.1-0.4,0.1-0.6
			c-0.2-1.6-0.2-3.3-0.6-4.9c-0.5-2-1.3-3.9-1.9-5.8c-0.2-0.8-0.4-1.5-0.6-2.3c-0.1-0.7,0.6-1.7,1.3-1.5c0.3,0.1,0.6,0.4,0.9,0.7
			C105.4,117.2,105.5,114.8,105.5,112.1z M75.7,162.7c-0.4,0.9-0.8,1.6-1.1,2.4c-0.1,0.3-0.1,0.7,0,1c0.4,1.6,0.9,3.1,1.3,4.7
			c0.6,2.4,1.6,4.6,3,6.6c1.3,1.8,2.6,3.7,3.8,5.5c0.1,0.2,0.3,0.4,0.5,0.6C81.2,176.4,78.9,169.6,75.7,162.7z M197.4,104.2
			c-2.8-2.9-4.6-6.5-6.9-9.8c-2.3-3.3-4.6-6.5-6.9-9.7c-0.1,0.1-0.2,0.1-0.2,0.2c0.5,1.9,1,3.8,1.6,5.7c0.9-0.3,1.3-0.3,1.5,0.3
			c0.4,1.3,0.8,2.6,1.1,3.9c0.3,1.6,0.6,3.3,0.9,5c0.9-0.4,1.2-0.9,1.1-1.7c0-0.4,0.2-0.9,0.5-1c0.6-0.4,1.8,0.1,2.2,0.7
			c1.3,2.1,1.8,4.4,2.4,6.7c0.3,1.1,0.3,2.2,0.5,3.3c0,0.2,0.2,0.3,0.4,0.4c0.1,0,0.1-0.1,0.2-0.1c0-0.6,0-1.2,0-1.8
			c-0.2-1.9-0.2-1.9,1.6-2C197.2,104.4,197.3,104.3,197.4,104.2z M195.2,196.9c-0.1,0-0.1,0.1-0.2,0.1c0.1,0.2,0.1,0.3,0.2,0.5
			c1,1.3,2,2.6,3,3.9c1.5,2,3,4,4.5,5.9c1.4,1.8,2.7,3.6,4.1,5.4c0.4,0.5,0.9,0.8,1.6,0.4c0.4-0.3,1-0.4,1.5-0.6
			c0.8-0.4,1.5-0.8,2.3-1.1c-1.2-1.4-2.2-2.5-3.2-3.5c-0.4,0.4-0.8,0.9-1.3,1.1c-0.3,0.1-0.8-0.3-1.1-0.6c-1.7-1.6-3.1-3.6-5.4-4.6
			c-0.2-0.1-0.3-0.3-0.5-0.4c-1.1-1.4-2.2-2.8-3.4-4.2C196.7,198.4,195.9,197.6,195.2,196.9z M95.1,183.4c0.1-0.1,0.2-0.1,0.3-0.2
			c-0.2-0.6-0.3-1.2-0.5-1.8c-0.7-2-1.4-4.1-2.1-6.1c-0.4-1.3-0.7-2.7-1.4-3.9c-1.4-2.6-3.1-5.2-4.6-7.8c-0.5-0.8-0.9-1.5-1.3-2.3
			c-0.1,1,0,2,0.1,2.9c0.1,1.7,0.8,3.3,1.6,4.8c0.6,1.3,1.3,2.5,2,3.7c0.8,1.4,1.5,2.8,2.3,4.2c0.8,1.5,1.6,2.9,2.4,4.4
			C94.3,182.1,94.7,182.7,95.1,183.4z M202.4,209.5c0.1-0.1,0.2-0.1,0.3-0.2c-0.8-1.1-1.6-2.1-2.4-3.2c-1-1.4-2-2.9-3.1-4.3
			c-1.4-2-2.9-3.9-4.3-5.9c-0.6-0.9-1.1-1.8-1.8-2.7c-0.9-1.3-1.9-2.4-2.8-3.7c-0.9-1.2-1.6-2.5-2.4-3.7c-0.6,3.4,1.3,5.8,3.2,8.1
			c1.3,1.6,2.9,2.9,4,4.6c1.6,2.5,3.8,4.4,5.6,6.7c0.7,0.9,1.6,1.8,2.4,2.7C201.5,208.6,202,209,202.4,209.5z M146.6,185.1
			c0.1,0,0.3-0.1,0.4-0.1c-0.2-0.9-0.3-1.8-0.5-2.6c-0.4-2.4-0.8-4.8-1.3-7.1c-0.5-2.6-1.2-5.2-1.7-7.8c-0.1-0.3,0-0.7-0.2-0.8
			c-1-1-1.1-2.3-1.5-3.5c-0.1-0.3-0.3-0.6-0.5-0.9c-0.1,0-0.2,0.1-0.3,0.1c0,1-0.1,2,0,3c0.2,1.3,0.5,2.6,0.8,3.9
			c0.6,3.7,1.6,7.3,3,10.7C145.4,181.6,145.9,183.4,146.6,185.1z M181.8,108.5c-0.1,0-0.2,0-0.4,0c0.1,0.7,0.3,1.4,0.4,2.2
			c0.1,1.9,0.1,3.9,0.2,5.8c0.1,1.4,0.3,2.7,0.4,4.1c0,0.7-0.4,1.1-1.1,1.2c-0.7,0.1-1-0.2-0.8-0.9c0-0.2-0.1-0.5-0.2-0.8
			c-0.1,0-0.1,0-0.2,0c0.1,1.5,0.3,3,0.4,4.5c1.7,0.2,3.5,0.4,5-0.5c0-0.9-0.1-1.6-0.1-2.4c0-0.5,0-0.9-0.7-0.8
			c-0.2,0-0.6-0.3-0.6-0.6c-0.4-2.3-0.6-4.5-1.1-6.8C182.7,111.9,182.2,110.2,181.8,108.5z M151.5,158.8c-0.6,1.9,5.4,22.6,8.3,29.6
			c0-0.1,0.1-0.2,0.1-0.3c-0.4-1.8-0.9-3.7-1.3-5.5c-0.3-1.6-0.6-3.3-0.9-4.9c-0.1-0.5-0.1-1-0.2-1.4c-0.4-1.2-0.9-2.3-1.3-3.4
			c-0.4-1.2-0.5-2.5-1.2-3.6c-0.3-0.5-0.4-1.1-0.6-1.6c-0.7-1.9-1.4-3.7-2-5.6C152.1,161.1,151.9,160.1,151.5,158.8z M65.6,208.9
			c0.1,0,0.2-0.1,0.3-0.1c0.3-2.1,0-4.2-0.4-6.3c-0.4-1.7-1-3.3-1.4-5c-0.5-2.5-1.2-4.8-3.6-6.2c-0.5,0.8-0.8,1.6-0.1,2.4
			c0.2,0.2,0.3,0.5,0.3,0.8c1.1,3.5,2.3,6.9,3.4,10.4C64.7,206.2,65.2,207.6,65.6,208.9z M115.6,108.3c1-0.3,1.4,0.3,1.7,1.1
			c0.8,1.7,1.6,3.3,2.5,4.9c0.1,0.2,0.3,0.4,0.5,0.6c0.1-0.1,0.2-0.1,0.4-0.2c-0.3-0.8-0.6-1.7-0.9-2.5c-0.3-1.1-0.5-2.3-0.9-3.4
			c-0.3-0.8-0.2-1.3,0.6-1.6c0.5-0.2,0.5-0.5,0.5-1c-0.1-1.3,0-2.5-0.1-3.8c0-0.2-0.1-0.4-0.1-0.9c-1.5,0.9-2.9,1.6-4.2,2.5
			c-0.2,0.1-0.4,0.5-0.4,0.7C115.3,105.8,115.4,107,115.6,108.3z M90,137.8c-0.1,0-0.1,0-0.2-0.1c-1.9,3.3-3.9,6.5-5.9,10
			c0.5-0.1,0.7-0.1,1-0.2c1-0.2,1.7,0.2,2.1,1.1c0.3,0.8,0.6,1.6,0.9,2.3c0.8,2.1,1,4.5,2.2,6.5c0.8,1.2,1.4,2.5,2.1,3.8
			c0.1-0.1,0.2-0.1,0.4-0.2c-0.5-1.3-0.9-2.7-1.4-4c-0.7-1.7-1.5-3.2-2.2-4.9c-0.7-1.6-1.4-3.2-1.9-4.8c-0.3-1-0.4-2-0.4-3
			c0-0.4,0.7-0.9,1.2-1.1c0.2-0.1,0.8,0.4,1,0.7c0.6,0.8,1.1,1.7,1.6,2.7C90.2,143.7,90.1,140.7,90,137.8z M98.3,150.2
			c-0.1-1.1-0.2-2.2-0.4-3.2c-0.1-0.5-0.2-1-0.4-1.5c-0.2-0.5-0.6-0.9-0.8-1.4c-0.5-1.3-0.8-2.8-1.5-4c-1.1-2-1.6-4.1-2.3-6.2
			c-0.1-0.3-0.2-0.5-0.4-1.1c-0.8,1.4-1.4,2.4-1.9,3.4c0.6,0.4,1.3,0.6,1.5,1c0.4,1,0.7,2.1,0.9,3.2c0.3,1.6,0.6,3.1,1.7,4.4
			c0.8,1,1.4,2.3,2.1,3.4C97.4,148.9,97.9,149.6,98.3,150.2z M169.6,153.2c0.1,0,0.1,0,0.2,0c0-0.2,0.1-0.4,0-0.6
			c-0.5-1.9-1-3.7-1.5-5.5c-0.7-2.8-1.5-5.7-2.1-8.5c-0.1-0.3,0.3-0.9,0.6-1.2c0.3-0.2,0.9-0.2,1.7-0.3c-0.4-0.3-0.7-0.5-0.9-0.5
			c-0.8,0-1.6,0.1-2.4,0.1c-1,0.1-1.7,1.1-1.3,2c0.7,2.2,1.4,4.4,2.3,6.5C167.2,147.9,168.4,150.6,169.6,153.2z M158.9,147.4
			c-0.1,0.2-0.2,0.3-0.2,0.4c0.3,2.2,0.4,4.5,1,6.6c1,3.3,2.5,6.5,3.8,9.8c0.6,1.5,1.2,3.1,1.8,4.7c0.1,0,0.2-0.1,0.3-0.1
			C164.4,161.4,161.5,154.6,158.9,147.4z M174.3,223.2c-0.1,0-0.1,0.1-0.2,0.1c0.2,0.5,0.4,0.9,0.6,1.4c0.2,0.6,0.4,1.2-0.3,1.5
			c-1,0.5-1.7,0.5-2.2-0.3c-1.2-1.7-2.3-3.4-3.5-5c-0.4-0.6-0.8-1.3-1.3-1.9c-0.1,0-0.2,0.1-0.3,0.1c0.2,0.5,0.3,1,0.5,1.5
			c1.4,2.7,3.5,4.9,4.5,7.8c3-1.2,6-2.5,8.8-3.6c-1.2-1.3-2.4-2.6-3.6-3.9c-0.1,0-0.2,0.1-0.2,0.1c0.2,0.7,0.3,1.5,0.5,2.2
			c0.3,0.8,0,1.2-0.7,1.6c-0.6,0.3-1.1,0.5-1.5-0.3C175.1,224,174.7,223.6,174.3,223.2z M145.2,223.6c0.1,0,0.1,0,0.2,0
			c-0.2-0.2-0.5-0.4-0.6-0.7c-0.3-1.1-0.5-2.3-0.8-3.4c-0.3-1.2-0.7-2.3-1-3.5c-0.1-0.5-0.2-1.1-0.4-1.6c-0.1-0.3-0.2-0.6-0.2-0.9
			c-0.1-0.5-0.3-1-0.4-1.6c-0.1-0.3-0.1-0.7-0.2-1c-0.3-1.2-1.2-2.3-0.5-3.6c0-0.1,0-0.2-0.1-0.3c-0.8-1.8-1.6-3.7-2.4-5.5
			c-0.3-0.7-0.7-1.4-1-2.1c-0.2,0.2-0.3,0.5-0.3,0.7c1,3.4,2.1,6.7,3.1,10.1c0.7,2.4,2.2,4.5,1.6,7.2c0,0.1,0.1,0.3,0.1,0.4
			c0.7,2.2,1.5,4.4,2.2,6.7c0.3,0.8,0.6,1.5,0.9,2.3c0.1,0,0.2-0.1,0.3-0.1C145.6,225.7,145.4,224.6,145.2,223.6z M165.8,213.6
			c-0.1-2.3-0.3-4.5-0.4-6.7c-0.2,0.2-0.3,0.3-0.3,0.4c-0.9,1.9-1.5,4-2.6,5.8c-1.2,2-0.3,3.7,0.1,5.6c0,0.1,0.2,0.2,0.3,0.3
			c0.5,0.5,1.1,0.9,1.5,1.4c0.6,0.7,1.2,1.4,1.8,2.1c0.1,0,0.2,0,0.2-0.1c0-0.3,0.1-0.7,0-1c-0.2-0.6-0.6-1.1-0.9-1.7
			c-0.7-1.4-1.4-2.8-2-4.2c-0.4-1,0.4-1.9,1.5-1.9C165.2,213.5,165.4,213.5,165.8,213.6z M223.2,196.1c0.6-1.4,1.1-2.6,1.5-3.8
			c0.2-0.6,0.6-1.3,0-2c-1.9-2.2-3.7-4.4-5.6-6.6c-0.5-0.6-1.1-1.2-1.7-1.8c-0.1,0.1-0.1,0.1-0.2,0.2c0.4,0.6,0.8,1.2,1.2,1.8
			c0.8,1,1.6,2,2.4,3c1,1.4,2.1,2.8,3,4.3c0.5,0.8,0.2,1.6-0.5,1.9c-0.8,0.4-1.1-0.3-1.5-0.7c-1.7-2.2-3.5-4.3-5.2-6.5
			c-0.1,0-0.2,0.1-0.3,0.1c0.2,0.7,0.3,1.5,0.7,2.1c1.5,2,3.1,4,4.6,6C222.1,194.7,222.6,195.4,223.2,196.1z M207.3,185.6
			c0.1,1.1,0.2,1.9,0.9,2.6c0.6,0.5,1,1.2,1.5,1.8c0.7,1,1.3,2,2,2.9c0.9,1.2,2,2.3,2.9,3.5c1.2,1.6,2.2,3.2,3.3,4.8
			c0.8,1.1,1.6,2.2,2.4,3.3c0.1,0.1,0.3,0.2,0.4,0.3c0.7-1.2,0.5-2.2-0.4-3.2c-0.9-0.9-1.7-2-2.6-3c-1.7-2-3.5-4-5.1-6.1
			C210.8,190.4,209.1,188.1,207.3,185.6z M86,172.8c-0.5-1.7-0.8-3.5-1.4-5.1c-0.6-1.8-1.6-3.5-2.3-5.3c-0.8-2.1-1.5-4.3-2.3-6.4
			c-0.1-0.2-0.2-0.4-0.4-0.7c-0.4,0.8-0.7,1.4-1.1,2.1c1.2,0.3,1.4,1.2,1.6,2c0.5,1.8,1.2,3.6,1.5,5.5
			C82.2,168.2,84.2,170.4,86,172.8z M112.5,111.8c-0.6-1.9,0.6-3.7-0.6-5.6c-1.3,1.1-2.5,2.1-3.7,3.1c-0.1,0.1-0.1,0.3-0.1,0.5
			c0.3,1.8,0.6,3.7,1,5.5c0,0.2,0.2,0.4,0.3,0.6c0.3,0.3,0.7,0.5,1,0.9c0.3,0.4,0.5,0.9,0.8,1.3c-0.1-1.3-0.5-2.5-0.8-3.7
			c-0.2-0.7-0.4-1.4-0.3-2.1C110.1,111,111.1,110.8,112.5,111.8z M174.1,115.4c0,0-0.1,0.2-0.1,0.3c0.2,1,0.3,1.9,0.5,2.8
			c0.5,2.3,1.1,4.6,1.7,7c0.2,0,0.5-0.1,0.8-0.1c1,0,1.1-0.4,0.9-1.3c-0.5-2.5-0.9-5-1.3-7.5c-0.1-0.5-0.3-0.8-0.9-0.8
			C175.3,115.8,174.7,115.6,174.1,115.4z M70,192.1c2.1,4.6,3.6,9.3,6,13.6C76.1,200.3,74.8,195.5,70,192.1z M98.8,142.6
			c-0.1,0-0.1,0-0.2,0c0,0.6-0.1,1.3,0.1,1.9c0.4,1.1,0.9,2.1,1.4,3.2c0.6,1.2,1.2,2.4,1.8,3.6c1.3,2.6,2.6,5.1,3.9,7.7
			c0.1,0.2,0.3,0.3,0.7,0.6c-0.3-1-0.5-1.7-0.7-2.4c-0.5-2.2-1.3-4.3-2.3-6.3c-0.9-1.7-2-3.3-2.9-4.9
			C100,144.8,99.4,143.7,98.8,142.6z M173.3,202.7c0.1,0,0.1,0,0.2-0.1c-0.3-3.8-1.5-7.4-1.2-11.3c-0.2,0.1-0.2,0.3-0.3,0.5
			c-0.9,2.1-1.7,4.1-2.6,6.2c-0.4,0.9-0.7,1.6-0.1,2.5c0.1-0.1,0.2-0.2,0.4-0.3c1.1-0.9,1.6-0.8,2.3,0.4
			C172.3,201.4,172.8,202,173.3,202.7z M87.5,201.3c-0.6-1.1-1-2.1-1.7-3c-0.8-1.1-1.7-2-2.6-3c-0.5-0.6-0.9-1.2-1.3-1.8
			c-0.1,0-0.2,0.1-0.3,0.1c0.2,0.6,0.5,1.2,0.6,1.8c0.4,2.3,0.8,4.6,1.2,6.9c0.1,0.5,0.2,0.7,0.7,0.5
			C85.3,202.3,86.3,201.9,87.5,201.3z M129.5,103.7c-0.1,0-0.2,0-0.2,0c0.1,0.9,0.1,1.8,0.2,2.7c0.2,1.7,0.1,3.6,1.2,5.2
			c0.7,1,1.3,2,1.9,3c1,1.8,1.9,3.6,2.8,5.3c0.1,0.2,0.3,0.5,0.5,0.7c0-0.8-0.1-1.5-0.4-2.2c-0.8-2-1.7-4-2.5-6
			c-0.2-0.4-0.3-0.9-0.5-1.4c-0.4-1-1-2-1.4-3.1C130.4,106.6,130,105.1,129.5,103.7z M100.7,134.5c0.1,0,0.3-0.1,0.4-0.1
			c-0.3-1.9-0.6-3.9-1-5.8c-0.4-1.9,0-3.9-1.3-5.6c-1.1,3.2-0.9,6.4-0.8,9.9c0.3-0.3,0.5-0.4,0.6-0.5c0.7-0.5,1-0.4,1.3,0.4
			C100.1,133.4,100.4,134,100.7,134.5z M255.4,110.8c3.1-5.5,5.8-11.1,6.4-17.5C259.7,99.1,256.8,104.7,255.4,110.8z M150.1,94.8
			c-0.1,0.1-0.2,0.1-0.3,0.2c0.7,3.4,1.4,6.8,2.1,10.3c0.1-0.2,0.2-0.2,0.3-0.3c0.7-1.5,1.4-3,2.1-4.5c0.1-0.1,0-0.4-0.2-0.6
			c-0.7-0.8-1.3-1.7-2-2.5C151.5,96.5,150.8,95.6,150.1,94.8z M85.3,149.1c-0.1,0-0.1,0-0.2,0c0,0.1-0.1,0.3-0.1,0.4
			c-0.1,1.7-0.2,3.4-0.2,5.1c0,0.9,0,1.8,0.3,2.5c0.8,1.7,1.9,3.3,2.9,4.9c0.5,0.8,1,1.6,1.6,2.4c0.1,0,0.2-0.1,0.2-0.1
			c-0.2-0.5-0.4-1-0.6-1.5c-1.1-2.9-2.3-5.8-3.3-8.8c-0.3-0.8-1-1.8,0.3-2.4C85.9,150.8,85.6,150,85.3,149.1z M168.4,122.9
			c-0.1,0.2-0.2,0.3-0.3,0.3c-0.5,0.2-1.1,0.5-1.7,0.5c-0.2,0-0.5-0.7-0.5-1.1c-0.3-1.9-0.6-3.8-0.8-5.7c-0.1-0.6-0.2-1.2-0.3-1.8
			c-0.3,0.2-0.4,0.4-0.4,0.5c0.2,1.8,0.3,3.7,0.6,5.5c0.3,2.3,1,4.5,0.7,7c1.1-0.3,2.2-0.5,3.3-0.8c0.1,0,0.3-0.4,0.3-0.5
			C169,125.4,168.7,124.2,168.4,122.9z M74.9,183.8c0.1,0.4,0.1,0.8,0.2,1.2c0.4,2,1.3,3.7,2.3,5.5c1.1,2,2,4,3.1,6
			c0.1,0.2,0.3,0.2,0.5,0.4C80.7,191.6,78.2,187.6,74.9,183.8z M121.9,130.1c0.1,0,0.3-0.1,0.4-0.1c-0.3-1.1-0.6-2.2-1-3.3
			c-0.4-1.3-0.9-2.5-1.4-3.8c-0.8-1.9-1.7-3.9-2.5-5.8c-0.3-0.8-0.6-1.6-0.9-2.4c-0.1,0-0.2,0-0.3,0.1c0.2,1.4,0.4,2.8,0.7,4.2
			c0.2,1.1,0.6,2.2,1,3.2c0.4,1,1,1.9,1.5,2.8C120.3,126.8,121.1,128.5,121.9,130.1z M206.2,193.3c0.1-0.1,0.1-0.1,0.2-0.2
			c-2.2-5-4.8-9.8-8.2-14c0.1,0.9,0.2,1.8,0.6,2.6c1,2,2.1,3.9,3.3,5.9c0.8,1.3,1.7,2.6,2.6,3.8
			C205.2,192.1,205.7,192.7,206.2,193.3z M111.5,133.6c-0.1,0-0.2,0-0.2,0c0.3,1.7,0.3,3.4,1,5c0.8,1.7,1.7,3.3,2.5,4.9
			c0.5,1,1,2,1.5,2.9c0.1,0,0.2-0.1,0.3-0.1c-0.1-0.7-0.2-1.4-0.4-2c-0.4-1.8-0.7-3.7-1.9-5.3C113.3,137.3,112.5,135.4,111.5,133.6z
			 M102.6,132.3c-0.1,0-0.2,0.1-0.3,0.1c0.3,1.5,0.5,3.1,0.8,4.6c0.1,0.8,0.2,1.6,0.6,2.3c0.9,1.6,1.9,3.2,2.8,4.7
			c0.3,0.4,0.6,0.8,0.9,1.2c0.1-2.4-0.8-4.5-1.7-6.7c-0.7-1.7-1.6-3.2-2.4-4.8C103.1,133.2,102.8,132.8,102.6,132.3z M219,142.2
			c0.2,0.8,0.3,1.5,0.5,2.1c0.2,0.8,0.4,1.8,0.8,2.5c1.4,2.1,2.9,4.1,4.3,6.2c0.7,1.1,1.4,2.2,2.1,3.3c-0.3-2.4-1.3-4.6-2.6-6.6
			c-1.6-2.4-3.1-4.8-4.6-7.2C219.4,142.3,219.2,142.3,219,142.2z M181,140.4c-0.4-1.1-0.8-2-1.1-3c-0.2-0.6,0.3-1.3,1-1.5
			c0.7-0.2,0.7,0.3,0.9,0.8c0.3,1,0.8,2,1.2,3.2c0.1-2.6-0.7-4.8-1.8-6.8c-0.8,0.1-1.6,0.2-2.4,0.4c-0.2,0-0.4,0.5-0.4,0.7
			c0.2,1.8,0.5,3.5,0.8,5.3c0.1,0.4,0.2,0.9,0.4,1.3C180.2,140.6,180.5,140.5,181,140.4z M100.1,161.3c0.1,0,0.1,0,0.2-0.1
			c-0.2-0.9-0.3-1.9-0.5-2.8c-0.3-1.2-0.5-2.4-1-3.5c-0.5-1.1-1.2-2.1-1.8-3.2c-0.7-1.1-1.4-2.3-2-3.4
			C95.5,153.2,98.1,157.1,100.1,161.3z M211.9,160.2c-0.1,0-0.1,0.1-0.2,0.1c0,0.1,0,0.2,0,0.3c0.7,1.2,1.3,2.5,2,3.7
			c0.5,0.8,0.9,1.7,1.4,2.5c0.7,1.1,1.6,2.1,2.4,3.2c1.1,1.7,2.2,3.5,3.3,5.2c0.2,0.3,0.5,0.7,0.8,1c0.1-0.2,0.1-0.2,0.1-0.3
			c0-0.1-0.1-0.2-0.1-0.4c-0.3-2.3-1.7-4-3-5.7c-1.2-1.5-2.3-3.1-3.4-4.7C214.1,163.5,213,161.9,211.9,160.2z M191.9,108.8
			c0.8-0.3,1.5-1.3,2.3,0c-0.6-3.4-1.4-6.6-2.9-9.6C190.4,102.5,191.5,105.6,191.9,108.8z M167.9,115.7c0.4-0.1,0.6-0.2,0.9-0.3
			c0.8-0.3,1.7-0.5,2.4-0.8c0.3-0.1,0.4-0.5,0.6-0.8c-0.3-0.1-0.4-0.1-0.5-0.1c-1.2,0.5-1.6,0.2-1.6-1.1c0-1,0.1-2,0-2.9
			c0-1.7-0.1-3.3-0.2-5c-0.1-1.4-0.2-2.8-0.4-4.3c-0.1,0-0.2,0-0.4,0c0,0.8,0,1.6,0.1,2.4c0,2.7,0.1,5.5,0.1,8.2
			c0.1,1.9-0.1,2.3-1.5,3C167.8,114.5,167.9,115.1,167.9,115.7z M135.3,128c0.1,0,0.2,0,0.2-0.1c-0.2-1.6,0.4-3.2-0.7-4.6
			c-0.5-0.6-0.7-1.4-1.1-2.1c-1.1-1.9-2.1-3.9-3.2-5.8c0.1,1.2,0.1,2.5,0.6,3.6c1.1,2.7,2.4,5.3,3.7,7.9
			C135,127.3,135.1,127.6,135.3,128z M239.3,105.8c0,1.2,0,2.4,0,3.7c0,0.5,0.2,1.1,0.5,1.5c0.8,1.1,1.7,2.2,2.6,3.3
			c0.6,0.7,1.3,1.3,1.9,2c0.1,0,0.1-0.1,0.2-0.1C243.2,112.5,241.1,109.3,239.3,105.8z M205.7,178.5c-0.1,0-0.2,0.1-0.4,0.1
			c0.1,0.4,0.2,0.9,0.4,1.3c0.7,1.3,1.4,2.7,2.2,3.8c0.9,1.3,2.1,2.3,3.1,3.5c0.8,1,1.5,2.2,2.2,3.3c0.1,0.1,0.2,0.2,0.5,0.3
			c-0.3-0.5-0.4-0.9-0.5-1.2c-0.5-1.2-0.9-2.4-1.5-3.5c-0.4-0.7-1-1.2-1.5-1.8c-1.4-1.8-2.8-3.5-4.1-5.3
			C206,179,205.9,178.7,205.7,178.5z M197.6,110.2c0.8-0.4,1.2-0.1,1.3,0.6c0.2,0.9,0.5,1.8,0.7,2.7c0.2,0.8,0.4,1.7,0.6,2.5
			c0.1,0,0.2,0,0.3-0.1c-0.2-1.2-0.3-2.3-0.5-3.5c-0.2-1.3-0.9-2.7,1.2-3.4c-1.2-1.5-2.2-2.9-3.3-4.3c-0.1,0-0.2,0.1-0.2,0.1
			C197.6,106.6,197.6,108.3,197.6,110.2z M229.9,143.7c0.1-0.1,0.3-0.2,0.4-0.3c-2.3-3.9-4.9-7.7-7.5-11.7c0.1,2.7,1.1,4.8,2.9,6.8
			c0.9,1,1.5,2,2.4,3C228.7,142.3,229.3,143,229.9,143.7z M120.2,138.5c0.6,4.6,1.9,8.7,4.3,12.4c-0.1-1.3,0-2.6-0.3-3.8
			c-0.4-1.3-1.1-2.6-1.7-3.8C121.8,141.7,121,140.2,120.2,138.5z M167.6,153.6c-0.1,0-0.2,0.1-0.3,0.1c0.3,1,0.5,2,0.9,3
			c1.2,3.2,2.4,6.4,3.6,9.6c0.2,0.5,0.5,1,0.8,1.5c0.1,0.1,0.4,0.2,0.6,0.1c0.1-0.1,0.3-0.4,0.3-0.5c-0.3-1-0.6-2.1-1-3
			c-0.6-1.6-1.4-3.1-2.1-4.7C169.5,157.7,168.6,155.7,167.6,153.6z M84.9,174.7c-0.1,0-0.2,0.1-0.3,0.1c1.8,5,3.6,9.9,5.3,14.9
			c0.1,0,0.3-0.1,0.4-0.1c-0.1-0.4-0.2-0.7-0.3-1.1c-0.4-1.4-0.7-2.9-1.1-4.3c-0.3-0.9-0.7-1.8-0.8-2.7c-0.2-2.1-1.1-3.8-2.4-5.4
			C85.4,175.7,85.1,175.1,84.9,174.7z M195.6,194.6c0.1,0,0.1-0.1,0.2-0.1c-1.8-2.5-3.6-4.9-5.3-7.5c-1.7-2.6-3.1-5.2-4.7-7.9
			c0,0-0.1,0.1-0.1,0.1c-0.4,1.4,0.1,2.5,1,3.7c2.7,3.4,5.3,7,8,10.5C194.9,193.8,195.3,194.2,195.6,194.6z M232.8,174.2
			c-0.1,0-0.2-0.1-0.3-0.1c-0.1,0.2-0.2,0.3-0.3,0.5c-0.6,1.7-1.2,3.4-1.9,5.1c-0.9,2.5-1.8,5-2.7,7.5c-0.1,0.4,0.1,0.9,0.2,1.4
			c0.1,0,0.2,0,0.3,0C229.9,183.9,231.8,179.2,232.8,174.2z M102.1,183.2c0.1,0,0.2,0,0.3,0c-0.2-1-0.4-2.1-0.7-3.1
			c-0.3-0.9-1-1.6-1.4-2.4c-0.9-1.6-1.8-3.1-2.8-4.6c-0.5-0.7-1.1-1.4-1.6-2.1c-0.1,0-0.1,0.1-0.2,0.1
			C97.3,175.3,99.8,179.2,102.1,183.2z M186,201.5c0.1-1.9-1-3.1-1.8-4.4c-1.5-2.4-3.1-4.7-4.6-7.1c-0.6-1-1.3-2-1.9-3
			c-0.1,0.1-0.2,0.1-0.3,0.2C179.7,192.3,182.8,196.8,186,201.5z M235.2,143.1c0.1-0.1,0.2-0.2,0.3-0.3c-1.6-2.8-3.1-5.6-4.7-8.5
			c-0.2,0.2-0.3,0.4-0.2,0.6c0.2,0.7,0.4,1.5,0.5,2.2c0.1,1.7,0.2,3.3,1.9,4.3C233.7,141.9,234.4,142.6,235.2,143.1z M142.7,229.6
			c-3.3-4.3-5.8-9.1-9.6-13C135.6,221.4,138.9,225.8,142.7,229.6z M124.8,117.5c0.3,3.9,2.4,7.1,4.1,10.4
			C129.4,123.8,126.4,120.9,124.8,117.5z M92.5,154.2c0.1,1.6,0.1,3.2,0.9,4.6c0.6,1.2,1.3,2.3,2,3.5c0.5,1,1.1,2,1.7,3.2
			C96.5,161.3,94.8,157.6,92.5,154.2z M107.7,132.7c-0.7,3.9,0.9,7.1,3.2,9.8C111.2,138.9,108.6,136.1,107.7,132.7z M57.7,196.8
			c-0.6,1.2-1.1,2.3-1.5,3.1c0.6,0.7,1.2,1.1,1.5,1.8c0.8,1.5,1.4,3.1,2.1,4.6c0.1,0.2,0.3,0.4,0.4,0.6c0.1,0,0.2-0.1,0.3-0.1
			C59.5,203.4,58.6,200.2,57.7,196.8z M88,193.2c-0.1,0.1-0.2,0.1-0.3,0.2c0.1,0.3,0.3,0.7,0.4,1c0.6,1.8,1.2,3.7,1.8,5.5
			c0.1,0.2,0.4,0.5,0.6,0.5c0.7-0.1,1.4-0.3,2.3-0.6C91.2,197.4,89.6,195.3,88,193.2z M183.9,96.7c0.1,0,0.2-0.1,0.3-0.1
			c-0.1-4.1-1.2-8.1-2.4-12c-0.1,0-0.2,0-0.3,0c-0.2,1.4-0.5,2.7-0.6,3.8c0.5,0.4,1.1,0.5,1.2,0.8c0.6,2.2,1.1,4.4,1.6,6.6
			C183.7,96.2,183.8,96.5,183.9,96.7z M109,155.5c0.3-4.6-2.3-7.9-4.6-11.3C105.4,148.1,107.5,151.6,109,155.5z M108.3,159.9
			c0.6,3.7,1.8,7,4.1,10.3C112.1,166.2,110.6,162.9,108.3,159.9z M232.3,116.3c-0.1,0-0.2,0-0.3,0c0.2,0.8,0.3,1.8,0.7,2.5
			c0.9,1.6,1.9,3.2,2.9,4.8c0.7,1.1,1.5,2.1,2.2,3.2c0.1,0,0.2-0.1,0.2-0.1c-0.3-0.9-0.5-1.9-1-2.8
			C235.5,121.3,233.9,118.8,232.3,116.3z M131.6,103.7c-0.1,0-0.2,0.1-0.4,0.1c1.4,3.5,2.9,7,4.3,10.5c0.2-0.5,0.2-1,0.2-1.4
			c-0.1-0.9,0-2-0.4-2.8C134.2,107.9,132.9,105.8,131.6,103.7z M223.1,142.7c0.1,0,0.1-0.1,0.2-0.1c-0.6-1.6-0.7-3.4-1.7-4.9
			c-1-1.5-2-2.9-2.9-4.4c-0.1,0.1-0.3,0.1-0.4,0.2c0.4,1.1,0.6,2.3,1.1,3.4c0.6,1.1,1.4,2.1,2.1,3.1
			C222,140.9,222.6,141.8,223.1,142.7z M174.9,146.3c-0.4,0.5-0.6,1.1-1,1.2c-0.8,0.3-0.6,0.8-0.4,1.3c0.8,2,1.5,4.1,2.3,6.1
			c0.1,0.3,0.4,0.6,0.6,1c0.1,0,0.2-0.1,0.2-0.1C176,152.8,175.4,149.7,174.9,146.3z M77.8,205.7c0.6-0.3,1-0.6,1.4-0.8
			c0.9-0.5,1-0.8,0.5-1.7c-0.2-0.4-0.5-0.9-0.6-1.3c-0.4-1.4-1.4-2.2-2.4-3C77,201.1,77.4,203.3,77.8,205.7z M96.6,126.8
			c-1,1.6-1.9,3.1-2.8,4.4c1.9,0.5,1.5,2.8,2.8,3.6C96.6,132.3,96.6,129.7,96.6,126.8z M163.3,153.7c0.5-4.8-1.6-9-3-13.3
			c-0.1,0-0.2,0.1-0.4,0.1C161.1,144.9,162.2,149.3,163.3,153.7z M170.5,204c-0.1,0-0.1,0.1-0.2,0.1c0.9,3.5,2,7,4.6,9.8
			c-0.2-1.1-0.2-2.2-0.6-3.1c-0.8-1.8-1.9-3.4-2.8-5.1C171.1,205.1,170.8,204.6,170.5,204z M107.1,113.6c-0.1,0-0.2,0-0.3,0
			c0,0.8,0,1.7-0.1,2.5c0,1,0,1.9-0.1,2.9c-0.2,2.2,0.3,4.2,1.8,6.1C108,121.2,107.6,117.4,107.1,113.6z M232.8,123.7
			c-0.1,0-0.2,0.1-0.4,0.1c0.3,1.2,0.3,2.5,0.9,3.5c1.2,1.9,2.6,3.6,4,5.4c0.1-0.1,0.3-0.2,0.4-0.3
			C236.3,129.4,234.5,126.6,232.8,123.7z M203.8,178.2c0.1-0.1,0.2-0.1,0.3-0.2c-0.4-1.1-0.8-2.3-1.4-3.4c-0.6-1.1-1.4-2-2.1-3
			c-1-1.4-1.9-2.9-2.8-4.3c-0.1,0-0.1,0.1-0.2,0.1C199,171.4,201.9,174.6,203.8,178.2z M101.7,143.9c0.1,0,0.2-0.1,0.3-0.1
			c-1.2-3.2-2.5-6.4-3.7-9.7c-0.3,2.1-0.3,4.1,1.1,5.9C100.2,141.2,100.9,142.6,101.7,143.9z M118.1,126.9c0.3,4.2,3.1,7.4,4.9,10.9
			C122.1,133.8,119.6,130.6,118.1,126.9z M115.1,129.1c0.1,3.7,1.8,6.6,3.3,9.6C117.9,135.3,117.2,132.1,115.1,129.1z M186.6,173.6
			c-0.1,0-0.2,0-0.2,0c-0.1,0.5-0.4,1.1-0.2,1.5c0.2,0.7,0.7,1.3,1.1,1.9c1.3,1.8,2.5,3.7,3.8,5.5c0.2,0.3,0.5,0.5,0.7,0.8
			c0.1-0.1,0.2-0.1,0.3-0.2C190.2,179.9,188.4,176.8,186.6,173.6z M186.9,195.1c-0.1,0-0.2,0-0.3,0c0.1,0.6,0,1.4,0.4,1.9
			c0.8,1.2,1.7,2.4,2.6,3.5c0.7,0.8,1.4,1.5,2.1,2.3c0.5,0.5,1.1,1.1,1.6,1.6c0.1-0.1,0.1-0.1,0.2-0.2c-1.1-1.5-2.3-3-3.4-4.5
			C189,198.3,187.9,196.7,186.9,195.1z M147.2,215.5c0.1,0,0.2-0.1,0.3-0.1c-1.9-4.4-3.8-8.8-5.8-13.3
			C141.3,203.3,145.1,212.4,147.2,215.5z M226.8,197.5c-0.1,0-0.1,0-0.2,0c-1.1,2.9-2.3,5.8-3.4,8.9c1.5-0.2,1.9-1.1,2.2-2.1
			c0.4-1.3,0.8-2.6,1.1-3.9C226.6,199.5,226.7,198.5,226.8,197.5z M104.2,177.2c-0.2-2-1.4-3.5-2.1-5.1c-0.8-1.7-1.6-3.3-2.5-4.9
			C99.4,169.3,102.4,176,104.2,177.2z M219.3,155c0.1-3.1-0.4-5.7-2.7-7.6c0.2,1.4,0.3,2.9,0.8,4.3
			C217.7,152.8,218.6,153.8,219.3,155z M175.1,202.6c0,0.7,0,1.1,0.1,1.4c0.2,0.8,0.3,1.7,0.7,2.3c0.8,1.3,1.7,2.4,2.6,3.6
			c0.6,0.8,1.2,1.5,1.8,2.3c0-1.2-0.7-2-1.3-2.8c-1.1-1.6-1.9-3.3-2.8-5C175.8,203.9,175.5,203.4,175.1,202.6z M217.8,195.8
			c1.3,1.6,2.5,3.2,3.8,4.7c0.1,0,0.3-0.1,0.4-0.1c0-0.6,0.4-1.4,0.1-1.8c-1-1.4-2.3-2.6-3.4-3.9
			C218.4,195.1,218.1,195.4,217.8,195.8z M219.3,178.1c-0.1,0.1-0.2,0.1-0.2,0.2c1.7,2.5,3.5,5.1,5.2,7.6c0.1,0,0.1,0,0.2-0.1
			c-0.5-1.9-1.1-3.9-1.6-5.9c-0.2,0.1-0.3,0.2-0.4,0.3c-0.6,0.5-1.1,0.5-1.6-0.3C220.4,179.2,219.8,178.7,219.3,178.1z M204.3,171.8
			c-0.1,0.1-0.2,0.1-0.4,0.2c0.3,0.9,0.4,1.8,0.9,2.5c1.7,2.4,3.4,4.7,5.2,7c0.2,0.2,0.4,0.4,0.6,0.7c0.1-0.1,0.1-0.1,0.2-0.2
			C208.6,178.6,206.5,175.2,204.3,171.8z M217.9,142.6c0,0,0.1,0,0.1,0c-0.1-0.9-0.3-1.7-0.4-2.6c0-0.3-0.1-0.5-0.2-0.8
			c-1-1.6-2.1-3.3-3.3-5.2c0.2,1.3,0.2,2.5,0.7,3.5C215.6,139.4,216.8,141,217.9,142.6z M128.5,186.7c-0.1,0-0.1,0.1-0.2,0.1
			c0.2,1.9,4,12.9,4.9,13.3C131.5,195.5,130,191.1,128.5,186.7z M203.9,152.4c-0.1-2.6-1.3-4.8-2.8-7c0,0.8,0.1,1.5,0,2.2
			c-0.2,1.2,0.7,2,1.1,2.9C202.6,151.2,203.4,151.8,203.9,152.4z M73.4,186.1c-0.1,0-0.2,0-0.3,0c0,0.3,0,0.6,0.1,0.9
			c0.3,1.1,0.6,2.2,1,3.3c0.4,1.4,0.8,2.9,1.2,4.3c0.2,0.6,0.4,1.2,1.5,1.2C75.1,192.7,75.1,189.1,73.4,186.1z M160.5,92.7
			c0.1-0.1,0.2-0.1,0.3-0.2c-0.1-0.8-0.1-1.6-0.2-2.4c0-0.6-0.3-0.8-0.9-0.8c-0.5,0-1.1-0.3-1.4-0.1c-0.3,0.2-0.3,0.9-0.4,1.3
			c-0.1,0.2-0.2,0.4-0.3,0.8C158.7,91.8,159.6,92.3,160.5,92.7z M210.3,138.4c-0.1,0.1-0.3,0.1-0.4,0.2c1.5,2.8,3,5.7,4.5,8.6
			C214.6,143.4,211.9,141.2,210.3,138.4z M92.1,182c0.1-0.1,0.1-0.1,0.2-0.2c-1.6-2.9-3.2-5.8-4.8-8.8c-0.1,0-0.2,0.1-0.3,0.1
			c0.2,1.1,0.3,2.2,0.8,3.1c1,1.8,2.3,3.4,3.5,5.1C91.6,181.6,91.9,181.8,92.1,182z M110.4,124.8c-0.5,3.7,1.6,6.4,3.5,9.1
			C112.7,130.9,111.5,127.8,110.4,124.8z M88.9,191.3c-1.6-3.3-3.1-6.5-4.7-9.7c-0.1,0-0.2,0.1-0.2,0.1
			C85.2,185.1,85.8,188.7,88.9,191.3z M226.4,142c-0.1,0.1-0.2,0.1-0.2,0.2c1.4,2.3,2.8,4.6,4.3,7c0.2-0.3,0.4-0.5,0.4-0.7
			c-0.1-0.7-0.2-1.4-0.6-1.9c-0.9-1.2-2-2.4-3-3.5C226.9,142.8,226.6,142.4,226.4,142z M225.6,144.1c0.1,1.5,0.5,2.6,1.3,3.7
			c1,1.3,1.9,2.6,2.8,3.9c0.4,0.5,0.8,1,1.1,1.5c0.1-0.1,0.2-0.1,0.3-0.2C229.3,150.1,227.5,147.2,225.6,144.1z M100.1,151
			c-0.1,0.1-0.4,0.2-0.4,0.3c0.1,0.6,0.1,1.3,0.4,1.8c1.1,2,2.2,3.9,3.4,5.8c0.2,0.3,0.4,0.6,0.7,0.8c0.1,0,0.1-0.1,0.2-0.1
			C102.9,156.9,101.5,154,100.1,151z M126.5,138.8c0.1-2.8-1.4-5-2.8-7.3c0.1,0.9,0.1,1.9,0.4,2.7
			C124.8,135.8,125.7,137.3,126.5,138.8z M153.8,152.8c0.1,0,0.3,0,0.4,0c-0.1-1.2-0.2-2.5-0.3-3.7c-0.1-1-0.2-1.9-0.3-2.9
			c-0.1-1.1-0.2-2.2-0.3-3.3c-0.1,0-0.2,0-0.3,0C152.2,146.3,153.6,149.5,153.8,152.8z M220.7,131.1c-0.3-2.2-0.5-4.4-2-6.2
			C217.6,127.5,219.4,129.2,220.7,131.1z M138,173.1c0.1,0,0.3,0,0.4-0.1c0-2.6,0.5-5.2-1.4-7.5C137.3,168.1,137.7,170.6,138,173.1z
			 M113.4,144.7c-0.1,3.3,2.2,5.5,3.7,8.1c0.1-0.1,0.2-0.1,0.3-0.2C116.1,150,114.7,147.4,113.4,144.7z M159.7,125
			c-0.1,0-0.2,0-0.3,0c-0.1,1.4-0.1,2.9-0.2,4.4c1.4-0.2,2.6-0.4,3.8-0.7c0.2,0,0.4-0.4,0.4-0.7c0-0.5-0.1-0.9-0.2-1.4
			c-0.4,0.5-0.5,1.2-0.8,1.5c-0.4,0.4-1.1,0.6-1.7,0.7c-0.7,0.1-0.5-0.6-0.5-1.1C160,126.9,159.9,126,159.7,125z M180.1,221.2
			c0.1-0.1,0.2-0.1,0.3-0.2c-1.2-2.2-2.5-4.4-3.7-6.6c-0.1,0.1-0.3,0.1-0.4,0.2c0.2,0.8,0.3,1.7,0.7,2.4c0.6,1.1,1.5,2.1,2.3,3.1
			C179.5,220.5,179.8,220.9,180.1,221.2z M206.2,163.5c-0.8-3-3-5.2-4.5-7.8C202.6,158.7,204.7,161,206.2,163.5z M83.2,186.8
			c-0.1,0.1-0.2,0.1-0.2,0.2c1.2,2.4,2.4,4.9,3.7,7.3C86.6,191.2,85,189,83.2,186.8z M212.7,138.9c0.1,0,0.2-0.1,0.3-0.1
			c-0.2-0.9-0.3-1.8-0.5-2.6c0-0.1-0.2-0.1-0.2-0.2c-0.4-0.5-0.8-1-1.1-1.5c-0.4-0.6-0.6-1.2-1-2
			C209.6,135.4,211.8,136.9,212.7,138.9z M130.2,139.6c0-2.8-1.8-4.8-2.9-7.1C127.2,135.3,129.2,137.2,130.2,139.6z M242.5,106.8
			c0.4,1.7,1.2,3.1,2.1,4.7c0.4-1.1,0.7-1.9,0.9-2.7c-0.1,0.1-0.2,0.2-0.3,0.3C244.4,108.3,243.5,107.6,242.5,106.8z M104.9,184.6
			c-0.1,0-0.2,0.1-0.3,0.1c1,2.4,2,4.9,3,7.3c0.1,0,0.2-0.1,0.3-0.1C107.4,189.2,106.6,186.7,104.9,184.6z M177.4,92.6
			c-0.1,0-0.3,0-0.4,0c0,0.3-0.1,0.6-0.1,0.8c0,0.5,0.1,1.1,0.2,1.6c0.3,2.2,0.5,4.4,0.8,6.6c0,0.2,0.2,0.3,0.3,0.5
			c0.1,0,0.1-0.1,0.2-0.1C178,98.9,177.7,95.7,177.4,92.6z M83.2,154.1c0.1,0,0.1-0.1,0.2-0.1c0-1.9,0.1-3.7,0.1-5.9
			c-0.6,1.2-1.1,2.1-1.5,3c-0.1,0.2-0.1,0.6,0,0.8C82.3,152.8,82.8,153.4,83.2,154.1z M174.5,103c-0.3,3.2,0,6.4,1,9.4
			c0.1,0,0.2,0,0.3,0C175.4,109.3,174.9,106.1,174.5,103z M187.3,105.1c-0.1,0-0.2,0.1-0.2,0.1c0.7,2.9,1.3,5.8,2,8.7
			c0.1,0,0.2,0,0.3-0.1C189.3,111.9,187.9,105.6,187.3,105.1z M212.1,172.3c0.2-1-2.9-6.1-3.6-6.2
			C208.9,168.7,211.1,170.2,212.1,172.3z M206.4,154.8c0,1.6,1.9,4.9,4.1,7.3c0-0.1,0.1-0.2,0-0.3c-0.8-0.9-0.4-2.4-1.6-3
			c-0.1,0-0.1-0.2-0.1-0.2C208,157.4,207.3,156.2,206.4,154.8z M225.7,179.5c-0.1,0-0.2,0.1-0.2,0.1c0.4,1.6,0.8,3.1,1.3,4.7
			c0.1,0,0.2,0,0.2-0.1c0.3-0.8,0.7-1.6,0.9-2.1C227.1,181.1,226.4,180.3,225.7,179.5z M112.3,152.7c0.1-0.1,0.3-0.2,0.4-0.2
			c-1.2-2.2-2.4-4.4-3.7-6.7C108.8,148.8,111.2,150.4,112.3,152.7z M138.7,112c0.1,0,0.2-0.1,0.4-0.1c-0.7-2-1.3-4-2-6
			C136.6,108.2,137.5,110.2,138.7,112z M68.8,200.6c-0.1,0-0.2,0.1-0.3,0.1c0.6,1.7,1.1,3.4,1.7,5c0.1,0,0.2-0.1,0.3-0.1
			C70.5,203.8,70.7,201.9,68.8,200.6z M114,108.7c-0.1,0-0.2,0-0.3,0c-0.5,2.5,0,6.5,1,7.3C114.5,113.5,114.3,111.1,114,108.7z
			 M135,198.9c-0.8-2.8-1.7-5.5-2.5-8.3C132,191.5,134.1,198.3,135,198.9z M116.5,155.2c-0.1,0.1-0.3,0.1-0.4,0.2
			c1.1,2,2.1,4.1,3.2,6.1c0.1,0,0.2-0.1,0.2-0.1C119.4,158.9,117.5,157.3,116.5,155.2z M83.6,161.2c0.4-1.9-1.1-5.7-2.5-6.5
			C81.9,156.8,82.7,158.9,83.6,161.2z M177.3,199.6c0.1-0.1,0.2-0.1,0.3-0.2c-1.1-2.1-2.3-4.1-3.4-6.2c-0.1,0.1-0.2,0.1-0.3,0.2
			C174.5,195.7,176.1,197.5,177.3,199.6z M229.1,157.1c-0.1,0.1-0.2,0.1-0.4,0.2c0.8,1.6,1.5,3.2,2.3,4.8c0.1,0,0.2-0.1,0.4-0.1
			c-0.2-0.8,0.3-1.7-0.6-2.4C230,158.9,229.6,158,229.1,157.1z M191.8,209.3c0.1-0.1,0.2-0.1,0.3-0.2c-1.5-2.1-2.9-4.1-4.4-6.2
			C188.2,205.7,190.6,207,191.8,209.3z M142.9,103.2c0.9-2-0.3-4.3-1.7-5.2C141.7,99.8,142.3,101.4,142.9,103.2z M196.2,177.2
			c0.1-0.1,0.2-0.1,0.3-0.2c-0.5-2.3-2.3-3.9-3.3-6c-0.1,0.1-0.2,0.1-0.3,0.2C194,173.2,195.1,175.2,196.2,177.2z M195.8,184.9
			c-0.1,0.1-0.2,0.1-0.3,0.2c1.3,1.9,2.5,3.9,3.8,5.8c0.1-0.1,0.2-0.1,0.3-0.2C198.7,188.5,197.2,186.7,195.8,184.9z M109.1,132.2
			c0.1,0,0.2-0.1,0.3-0.1c0.2-2.2-1.3-3.7-2.2-5.4c-0.1,0.1-0.3,0.1-0.4,0.2C107.6,128.6,108.4,130.4,109.1,132.2z M156.8,95.5
			c-0.2,0.9-0.4,1.5-0.5,2.1c-0.3,1.4-0.1,1.9,1.4,2.7c-0.2-1.4-0.5-2.7-0.7-4C157,96.1,156.9,95.9,156.8,95.5z M115.8,184.9
			c0.1,0,0.2-0.1,0.4-0.1c-0.4-1.6-0.8-3.2-1.3-4.7c-0.1-0.2-0.6-0.3-0.9-0.5c0,0.1-0.1,0.1-0.1,0.2
			C114.6,181.5,115.2,183.2,115.8,184.9z M236.8,137c0.7-1.5-0.2-3.5-2.5-4.6C235.3,134.1,236.1,135.5,236.8,137z M217.2,178.9
			c0.1-0.1,0.2-0.2,0.4-0.2c-1.2-1.7-2.4-3.5-3.6-5.2c-0.1,0.1-0.2,0.1-0.2,0.2C214.4,175.7,216,177.2,217.2,178.9z M123,124.1
			c0.1,2,0.7,3.7,1.9,5.3C124.9,127.6,123.9,125.1,123,124.1z M168.8,204.8c-0.4-1.1-0.7-2.2-1.1-3.3c-0.8,1.4-1.1,2.3-0.8,2.9
			C167.5,204.6,168.1,204.7,168.8,204.8z M82.3,173.9c0.1,0,0.2-0.1,0.3-0.1c-0.8-1.9-0.9-4.1-2.4-5.7c-0.1,0-0.2,0.1-0.3,0.1
			C80.7,170,81.5,172,82.3,173.9z M239.4,118.3c-0.3,1.8,0.3,3.3,1.7,4.3c0.1,0,0.2-0.1,0.2-0.1
			C240.7,121.1,240.1,119.7,239.4,118.3z M90.7,153c0.1,0,0.2-0.1,0.3-0.1c0-1.7-0.6-3.2-1.7-4.5c-0.1,0-0.2,0.1-0.3,0.1
			C89.5,150,90.1,151.5,90.7,153z M212.3,180.9c-0.1,0.1-0.2,0.1-0.3,0.2c0.9,1.3,1.7,2.6,2.6,3.9
			C214.8,183,213.3,182.1,212.3,180.9z M115.9,124c0.1-1.9-1.1-3.1-1.6-4.7C114.1,120.3,115,123,115.9,124z M202.4,179.2
			c-0.1,0-0.2,0.1-0.3,0.1c0.3,0.4,0.5,0.9,0.8,1.3c0.5,0.7,1,1.3,1.5,2c0.2,0.3,0.5,0.6,0.7,0.9c0.1-0.1,0.1-0.1,0.2-0.2
			C204.8,181.7,203.3,180.6,202.4,179.2z M95.9,178.9c-0.1,0-0.2,0.1-0.3,0.1c0.5,1.4,1,2.9,1.5,4.3c0.1,0,0.2-0.1,0.3-0.1
			C97,181.7,97.1,180.1,95.9,178.9z M171.9,104.8c0,1.7-0.2,3.3,0.4,5C172.7,108.1,172.2,106.5,171.9,104.8z M215.5,141.6
			c-0.1,0.1-0.2,0.1-0.3,0.2c0.6,1.7,1.8,3.1,2.9,4.5c0.1-0.1,0.2-0.1,0.3-0.2C217.4,144.6,216.4,143.1,215.5,141.6z M59.3,216
			c-1.7,0.6-3.4,1.1-5,1.7c0,0.1,0.1,0.1,0.1,0.2C56.3,217.9,57.8,217,59.3,216z M87.7,196c-1.1,1.8,0.3,2.8,0.7,4
			c0.1,0,0.2,0,0.2-0.1C88.3,198.7,88,197.4,87.7,196z M111.6,123.2c0.5,1.3,1.1,2.6,1.7,4C113.6,126.2,112.7,123.9,111.6,123.2z
			 M152.3,155.1c0.1,0,0.2,0,0.4-0.1c-0.2-1.2-0.4-2.5-0.6-3.7c-0.1,0-0.2,0-0.4,0.1C151.8,152.6,152.1,153.8,152.3,155.1z
			 M212.2,147.3c0.1-0.1,0.2-0.1,0.3-0.2c-0.7-1.1-1.3-2.3-2-3.4c-0.1,0.1-0.3,0.2-0.4,0.2C210.8,145.1,211.5,146.2,212.2,147.3z
			 M230.6,122.9c-0.1-1.2,0.2-2.5-0.5-3.6C230.1,120.5,229.7,121.8,230.6,122.9z M168.7,211.3c-0.5-1.1-1.1-2.1-1.6-3.2
			C166.8,209.6,167.7,210.5,168.7,211.3z M192.2,135.6c0.7-1,0.4-2.1-0.9-3.2C191.6,133.5,191.9,134.5,192.2,135.6z M157.8,192.9
			c0.5-1.2,0-3.1-0.6-3.4C157.4,190.6,157.6,191.7,157.8,192.9z M95.4,166.8c0.1-0.1,0.3-0.2,0.4-0.2c-0.5-1-1.1-2-1.6-3.1
			c-0.1,0.1-0.2,0.1-0.4,0.2C94.3,164.7,94.9,165.7,95.4,166.8z M190.9,141.8c0.7-1.8,0.5-2.3-0.9-2.5
			C190.3,140,190.6,140.8,190.9,141.8z M235.7,164.6c1.2-1,1.1-2.6,1.7-3.8c-0.1,0-0.2-0.1-0.3-0.1
			C236.7,162,236.2,163.3,235.7,164.6z M199.8,187.2c0.6,0.9,1.3,1.7,1.9,2.6C201.9,189.2,200.5,187.2,199.8,187.2z M138.2,125.3
			c0.1,0,0.2-0.1,0.3-0.1c0.1-1.1-0.7-1.7-1.2-2.5c-0.1,0.1-0.2,0.1-0.3,0.2C137.4,123.6,137.8,124.4,138.2,125.3z M81,202.4
			c0.2,0.4,0.3,0.8,0.5,1.1c0.1,0.1,0.3,0.3,0.4,0.2c0.1,0,0.3-0.3,0.3-0.4c0-0.5-0.1-0.9-0.1-1.5C81.7,202.1,81.4,202.2,81,202.4z
			 M167.8,93.1c-0.3,0.3-0.8,0.8-1.5,1.4C167.9,94.8,167.7,94.3,167.8,93.1z M120.8,121.1c0.1,0,0.2,0,0.2-0.1
			c0.1-1-0.4-1.8-0.9-2.6c-0.1,0-0.2,0.1-0.3,0.1C120.1,119.4,120.4,120.3,120.8,121.1z M221.5,168.5c-0.1,0.1-0.2,0.1-0.3,0.2
			c0.3,0.6,0.7,1.3,1,1.9C222.7,169.5,222.2,169,221.5,168.5z M227,191.4c-0.1-0.1-0.3-0.1-0.4-0.2c-0.3,0.9-0.7,1.8-1,2.7
			c0.1,0,0.2,0.1,0.3,0.1C226.3,193.2,226.7,192.3,227,191.4z M191.8,130.3c0.1,0,0.2-0.1,0.3-0.1c0-0.4,0-0.9-0.1-1.3
			c0-0.2-0.3-0.3-0.5-0.5c-0.1,0.2-0.3,0.4-0.3,0.6C191.4,129.4,191.7,129.9,191.8,130.3z M175.9,183.7c-0.3,0.8-0.6,1.3-0.9,2.1
			c0.6-0.3,1.1-0.5,1.6-0.7c-0.1-0.2-0.2-0.4-0.3-0.6C176.1,184.3,176.1,184.2,175.9,183.7z M79.3,197.4c-0.2,1,0.2,1.9,1.1,2.3
			C80,198.9,79.6,198.1,79.3,197.4z M162.3,189.1c-0.1,0-0.2,0.1-0.4,0.1c0.3,0.9,0.6,1.7,0.8,2.6c0.1,0,0.2-0.1,0.4-0.1
			C162.9,190.8,162.6,190,162.3,189.1z M180.1,147.4c-0.1-0.4-0.1-0.8-0.2-1.2c-1.7,0.1-1.7,0.1-1.8,0.8
			C179,146.3,179.6,146.5,180.1,147.4z M148,154c-0.1,0-0.1,0-0.2,0c0.1,0.8,0.3,1.6,0.4,2.3c0.1,0,0.1,0,0.2,0
			C148.3,155.5,148.1,154.8,148,154z M218.9,181.3c0.1-0.1,0.2-0.2,0.3-0.2c-0.4-0.6-0.8-1.2-1.3-1.8c-0.1,0.1-0.2,0.1-0.3,0.2
			C218.1,180.1,218.5,180.7,218.9,181.3z M167.2,214.4c-0.1,1.1,0.2,1.7,1.2,2.1C167.9,215.8,167.6,215.2,167.2,214.4z M231.4,131.6
			c0.1-0.1,0.2-0.1,0.3-0.2c-0.3-0.6-0.6-1.2-0.9-1.9c-0.1,0.1-0.2,0.1-0.4,0.2C230.8,130.4,231.1,131,231.4,131.6z M237.6,159
			c0.1,0,0.2,0,0.3,0.1c0.3-0.8,0.6-1.6,0.9-2.4c-0.1,0-0.2-0.1-0.3-0.1C238.2,157.3,237.9,158.2,237.6,159z M92.1,148.3
			c-0.1,0-0.3,0.1-0.4,0.1c0.2,0.6,0.4,1.2,0.6,1.8c0.1,0,0.2-0.1,0.4-0.1C92.5,149.4,92.3,148.9,92.1,148.3z M247.3,135.2
			c0.1,0.1,0.2,0.1,0.4,0.2c0.3-0.6,0.5-1.3,0.8-1.9c-0.1,0-0.2-0.1-0.3-0.1C247.8,134,247.5,134.6,247.3,135.2z M239.9,129.7
			c0.1,0,0.2-0.1,0.3-0.1c-0.3-0.6-0.6-1.2-0.9-1.8c-0.1,0.1-0.2,0.1-0.4,0.2C239.3,128.5,239.6,129.1,239.9,129.7z M194.1,183.3
			c0.1-0.1,0.2-0.2,0.3-0.2c-0.4-0.6-0.7-1.1-1.1-1.7c-0.1,0-0.2,0.1-0.2,0.1C193.4,182.1,193.7,182.7,194.1,183.3z M142.6,113.3
			c-0.3,1.1-0.1,1.5,0.6,1.6C143.1,114.3,142.8,113.8,142.6,113.3z M249,130.2c0.1,0,0.2,0.1,0.3,0.1c0.3-0.6,0.5-1.3,0.8-1.9
			c-0.1,0-0.2-0.1-0.3-0.1C249.5,128.9,249.2,129.6,249,130.2z M187.7,123.8c-0.1,0-0.1,0-0.2,0c0.1,0.6,0.2,1.3,0.3,1.9
			c0.1,0,0.1,0,0.2,0C187.9,125,187.8,124.4,187.7,123.8z M212.5,164.7c-0.4,0.7,0,1.2,1,1.6C213.1,165.7,212.8,165.2,212.5,164.7z
			 M187.6,117.2c-0.1,0-0.1,0-0.2,0c0,0.7,0,1.5,0,2.2c0.1,0,0.2,0,0.3,0C187.7,118.6,187.7,117.9,187.6,117.2z M251,125.5
			c-0.1,0-0.2-0.1-0.3-0.1c-0.2,0.6-0.4,1.1-0.6,1.7c0.1,0,0.2,0.1,0.3,0.1C250.6,126.6,250.8,126.1,251,125.5z M167.5,223.3
			c-0.1,0-0.2,0.1-0.3,0.1c0.3,0.5,0.6,1,0.8,1.4c0.1-0.1,0.2-0.1,0.3-0.2C168,224.2,167.8,223.7,167.5,223.3z M174.6,217
			c-0.1,0-0.1,0.1-0.2,0.1c0.3,0.6,0.5,1.1,0.8,1.7c0.1-0.1,0.2-0.1,0.3-0.2C175.2,218.1,174.9,217.6,174.6,217z M188.2,127.1
			c-0.1,0-0.1,0-0.2,0c0.1,0.7,0.2,1.4,0.4,2.1c0.1,0,0.1,0,0.2,0C188.4,128.5,188.3,127.8,188.2,127.1z M174.7,162.1
			c-0.1,0-0.1,0-0.2,0c0.1,0.6,0.2,1.2,0.3,1.8c0.1,0,0.2,0,0.3-0.1C175,163.3,174.8,162.7,174.7,162.1z M91.3,132.7
			c-1,0.5-1.1,0.8-0.5,1.3C90.9,133.7,91.1,133.3,91.3,132.7z M194.2,114c-0.1,0-0.1,0-0.2,0c0.1,0.8,0.3,1.6,0.4,2.4
			c0,0,0.1,0,0.1,0C194.4,115.6,194.3,114.8,194.2,114z M174.9,186.4c-0.1,0-0.2,0-0.4,0c0,0.3,0,0.6-0.1,0.9c0.2,0,0.4,0,0.6,0
			C175,187,175,186.7,174.9,186.4z"/>
		<path fill="#FFFFFF" d="M93.7,128.3C93.7,128.3,93.7,128.3,93.7,128.3L93.7,128.3z"/>
		<path fill="#FFFFFF" d="M91.8,131.8L91.8,131.8L91.8,131.8z"/>
		<path fill="#FFFFFF" d="M91.7,131.8C91.7,131.8,91.8,131.8,91.7,131.8C91.8,131.8,91.7,131.8,91.7,131.8z"/>
	</g>
</g>
</svg>
