<?xml version="1.0" encoding="utf-8"?>
<!-- Generator: Adobe Illustrator 16.0.0, SVG Export Plug-In . SVG Version: 6.00 Build 0)  -->
<!DOCTYPE svg PUBLIC "-//W3C//DTD SVG 1.1//EN" "http://www.w3.org/Graphics/SVG/1.1/DTD/svg11.dtd">
<svg version="1.1" id="Calque_1" xmlns="http://www.w3.org/2000/svg" xmlns:xlink="http://www.w3.org/1999/xlink" x="0px" y="0px"
	 width="691.466px" height="670.466px" viewBox="-7.254 -26.442 691.466 670.466"
	 enable-background="new -7.254 -26.442 691.466 670.466" xml:space="preserve">
<path fill="#4B505C" stroke="#4B505C" stroke-width="9" stroke-miterlimit="10" d="M648.937-12.586L493.681,47.208
	c-5.252,2.108-11.537,5.25-16.783,7.34l23.089,32.522c2.088-1.054,5.232-2.108,7.34-3.144L662.58,24.134L648.937-12.586z"/>
<path fill="#4B505C" stroke="#4B505C" stroke-width="9" stroke-miterlimit="10" d="M469.549,116.432l-32.524-23.074
	c-3.143,6.304-6.294,11.537-9.437,17.841l37.764,12.574C466.407,121.683,468.503,118.539,469.549,116.432z"/>
<path fill="#4B505C" stroke="#4B505C" stroke-width="9" stroke-miterlimit="10" d="M446.485,79.712l32.51,23.094
	c2.114-2.108,4.202-4.198,6.311-6.306l-23.089-32.521C456.967,68.194,451.715,73.426,446.485,79.712z"/>
<polygon fill="#4B505C" stroke="#4B505C" stroke-width="9" stroke-miterlimit="10" points="422.346,126.933 460.119,139.524 
	371.41,440.914 329.557,440.914 "/>
<path fill="#4B505C" stroke="#4B505C" stroke-width="9" stroke-miterlimit="10" d="M421.658,631.774H223.23
	c-5.804,0-10.864-4.043-12.104-9.724l-99.213-446.46c-0.818-3.671,0.075-7.491,2.431-10.442c2.356-2.927,5.903-4.639,9.673-4.639
	h396.854c3.77,0,7.316,1.712,9.674,4.639c2.355,2.951,3.248,6.771,2.43,10.442l-99.213,446.46
	C432.496,627.731,427.46,631.774,421.658,631.774z M233.176,606.97H411.71l93.682-421.657H139.469L233.176,606.97z"/>
<path fill="#4B505C" stroke="#4B505C" stroke-width="9" stroke-miterlimit="10" d="M483.666,309.33H161.222
	c-6.846,0-12.401-5.556-12.401-12.401s5.556-12.401,12.401-12.401h322.444c6.846,0,12.402,5.556,12.402,12.401
	S490.511,309.33,483.666,309.33z"/>
<path fill="#4B505C" stroke="#4B505C" stroke-width="9" stroke-miterlimit="10" d="M146.563,284.527c-0.149,0-0.322-0.025-0.496,0
	h-22.05c-61.562,0-111.615-50.078-111.615-111.615S62.455,61.297,124.017,61.297s111.615,50.078,111.615,111.615
	c0,6.846-5.556,12.401-12.402,12.401h-83.761l17.982,80.859c0.967,1.785,1.513,3.795,1.513,5.952
	C158.965,278.97,153.384,284.527,146.563,284.527z M124.017,86.1c-47.87,0-86.812,38.94-86.812,86.812
	c0,47.87,38.941,86.812,86.812,86.812h6.598l-18.702-84.133c-0.818-3.671,0.075-7.491,2.431-10.442
	c2.356-2.927,5.903-4.639,9.673-4.639h85.919C203.908,118.493,167.67,86.1,124.017,86.1z"/>
</svg>
