<?xml version="1.0" encoding="utf-8"?>
<!-- Generator: Adobe Illustrator 18.0.0, SVG Export Plug-In . SVG Version: 6.00 Build 0)  -->
<!DOCTYPE svg PUBLIC "-//W3C//DTD SVG 1.1//EN" "http://www.w3.org/Graphics/SVG/1.1/DTD/svg11.dtd">
<svg version="1.1" id="Calque_1" xmlns="http://www.w3.org/2000/svg" xmlns:xlink="http://www.w3.org/1999/xlink" x="0px" y="0px"
	 viewBox="0 0 51.2 59.7" enable-background="new 0 0 51.2 59.7" xml:space="preserve">
<g>
	<path fill="#4B505C" d="M50,48.4L36.6,28.5c-1.7-2.7-2.5-5.9-2.5-9.4c0,0,0-9.8,0-12.4s1.7-4.4,2-5.6C36.4,0,36.1,0,34,0H17.1
		C15,0,14.7,0,15,1.1c0.3,1.2,2,3.1,2,5.7s0,12.3,0,12.3c0,3.4-1,6.6-2.7,9.4L7.7,38.7l-6.5,9.7C0.4,49.6,0,51.1,0,52.7
		c0,3.7,2.2,7,8.4,7h34.3c6.3,0,8.4-3.3,8.4-7C51.2,51.1,50.7,49.6,50,48.4z M46,54.4c-0.6,0.6-1.5,1-3.3,1H8.4
		c-1.7,0-2.8-0.5-3.4-1c-0.4-0.3-0.8-0.9-0.8-1.8c0-0.7,0.2-1.3,0.5-1.9l13.2-20c2.1-3.4,3.3-7.4,3.3-11.6V4.3h8.5v14.8
		c0,4.2,1,8.2,3.2,11.6l13.4,20c0.3,0.5,0.5,1.2,0.5,1.9C46.9,53.4,46.4,54.1,46,54.4z"/>
	<path fill="#4B505C" d="M43.3,50.5C43.4,50.5,43.4,50.5,43.3,50.5L32.4,34.1H18.6L7.8,50.5c-0.2,0.3-0.3,0.7-0.3,1.1
		c0,1,0.8,1.8,1.8,1.8h32.5c1,0,1.8-0.9,1.8-1.9C43.7,51.2,43.5,50.7,43.3,50.5z M31.7,41.2c-0.2-0.2-0.3-0.5-0.3-0.8
		s0.1-0.6,0.3-0.8c0.2-0.2,0.5-0.3,0.7-0.3c0.3,0,0.6,0.1,0.7,0.3c0.2,0.2,0.3,0.5,0.3,0.8s-0.1,0.6-0.3,0.8
		c-0.2,0.2-0.5,0.3-0.7,0.3C32.2,41.5,31.9,41.4,31.7,41.2z M38,49.1c-0.2,0.1-0.4,0.2-0.6,0.2c-0.3,0-0.7-0.2-0.9-0.5L33.4,44
		c-0.3-0.5-0.2-1.2,0.3-1.5c0.2-0.1,0.4-0.2,0.6-0.2c0.3,0,0.7,0.2,0.9,0.5l3.1,4.8C38.6,48.1,38.5,48.8,38,49.1z"/>
</g>
</svg>
