<?xml version="1.0" encoding="utf-8"?>
<!-- Generator: Adobe Illustrator 18.0.0, SVG Export Plug-In . SVG Version: 6.00 Build 0)  -->
<!DOCTYPE svg PUBLIC "-//W3C//DTD SVG 1.1//EN" "http://www.w3.org/Graphics/SVG/1.1/DTD/svg11.dtd">
<svg version="1.1" id="Calque_1" xmlns="http://www.w3.org/2000/svg" xmlns:xlink="http://www.w3.org/1999/xlink" x="0px" y="0px"
	 viewBox="0 0 54.1 28.8" enable-background="new 0 0 54.1 28.8" xml:space="preserve">
<g>
	<path fill="#4B505C" d="M0.4,3.1l24.8,24.9c1.1,1,2.3,1.2,3.4,0L50.5,6.2v6.5c0,1,0.9,1.8,1.8,1.8c1,0,1.8-0.8,1.8-1.8V1.8
		c0-1-0.9-1.8-1.8-1.8H41.4c-1.1,0-2,1.1-2,1.9c0,1,1,1.8,2,1.7h6.5L27,24.5L3,0.5c0,0-1.1-1.1-2.3,0C-0.6,1.6,0.4,3.1,0.4,3.1
		L0.4,3.1z"/>
</g>
</svg>
