<?xml version="1.0" encoding="utf-8"?>
<!-- Generator: Adobe Illustrator 18.0.0, SVG Export Plug-In . SVG Version: 6.00 Build 0)  -->
<!DOCTYPE svg PUBLIC "-//W3C//DTD SVG 1.1//EN" "http://www.w3.org/Graphics/SVG/1.1/DTD/svg11.dtd">
<svg version="1.1" id="Calque_1" xmlns="http://www.w3.org/2000/svg" xmlns:xlink="http://www.w3.org/1999/xlink" x="0px" y="0px"
	 viewBox="0 0 313.2 313.2" enable-background="new 0 0 313.2 313.2" xml:space="preserve">
<circle fill="#5E636D" cx="156.6" cy="156.6" r="156.6"/>
<g id="_x31_hNxHm_1_">
	<g>
		<path fill="#FFFFFF" d="M70.8,90.4c-4.3-2.1-7.6-5.5-11.1-8.5c-3.1-2.7-2.6-8.5,1-10.2c2-1,4.2-2.3,6.7-1c2.3,1.3,4.9,2.3,7.1,3.7
			c4.4,2.8,4.7,2.8,9,5.8c3.4,2.4,6.7,5.1,10.1,7.6c4.1,3,8.3,6,12.4,9c5.1,3.8,10,7.9,15.3,11.4c6,4,12.3,7.6,17.3,13
			c0.9,1,2.3,1.6,3.4,2.5c2.1,1.7,4.3,3.2,6.3,5.1c3.9,3.6,7.6,7.5,11.7,10.8c7,5.7,14.2,11.1,21.4,16.6c1,0.7,2,1.3,2.9,2.1
			c1.9,1.8,3.4,4.1,5.6,5.4c3.1,1.9,5.8,4.1,8.2,6.8c2,2.2,4.4,2.5,7.2,1.3c2.1-0.9,4.2-1.7,6.3-2.5c3.7-1.4,7.7-2.7,11.5-1.6
			c4.5,1.3,9.3,2.1,13.3,4.9c2.8,2,6,3.7,8.8,5.7c1.8,1.2,3.6,2.6,4.8,4.3c4.1,6,6.2,12.9,6.9,20.1c0.5,5.3,0.2,10.5-2.8,15.1
			c-0.7,1.1-1.7,1.9-2.5,2.8c-3.5,4-6.8,8.2-10.4,12.1c-3.9,4.3-9.1,6.5-14.4,8.4c-4.8,1.8-10.1,2.6-15,1.1c-4.4-1.4-8.9-2.6-13-5.2
			c-4.6-2.9-9.4-5.5-13.5-9.2c-2.2-2-4.4-4-5.4-6.7c-1.7-4.6-3.3-9.3-4.2-14.1c-0.6-3.2-0.1-6.7,0.5-9.9c0.8-5,4.4-8.7,6.8-13
			c1-1.7,0.5-2.7-0.7-3.7c-2.2-1.7-4.4-3.4-6.5-5.2c-5-4.3-9.9-8.6-14.9-12.9c-3.1-2.7-6.3-5.3-9.5-7.8c-4-3.1-8.1-6.2-12.2-9.2
			c-1.9-1.4-4-2.5-5.8-4c-4.7-3.9-8.8-8.4-14.3-11.2c-1.2-0.6-2.2-0.8-3.6,0.1c-2.3,1.6-4.9,2.5-6.6,5.1c-1.5,2.1-3.8,3.8-5.9,5.4
			c-1.7,1.4-3.6,2.7-5.6,3.5c-2.3,0.9-4.2,0.3-6.6-1.3c-2.9-2-4.5-4.8-6.4-7.4c-0.4-0.6-0.1-2.2,0.4-2.9c2.8-3.5,5.8-6.8,8.7-10.2
			c1.6-1.8,1.6-3.1-0.1-4.7c-1.6-1.5-3-1.2-4.4,0.4c-0.4,0.5-0.8,0.9-1.2,1.4c-2.3,2.8-4.4,5.9-7,8.5c-3.2,3.1-7.3,2.5-9.6-1.2
			c-0.5-0.7-1-1.4-1.6-1.9c-3.6-3.3-7.2-6.7-10.9-9.9c-2.7-2.3-3.4-7.8-0.9-10.4c3.6-3.8,7.4-7.4,11-11.1c0.9-0.9,1.5-2.1,2.1-3
			C69.2,89.4,72.2,91,70.8,90.4z M222.9,193.7c-1.4-0.5-3.1-0.4-4.6-0.2c-2.6,0.5-5.2,1.2-7.2,3.2c-0.5,0.5-1.7,0.2-2.5,0.4
			c-2.4,0.6-3.9,2.3-5,4.3c-0.7,1.2-1.2,2.5-2.1,3.5c-3.8,4.2-1.4,10,1.7,13.3c4.5,4.5,10.3,6.1,16.3,7c3.9,0.6,7.1-1.8,9.9-4.2
			c1.7-1.4,3.1-3.2,4.4-5c2.1-2.9,1.3-6.1,0.6-10C232,201.2,229.2,195.8,222.9,193.7z M123.1,119.1c0.2,0.3,1,0.6,1.2,0.5
			c2.1-1.1,3.4,0.1,4.5,1.5c1.7,2.2,3.3,4.6,4.9,6.9c3.3-1.7,4.4-1.4,6.3,2c1.3,2.3,2.6,4.8,3.6,6.7c1.2-1.2,2.3-2.4,3.6-3.8
			c-8.8-6.9-18-14-27.1-21.2c-0.2,0.2-0.4,0.5-0.6,0.7C120.7,114.7,121.9,116.9,123.1,119.1z M204.3,190.9c0.5,3.4-0.2,4.2-3.3,5.7
			c-0.8,0.4-0.8,2.1-1.2,3.3c0.2,0.1,0.5,0.2,0.7,0.3c1-1.3,2.1-2.6,3.1-3.8c0.5-0.6,1-1.2,1.6-1.5c3.1-1.5,6.3-3,9.5-4.3
			c1.9-0.8,4-1.1,6.2-1.7c-1.2-2.6-2.4-5.1-3.9-8.3c0.1,2.3,0,4,0.2,5.6c0.3,2.6-2,2.3-3.2,3c-1.4,0.8-1.7-0.7-2.1-1.6
			c-0.6-1.8-1.1-3.6-1.6-5.4c-0.1-0.4-0.4-0.8-1-1.1c0.1,2.1,0.4,4.3,0.4,6.4c0,1.1-0.4,2.5-1.2,3.2c-2,1.8-2.6,1.5-4.6-1.5
			C204,189.7,204.2,190.3,204.3,190.9z M239,217.9c1-0.5,2.5-1.9,2.3-2.4c-0.5-1.5,0.5-3.8-2-4.3c-0.1,0-0.2-0.2-0.3-0.6
			c-1.4,8.7-7.7,13.1-14.2,17.3c0.7,0.8,1.3,1.4,2,2.1c0.1-1.1,0.1-1.9,0.2-2.9c3.3-0.9,6.6-1.7,9.9-2.6
			C236.1,220.9,236.1,219.5,239,217.9z M233.8,232.8c0.3,1.3,0.8,2.2,2.1,0.8c2.9-3.1,5.9-6.3,8.9-9.4c0.8-0.9,1.7-1.7,2.5-2.6
			c-1.3-0.1-2.7-0.2-4.1-0.4c0-0.1,0-0.3,0-0.4c-0.9,0.1-1.8,0.2-2.6,0.5c-0.4,0.1-0.7,0.8-0.8,1.3c-0.1,1.2,0.1,2.5,0,3.8
			c-0.1,1.6-2.3,3.8-3.8,3.6c-0.5,0-1-0.7-1.5-1c-0.3-0.2-0.7-0.5-1.6-1.1C233.3,230,233.5,231.4,233.8,232.8z M90.7,138.3
			c1.2-2.9-1.8-7.1,3.6-7.2c-0.2-2,0-3.9,2.3-4.3c0.9-0.2,2,0.5,2.9,0.8c-0.5-1.8-1.1-4-1.6-6.3c-3.4,4-6.9,8.1-10.4,12.3
			C88.5,135.1,89.5,136.5,90.7,138.3z M117.4,110.5c-4-2.8-7.9-5.6-11.7-8.2c0.4,1.6,0.8,3.3,1.3,5c0.1,0.2,0.4,0.5,0.6,0.5
			c3,0.7,3.4,3.5,4.8,5.6c0.6,0.9,0.9,1.9,1.4,2.8C113.9,112.9,113.9,112.9,117.4,110.5z M188.8,188.1c-0.3-1.4,0.2-1.9,1.4-2.1
			c0.4-0.1,1-0.6,0.9-0.8c-0.8-3.2-1.6-6.4-2.7-9.5c-1.8,3.9,0.1,8.7-4.3,11.7c0.2,0.1,0.4,0.3,0.6,0.4c0.8,0.1,1.5,0.1,2.4,0.2
			c0.5,1.5,1.1,3,1.6,4.5c0.1,0,0.2-0.1,0.4-0.1C189,190.9,189.1,189.4,188.8,188.1z M103.7,132.2c0-0.1-1.1-0.1-1.5,0.1
			c-1.1,0.5-2.2,1.1-3.2,1.7c-0.4,0.2-0.7,0.8-0.7,1.2c0.2,1.7,0.6,3.4,0.9,5.4c2.8-2.5,5.4-4.9,8-7.2
			C105.7,133.5,104.4,134.4,103.7,132.2z M179.3,198c-0.2,0.4,0,1,0.1,1.5c0.4-0.2,0.9-0.3,1.3-0.5c2.2-1.5,3.7-1.1,5.7,1.6
			c-0.6-1.7-1.1-3.4-1.7-5.1c-0.6-1.6-1.1-3.3-1.7-4.9c-0.2-0.1-0.5-0.1-0.7-0.2C181.3,192.9,180.3,195.4,179.3,198z M66.5,76.5
			c0.4,0,0.7,1.2,1.1,2.1c1.1-0.4,2.2-0.9,3.5-1.4c0.9,1.2,1,0.7,1.7,2c1,1.7,1.8,0.9,2.9-0.4c-2.4-1.4-3.8-1.2-6.2-2.5
			c-1.4-0.7-2.9-1.4-4.4-1.8c-1-0.3-2.2-0.2-3.3,0c-1.5,0.2-1.5,1.3-1.2,2.1C62.8,76.6,64.7,76.4,66.5,76.5z M93.6,100.7
			c0.2-0.1,0.3-0.2,0.5-0.2c-0.2-0.9-0.3-1.9-0.7-2.7c-1.3-2.1-1.2-3.6,1.5-4.3c-2.6-1.9-5-3.5-7.9-5.6
			C89.3,92.5,91.4,96.6,93.6,100.7z M157.2,154.3c1.4,1.3,3.4,3.2,5.4,5c0.2-0.2,0.3-0.3,0.5-0.5c-1.6-3.4-3.1-6.8-4.7-10.3
			c-0.1,0.1-0.3,0.2-0.4,0.3C157.7,150.5,157.5,152.2,157.2,154.3z M249.2,192.2c1.1,5.5,2.1,11,3.2,16.5c0.2,0,0.5-0.1,0.7-0.1
			C253.3,202.8,252,197.3,249.2,192.2z M175.2,169.5c2.1,1.9,4.1,3.7,6.1,5.5c0.2-0.1,0.4-0.2,0.6-0.3c-1.1-2.5-2.1-4.9-3.2-7.4
			C177.4,168.1,176.3,168.8,175.2,169.5z M232,174.9c-2.1-0.7-4-1.4-5.9-1.9c-0.2-0.1-0.9,0.7-0.8,0.8c0.8,2.4,1.8,4.9,2.7,7.3
			C228.2,176.2,228.2,176.2,232,174.9z M166.4,161.6c1.8,1.6,3.6,3.1,5.3,4.6c0.1-0.1,0.3-0.2,0.4-0.3c-1.3-3.1-2.6-6.2-3.8-9.3
			C168.4,159.7,168.2,160.4,166.4,161.6z M135.6,137.4c0.8,2.6,3.6,2.8,5.2,4.3c0.2-0.1,0.4-0.2,0.6-0.4c-0.9-1.9-1.8-3.7-2.7-5.7
			C137.6,136.3,136.7,136.8,135.6,137.4z M220.9,178.4c-0.4-2.1-0.6-3.6-0.9-5c-0.1-0.7-0.4-2-0.6-2c-1-0.1-2.1,0.2-3.3,0.4
			C217.9,174.2,219.3,176.1,220.9,178.4z M129.4,128.7c-1.7,1.5-2.1,2.6,0,3.9c1.3,0.8,2.2,2.2,3.3,3.3c0.2-0.2,0.4-0.3,0.6-0.5
			C132,133.2,130.7,131,129.4,128.7z M78.8,82.4c1.1,2.5,1.9,4.3,2.8,6.3c1.2-1.1,2.1-2,2.8-2.7C82.7,84.9,81.1,83.9,78.8,82.4z
			 M77.8,122c1.4,2.6-1.7,3-2.4,4.6c2.5,0.5,5.6-1.7,6.6-4.8c-1.2,0.7-2.3,1.3-3.4,2C78.3,123,78.1,122.5,77.8,122z M198.3,181.3
			c0.4-1.9,0.7-3.4,1-5.2c-1.1-0.4-2.5-0.9-4.1-1.6C196.3,176.9,197.2,179,198.3,181.3z M150.6,136.7c-0.1,0-0.3,0.1-0.4,0.1
			c0.5,1.4,0.8,2.8,1.6,4.1c0.1,0.2,1.8-0.4,3.1-0.8C153,138.7,151.8,137.7,150.6,136.7z M225.1,238c0.1,0.1,0.1,0.3,0.2,0.4
			c1.5-0.7,3.1-1.2,4.6-2c0.2-0.1-0.2-1.3-0.4-2C227.8,235.9,226.5,236.9,225.1,238z M193.2,229.2c-1.1-2.1-2-4.1-3-6
			C190.5,225.5,189.9,228.3,193.2,229.2z M60.6,110.3c0.5-1.9,0.9-3.6,1.4-5.7C59.2,107.2,59,108.1,60.6,110.3z M193.8,172.9
			c-0.9-1.2-1.8-2.4-2.7-3.5C190.6,172,191.9,173.6,193.8,172.9z M113.7,123.5c-0.2,0-0.3,0.1-0.5,0.1c0.2,1.5,0.3,2.9,0.5,4.7
			c0.8-0.6,1.3-1,1.8-1.3C114.8,125.8,114.3,124.7,113.7,123.5z M122.7,127.7c-0.8-2-1.4-3.7-2-5.3c-0.2,0.1-0.4,0.2-0.6,0.3
			C121,124.2,119.6,126.7,122.7,127.7z M171.4,152.7c-0.2,0.1-0.5,0.2-0.7,0.4c0.7,1.2,1.3,2.5,2.2,4.1
			C174.2,154.4,171.8,154,171.4,152.7z M71.8,95.5c0.2,0.1,0.4,0.1,0.6,0.2c0.5-1,3.1-1.4,0.4-3.8C72.4,93.4,72.1,94.4,71.8,95.5z
			 M195.5,209.3c-0.9,0.7-1.4,1.1-2,1.5c0.6,0.9,1.2,1.8,2.1,3.1C195.6,212.1,195.5,210.9,195.5,209.3z"/>
	</g>
</g>
</svg>
