<?xml version="1.0" encoding="utf-8"?>
<!-- Generator: Adobe Illustrator 18.0.0, SVG Export Plug-In . SVG Version: 6.00 Build 0)  -->
<!DOCTYPE svg PUBLIC "-//W3C//DTD SVG 1.1//EN" "http://www.w3.org/Graphics/SVG/1.1/DTD/svg11.dtd">
<svg version="1.1" id="Calque_1" xmlns="http://www.w3.org/2000/svg" xmlns:xlink="http://www.w3.org/1999/xlink" x="0px" y="0px"
	 viewBox="0 0 313.2 313.2" enable-background="new 0 0 313.2 313.2" xml:space="preserve">
<circle fill="#5E636D" cx="156.6" cy="156.6" r="156.6"/>
<g id="P6n2vK_1_">
	<g>
		<path fill="#FFFFFF" d="M68.5,175.2c0.5-1.5,1.1-2.9,1.6-4.4c0.4-1.5,0.6-3.1,1.1-4.5c0.9-2.8,2-5.5,3.1-8.3
			c0.1-0.4,0.3-0.7,0.4-1.1c0.8-6.7,4.4-12.2,8.2-17.5c1.1-1.5,2.2-3,3.3-4.6c1-1.4,4.5-2.5,6.2-1.9c0.5,0.2,1,0.4,1.4,0.3
			c2.7-0.2,4.9,1.3,7.3,2.2c0.4,0.2,0.9,1.2,0.8,1.7c-0.2,0.8-0.7,1.6-1.3,2.2c-0.4,0.4-1.3,0.4-1.7,0.8c-2.6,2.9-5.5,5.6-7.1,9.3
			c-0.7,1.6-1.6,3.2-2.7,4.7c-2.8,4.1-3.1,8.9-4.3,13.5c-0.7,2.8-0.5,5.6-0.6,8.4c-0.3,5.2,0.6,10.3,1.5,15.3
			c1,5.7,3.3,10.8,5.9,15.8c2.7,5.1,6.9,8.8,11.3,12.3c2.1,1.7,4.6,2.9,7,4.2c3.1,1.7,6.2,3.5,9.5,4.7c2.9,1.1,6.1,1.8,9.2,2.3
			c3.5,0.6,7,1,10.5,1c5.3-0.1,10.6-0.9,15.8-2.3c2.1-0.5,4.3-0.7,6.4-1.3c3.5-0.9,7-1.7,10.3-3.4c4.1-2.1,8.5-3.6,12.7-5.6
			c5.2-2.5,10.3-5.2,14.5-9.4c0.2-0.2,0.4-0.5,0.7-0.7c3.7-1.6,6.1-4.9,9-7.6c2.6-2.4,4.4-5.7,6.6-8.6c3.6-5,6.3-10.4,8.4-16.2
			c1.9-5.3,2.9-10.9,3.8-16.4c1.3-7.9,0.1-15.6-0.8-23.4c-0.5-4.2-3-7.4-5.1-10.8c-1.7-2.7-3.5-5.3-5.2-7.9c-1.8-2.9-4.4-5-7-7.2
			c-1.7-1.4-3.5-2.6-5.1-4.1c-1.7-1.7-3.8-2.7-5.9-3.8c-2.2-1.1-4.2-2.8-6.8-3.1c-1.1-0.2-2.3-0.4-3.4-0.5c-1.9-0.3-3.8-0.7-5.6-0.8
			c-1.7,0-3.4,0.3-5,0.8c-1.5,0.4-3,0.4-3.8-0.7c-0.9-1.4-2.1-3.1-1.2-5c0.5-1.1,1.3-2.1,0-3.2c-0.1-0.1-0.1-0.2-0.1-0.3
			c0.5-2.4,1-4.8,1.6-7.4c2.9,1.1,5.6,2.1,8.3,3c1.9,0.6,3.9,1,5.8,1.6c2,0.6,4.1,1.2,6,2c2.5,0.9,5,1.9,7.5,2.9
			c1.6,0.7,3.3,1.2,4.7,2.2c3.6,2.3,7.2,4.7,10.7,7.2c2.7,2,5.1,4.4,7.8,6.4c3.5,2.6,6.7,5.5,9.3,8.8c2.3,2.9,3.9,6.3,5.8,9.6
			c0.7,1.2,1.5,2.4,2,3.7c0.6,1.7,0.9,3.6,1.2,5.4c0.6,4.5,1.1,8.9,1.7,13.4c0,3,0,5.9,0,8.9c-0.6,1.9-1.3,3.8-1.7,5.8
			c-0.3,1.7,0.1,3.4-0.3,5.1c-0.8,3.7-1.8,7.4-2.9,11.1c-1.1,3.5-2.1,7.1-3.7,10.4c-1.9,4.1-4.2,8-6.7,11.7
			c-2.1,3.2-4.6,6.2-7.1,9.2c-2.1,2.6-4.1,5.2-6.4,7.5c-3.1,3.2-6.4,6.3-9.8,9.2c-2.7,2.3-5.3,4.9-8.9,5.8c-0.1,0-0.2,0.1-0.3,0.2
			c-1.4,2.3-3.8,3.2-6,4.2c-4.5,2.1-9.3,3.8-13.9,5.6c-3.1,1.2-6.3,2.2-9.3,3.6c-4.1,1.9-8.3,3.4-12.8,3.6c-1.7,0.1-3.4,0.6-5.1,0.9
			c-5.4,0-10.7,0-16.1,0c-0.5-0.2-1-0.5-1.6-0.7c-3.7-0.8-7.5-1.5-11.2-2.3c-2.2-0.5-4.4-1-6.4-1.8c-3.2-1.4-6.2-3.1-9.3-4.7
			c-0.7-0.4-1.5-0.7-2.1-1.2c-1.9-1.5-3.8-3.1-5.5-4.8c-2.3-2.4-5.5-4-7-7.2c-0.1-0.2-0.3-0.3-0.5-0.5c-2-2-4.1-4-6.1-6.1
			c-2.1-2.3-4.2-4.6-6-7.1c-1.4-1.9-2.9-3.9-3.7-6.1c-1.2-2.9-1.8-6-2.6-9.1c-0.7-2.6-1.2-5.3-1.7-7.9c-0.4-2.1-0.7-4.3-1.1-6.4
			c-0.1-0.3-0.4-0.5-0.6-0.8C68.5,181.7,68.5,178.5,68.5,175.2z M150.7,245.8c0,0.1,0.1,0.2,0.1,0.4c3.3-0.8,6.6-1.5,9.8-2.4
			c2.2-0.7,4.3-1.8,6.5-2.7c1.5-0.7,1.5-1.2,0.3-2.4c-1.4-1.3-2.9-1.5-4.4-0.4c-1.1,0.8-2.1,1.8-2.8,2.9c-1.7,2.4-4.7,3.1-7.1,1.5
			c-0.6-0.4-1.1-0.9-1.7-0.9c-0.6-0.1-1.7,0.1-1.9,0.6c-0.5,0.9-0.7,2.1-0.9,3.1c0,0.1,0.5,0.4,0.8,0.4
			C149.7,245.9,150.2,245.8,150.7,245.8z M107.1,238.3c0.2-0.2,0.4-0.4,0.6-0.6c-0.9-1.7-1.7-3.3-2.6-5c-0.1-0.1-0.3-0.2-0.4-0.3
			c-3.5-1.2-5.5-4-6.9-7.2c-0.2-0.4-1-1-1.3-0.9c-0.8,0.4-1.6,1-2.3,1.7c-0.2,0.2,0.1,1,0.4,1.4c0.9,1.2,1.8,2.3,2.7,3.4
			c0.4,0.5,0.7,1.2,1.1,1.6c0.8,0.7,1.6,1.5,2.5,2C102.9,235.8,105,237,107.1,238.3z M221.8,110.9c-0.4-0.9-1.2-2.1-2.6-2.7
			c-3.4-1.6-6.5-3.6-9-6.4c-0.9-1-2.1-1.6-3.6-1.7c-1.1-0.1-1.3,0.4-1,1.2c0.2,0.5,0.6,1.1,1,1.4c2.6,2.1,5.4,4,8,6.1
			c1.1,0.9,2,2.1,3.1,3.1c0.3,0.3,0.9,0.4,1.3,0.3C219.9,111.9,220.7,111.4,221.8,110.9z M235.8,140.8c-0.6-2.5-1-5-3.5-6.3
			c-0.4-0.2-1-0.3-1.3-0.1c-0.3,0.2-0.4,0.9-0.3,1.3c0.1,0.7,0.4,1.5,0.5,2.2c0.5,2.5,0.9,5,1.4,7.5c0.1,0.4,0.6,0.7,0.9,1.1
			c0.3-0.3,0.8-0.5,0.9-0.8C234.9,144,235.3,142.4,235.8,140.8z M89.8,213c-1.2,1.4-1.8,6.2-1,7.4c0.3,0.4,1.2,0.8,1.4,0.7
			c1.2-0.7,2.3-1.6,3.3-2.6c0.3-0.3,0.4-1.3,0.1-1.6C92.4,215.5,91.1,214.3,89.8,213z M231.1,172.3c0.4,0.2,1.2,0.8,1.3,0.6
			c1.3-1.4,2.5-2.8,3.6-4.3c0.1-0.2-0.1-0.6-0.2-0.9c-0.6-0.9-1.2-1.8-1.8-2.7c-0.8-1.1-1.4-1.1-1.8,0.2
			C231.7,167.4,231.5,169.7,231.1,172.3z M223.3,195.2c-0.3-0.6-0.5-1.3-0.7-1.3c-0.4,0-0.9,0.3-1.2,0.5c-0.2,0.2-0.3,0.6-0.5,0.9
			c-1.3,2.1-2.6,4.2-3.9,6.4c-0.3,0.6-0.5,1.2-0.8,1.9c0.7-0.3,1.4-0.5,2.1-0.8c0.3-0.2,0.5-0.6,0.7-0.9c0.9-1.2,1.8-2.4,2.6-3.7
			C222.2,197.2,222.7,196.2,223.3,195.2z M84.7,207.4c0.2,0.2,0.4,0.4,0.6,0.6c0.4-0.4,1.1-1,1-1.2c-0.7-1.4-1.5-2.9-2.5-4.2
			c-0.6-0.7-1.3-0.5-1.5,0.5c-0.3,1.7-0.5,3.3-0.6,5c0,0.4,0.4,0.8,0.6,1.2c0.4-0.2,0.7-0.5,1.1-0.7
			C83.8,208.2,84.3,207.8,84.7,207.4z M129.9,246c0.1-0.2,0.1-0.4,0.2-0.6c-0.7-1.3-1.4-2.7-2.1-4c-0.1-0.1-0.1-0.2-0.2-0.3
			c-0.2-0.2-0.7-0.5-0.8-0.5c-1,1-2,2-2.9,3.1c-0.1,0.1,0.2,0.8,0.5,0.9C126.3,245.2,128.1,245.6,129.9,246z M178.3,236.8
			c1.4-0.5,2.6-0.8,3.8-1.4c0.6-0.3,0.9-0.9,1.4-1.4c-0.7-0.5-1.3-1.4-2.1-1.6c-1.5-0.4-4,1.8-3.9,3.4
			C177.5,236.2,178,236.5,178.3,236.8z M230.6,120.7c0.2-0.1,0.3-0.3,0.5-0.4c-0.2-0.5-0.3-1-0.6-1.3c-1.1-1.2-2.1-2.3-3.3-3.3
			c-0.5-0.4-1.3-0.4-1.9-0.5c0.1,0.7,0,1.7,0.4,2C227.1,118.4,228.9,119.5,230.6,120.7z M192.7,228.8c0.1,0.2,0.2,0.3,0.3,0.5
			c1.9-1.1,3.7-2.3,5.7-3.5C195.8,223.7,193.8,224.8,192.7,228.8z M185.2,225.6c-1.5,0.7-2.8,1.2-4.1,1.9c-0.1,0.1-0.1,0.9,0,0.9
			c0.9,0.3,2.1,1,2.8,0.7c0.9-0.4,1.4-1.6,2-2.6C186,226.4,185.5,226,185.2,225.6z M76.8,198.8c1.7-2.9,1.6-6.1-1.3-6.1
			C75.2,194.8,75.9,196.7,76.8,198.8z M112.1,230.4c-0.3,0.2-0.7,0.3-0.8,0.6c-0.1,0.2,0,0.7,0.2,0.8c1.1,0.7,2.3,1.5,3.5,2.1
			c0.3,0.1,1-0.3,1.4-0.6c0.1-0.1,0.1-0.8,0-0.8C115,231.7,113.6,231.1,112.1,230.4z M172,232.5c-0.2-0.3-0.3-0.5-0.4-0.6
			c-0.7-0.6-3.8,0.6-4,1.5c0,0.3,0.2,0.8,0.4,0.9c0.6,0.3,1.5,0.7,1.9,0.5C170.7,234.2,171.3,233.3,172,232.5z M117.1,243.6
			c0.6-0.5,0.9-0.8,1.2-1.1c-0.6-0.6-1.1-1.5-1.8-1.8c-0.4-0.2-1.2,0.6-1.8,0.9C115.4,242.3,116.2,242.9,117.1,243.6z M154.4,235.2
			c-0.7,0.5-1.2,1-1.7,1.4c0.5,0.4,1,1.3,1.3,1.3c0.8-0.2,1.4-0.9,2.1-1.4C155.7,236.1,155.1,235.7,154.4,235.2z M138.3,246.9
			c0.7-0.5,1.2-0.8,1.7-1.2c-0.5-0.6-1-1.1-1.5-1.7c-0.6,0.6-1.1,1.2-1.7,1.7C137.2,246.1,137.7,246.4,138.3,246.9z M180.8,89.5
			c-0.8-0.5-1.4-1-2.2-1.3c-0.3-0.1-0.8,0.2-1.1,0.2c0.1,0.4,0.1,0.9,0.4,1.1C178.7,90.2,179.7,90.4,180.8,89.5z M133.6,236.9
			c-0.6,0.5-1.1,0.8-1.5,1.1c0.4,0.4,0.8,1.1,1.2,1.1c0.4,0,0.9-0.6,1.2-1.1C134.5,237.8,133.9,237.3,133.6,236.9z M143.2,236.6
			c-0.4,0.6-1,1-0.9,1.3c0.1,0.4,0.6,0.8,1,1.1c0.3-0.4,0.9-0.7,1-1.1C144.3,237.6,143.7,237.2,143.2,236.6z"/>
		<path fill="#FFFFFF" d="M124.4,61.4c1.2,0.8,2.4,1.7,3.7,2.3c0.9,0.4,2.1,0.5,3.1,0.6c0.6,0.1,1.2-0.1,1.8-0.3
			c2.8-0.6,5,0.8,7.1,2.2c2.7,1.8,5.3,3.9,7.6,6.2c2.8,2.8,5.5,5.8,7.4,9.4c2.6,5,4.5,10.1,3.2,15.8c0,0.1,0,0.2-0.1,0.3
			c-2.2,3.7-2.1,8-3.5,12c-1,3-2.1,5.8-4.2,8c-2.4,2.5-5,4.8-7.8,6.9c-2,1.5-4.4,2.7-6.8,3.7c-3.8,1.5-7.7,2.6-11.8,2.1
			c-3.5-0.4-7-0.7-10.5-1.2c-2.1-0.3-4.3-0.7-6.4-1.5c-1.8-0.7-3.3-2-5-3c-2.6-1.5-4.5-3.6-6.1-6.1c-2.1-3.2-3.9-6.6-5-10.4
			c-1.6-5.4-1.6-11-1.1-16.4c0.3-3.4,1.9-6.7,3.4-9.8c1.6-3.2,3.7-6.2,6.2-8.8c2.6-2.8,5.8-5.1,8.8-7.5c1.3-1,2.6-2,4-2.8
			c1.3-0.7,2.7-1.1,4.1-1.7C119.1,61.4,121.8,61.4,124.4,61.4z M141,109c0.1,0.1,0.3,0.3,0.4,0.4c0.5-0.3,1-0.6,1.5-1
			c2.2-1.8,4.5-3.6,6.7-5.5c0.4-0.3,0.8-0.8,0.9-1.3c0.8-2.9,1.7-5.8,2.3-8.8c0.9-4.7-0.5-9.1-3.2-12.9c-1.6-2.3-3.9-4.1-6-6.1
			c-1.2-1.1-2.5-2.1-3.8-3c-1-0.7-2.2-1-3.1,0c-0.9,1-1.6,2.3-0.6,3.7c1.2,1.8,2.4,3.5,3.4,5.3c1,1.7,1.9,3.4,2.7,5.2
			c0.2,0.3,0,1-0.2,1.3c-1.3,1.9-2.7,3.7-4,5.6c-0.3,0.5-0.6,1.5-0.3,1.9c1.8,2.5,3.6,5,5.6,7.3c1,1.2,1.2,2,0.3,3.3
			C142.7,106,141.8,107.6,141,109z M119.8,124.5c-1.4-1.7-2.4-3.1-3.5-4.4c-1.5-1.6-1.9-1.6-3.5-0.2c-2.3,1.9-3.4,1.9-6,0.6
			c-0.6-0.3-1.4,0-2.1,0c0,0.3-0.1,0.5-0.1,0.8C109.3,122.9,114.2,124.4,119.8,124.5z M118.4,78.8c0.8-0.5,1.3-0.7,1.7-1
			c1.9-1.7,3.8-3.4,5.7-5.1c0.6-0.5,1.2-1.1,1.7-1.7c0.2-0.3,0.2-0.8,0.2-1.2c-0.4,0-0.9-0.1-1.1,0.2c-2.7,2.6-5.4,5.2-8.1,7.8
			C118.5,77.8,118.5,78,118.4,78.8z"/>
	</g>
</g>
</svg>
