<?xml version="1.0" encoding="utf-8"?>
<!-- Generator: Adobe Illustrator 18.0.0, SVG Export Plug-In . SVG Version: 6.00 Build 0)  -->
<!DOCTYPE svg PUBLIC "-//W3C//DTD SVG 1.1//EN" "http://www.w3.org/Graphics/SVG/1.1/DTD/svg11.dtd">
<svg version="1.1" id="Calque_1" xmlns="http://www.w3.org/2000/svg" xmlns:xlink="http://www.w3.org/1999/xlink" x="0px" y="0px"
	 viewBox="0 0 313.2 313.2" enable-background="new 0 0 313.2 313.2" xml:space="preserve">
<circle fill="#5E636D" cx="156.6" cy="156.6" r="156.6"/>
<g id="mt4YFI_1_">
	<g>
		<path fill="#FFFFFF" d="M160.3,30.8c1.7,0.5,3.2,1.4,5,1.7c0.1,0,0.3,0,0.4,0c2.4,1.5,5.5,2,8,3.4c2.7,1.6,4.4,3.8,6.1,5.9
			c2,2.5,3.5,5.3,4.4,8.1c0.5,1.6-0.5,3.3-0.2,4.8c0.7,2.9-1.8,5-2.5,7.6c-0.5,1.9-2.4,3.1-3.8,4.3c-1.9,1.6-3.8,3.4-7,4.1
			c-1,0.2-2.3,1.3-3.6,1.8c-1,0.4-1.9,1.1-3.3,0.7c-0.9-0.3-0.9,0.8-1.8,0.9c-3.8,0.3-7.7,0.9-11.3-0.7c-6.4-2.9-9.8-7.2-10.3-12.8
			c-0.1-1.1-0.6-2.2-0.6-3.3c-0.1-4.1,0.4-7.9,3-11.7c1.9-2.8,5-4.2,8.2-5.7c1.5-0.7,3.3-0.9,4.8-0.6c2,0.3,3.6,0.3,5.2-0.9
			c1-0.7,3.7,0.7,3.8,1.9c0,0.3-0.5,0.6,0.2,0.8c0.7,0.2,0.7-0.5,0.9-0.6c1.4-0.2,1.7-1.3,2.8-1.8c1.4-0.6,1.4-1.5-0.1-2.1
			c-3.6-1.7-7.4-2.8-11.8-2.3c-1.2,0.1-2.5,0.7-3.8,0c-0.4-0.2-0.6,0.2-0.9,0.5c-0.7,0.5-1.2,1.3-2.6,0.8c-0.7-0.3-0.9,0.4-0.9,0.7
			c0.1,1.4-1.3,1.5-2.5,1.6c-0.6,0.1-1.2,0.1-1.4-0.5c-0.3-1-0.2-2,0.8-2.7c2.7-2,5.5-3.8,9.5-3.7c0.4,0,0.9,0.1,1-0.3
			C157.4,30.8,158.8,30.8,160.3,30.8z M158.3,65c0.4-0.1,0.8-0.2,1-0.4c2.2-1.8,5.2-3,7.3-4.9c0.4-0.3,0.8-0.6,1.4-0.6
			c0.9,0,2,0,2.4,0.8c0.4,1,0.4,2.1-0.7,2.9c-1.4,1.1-2.9,2.1-4.1,3.3c-1.1,1.1-0.9,1.9,0.7,2.5c1.7,0.6,2.4-0.6,3.4-1.1
			c6.9-3.7,10.4-8.8,10.5-15.3c0-1.2-0.6-2.4,0.2-3.6c0.2-0.3-0.1-0.4-0.4-0.5c-1-0.3-1-1-1.2-1.6c-0.2-0.6-0.7-1.4-1.6-1.3
			c-1.1,0.1-2.3,0.3-3,1c-0.7,0.7-0.3,1.3,0.5,1.8c1.1,0.9,0.9,2.2-0.2,2.5c-1.6,0.5-1.5,2.3-3.5,2.2c-1.5,2.6-5.3,3.6-7.2,6
			c-0.4,0.5-1.3,0.9-1.7,1.3C160.7,61.7,157.5,62.4,158.3,65z M155.3,71.8c0.3,0,0.6,0,0.9,0c0.9,0.1,1.7-0.1,2-0.7
			c0.2-0.6-0.7-0.8-1.2-1c-1.7-0.6-3.2-1.3-4.5-2.5c-0.9-0.8-2.7-0.8-3.4-0.2c-0.9,0.7-0.8,1.8,0.5,2.7
			C151.2,71.2,153.1,71.8,155.3,71.8z M146.7,49.5c3-1.4,5-3.7,7.7-5.4c0.5-0.3,1-0.8,0.6-1.3c-0.4-0.5-1.2-0.4-1.7-0.2
			c-2,0.7-4.6,1-5.3,2.8C147.5,46.8,144.8,47.7,146.7,49.5z M146.5,59.6c0.2-1.1-0.2-1.8-1.9-1.9c-1.3-0.1-1,0.7-1,1.2
			c0.1,1.1,0,2.6,1.7,2.8C146.8,61.8,146.4,60.4,146.5,59.6z M171.4,42.3c0.3,0.2,0.6,0.5,0.6,0.5c1-0.7,3,0.3,3.4-0.8
			c0.3-0.8-1.3-1.1-2.1-1.2C171.7,40.4,172.7,42.1,171.4,42.3z"/>
		<path fill="#FFFFFF" d="M205.5,282.4c-1-1-2.6-0.6-3.6-0.5c-3.2,0.2-6-0.7-8.8-1.4c-4.1-1.1-7.2-3.2-9.7-5.9
			c-0.8-0.9-1.1-1.8-1.2-2.9c-0.2-4.1,0.2-8.2,0-12.3c-0.2-3.2-0.7-6.4-0.5-9.7c0.2-2.3-0.4-4.8-0.1-7.2c0.1-0.5,0.1-1-0.6-1.3
			c-0.5-0.2-0.5-0.6-0.4-0.9c1.1-1.8-0.7-3.5-0.7-5.2c0.1-2.2-0.9-4.4-0.2-6.8c0.3-0.8-0.9-1.9-0.8-3c0.3-3.4-1.4-6.7-1.5-10.1
			c0-1.5-0.6-3-1.3-4.4c-0.5-1.2,0.4-2.2,0-3.3c-0.7-2-2.7-3.8-1.4-6c-1.9-1.3-0.7-3.3-1.8-4.8c-0.4-0.5-0.5-1.2-0.5-1.7
			c0.3-2.6-1.1-5-1.3-7.5c-0.3-2.6-1.5-5.2-0.8-7.9c0.2-0.7-0.3-1.4-0.5-2c-0.4-1.9-0.2-3.6,1.8-5c1-0.7,2.1-0.2,2.1,0.2
			c0,1,1.1,1.9,0.5,3c-0.2,0.4-0.3,1-0.2,1.4c0.6,2.3,0.2,4.6,0,6.8c-0.2,2.7,1.2,5.1,1.8,7.7c0.1,0.4,0.2,0.7,0.2,1.1
			c0.2,3.1,1,6.1,1.5,9.1c0.4,2.3,1.5,4.5,1.2,6.9c-0.2,1.8,1.1,3.7,1.5,5.5c0.6,3,0.9,6,1.1,9c0.1,1.6,0.8,3.2,0.7,4.7
			c-0.4,3.5,1.3,6.9,0.8,10.4c-0.1,1,0.1,2.2,0.5,3.3c0.6,1.7,0.3,3.4,0.1,5.1c-0.2,1.7,0.9,3,2.9,3.1c4.4,0.3,7.9,2,11.6,3.5
			c2.4,0.9,4.8,2,7,3.2c1.9,1,3.9,1.8,5.5,3.1c3.6,2.8,6.3,6.2,7.3,10c0.7,2.5,2.1,5.3,0.4,8c-0.8,1.3-1.7,2.6-3.7,3.2
			c-1.9,0.6-3.8,0.9-5.9,0.9c-0.6,0-1.3-0.3-1.6,0.4C206.7,282.4,206.1,282.4,205.5,282.4z M212.6,268.1c-0.2-1.1-0.8-1.9-1.4-2.7
			c-1.1-1.4-2.1-3-3.9-4.1c-1.1-0.6-2.5-0.6-2.9-0.1c-0.6,0.7-1.1,1.4-1.9,2c-0.3,0.3-0.8,0.7-0.3,1.1c0.5,0.3,1,0.1,1.5-0.2
			c0.5-0.3,0.8-0.8,1.6-0.7c1.6,0.2,2.9,1.7,2.7,3.1c-0.1,0.3-0.2,1,0.4,0.9C210,267,211,268.1,212.6,268.1z M189.1,267.8
			c0.1,0.6,0,1.3,1,1.6c1.4,0.3,0.8-0.8,1.3-1.1c0.5-0.3,0.7-1.1,1.3-1.2c1.7-0.5,1.6-2.1,2.9-2.8c0.2-0.1,0.3-0.9-0.3-1.1
			c-0.6-0.2-0.7,0.3-1,0.5c-0.9,0.6-1.9,0.9-2.9,1.4C190.1,265.8,189,266.5,189.1,267.8z M190.7,254.2c0-0.4-3.3-1.8-4.3-1.8
			c-1.2,0-1.5,1.1-1.2,1.3c1.4,0.9,0.1,2.9,2.4,3.3C188,257,190.7,254.5,190.7,254.2z M196.1,277.7c0-0.3,0.1-0.5,0-0.7
			c-1-2.3-3.4-2.9-6.2-3.3c-0.5-0.1-0.9-0.3-1.3,0.2c-0.4,0.5,0.2,0.6,0.6,0.9C191.2,276.1,193.4,277.2,196.1,277.7z M209.8,273.9
			c1.5-0.3,2.5-1.2,3.8-1.7c1-0.4,1.3-0.9,0.8-1.5c-0.5-0.7-1.4-0.5-2.2-0.1c-1.3,0.6-2,1.7-2.9,2.5
			C208.6,273.7,209.3,273.8,209.8,273.9z M199.3,278.6c1.9,0.3,3.8,0.5,5.7,0.8C204.1,277.3,204.1,277.3,199.3,278.6z M196.6,255.9
			c-0.3,0.1-0.6,0.2-0.8,0.3c-0.1,0,0.1,0.4,0.2,0.4c1.7,0.2,2.8,1.2,4.2,1.8c0.3,0.1,0.7,0.2,0.9-0.1c0.1-0.1,0-0.4-0.1-0.4
			C199.5,257.2,198,256.6,196.6,255.9z M209.7,279.2c1.2-0.4,2.6,0,3.2-1.1c0.2-0.3-0.1-0.2-0.3-0.2
			C211.5,277.9,210.2,277.6,209.7,279.2z"/>
		<path fill="#FFFFFF" d="M223.7,167.9c-0.8,0.5-0.9,1.2-0.9,1.9c0,2.4-1.8,4.2-3.5,5.9c-1.1,1.1-5,1-6.9,0.7
			c-2.8-0.5-4.8-1.8-6.3-3.4c-3.1-3.4-5.6-7-5-11.4c0.3-1.7,0.7-3.2,1.4-4.8c1.3-2.7,7.9-5.1,11.4-4.4c1.4,0.3,1.3,0,1-0.9
			c-1.2-4.2-3.3-8.1-4.5-12.3c-1-3.5-3.2-6.6-3.9-10.1c-0.2-1.1-0.6-2.2-1.5-3.1c-0.8-0.8-0.1-1.9-0.8-2.7c-1.2-1.5-1-3.4-2.4-4.7
			c-0.6-0.6-0.2-1.2-0.5-1.8c-1.2-2.4-2.3-4.8-3.3-7.2c-0.8-1.9-1.3-3.8-2.2-5.7c-0.8-1.9-2.1-3.7-2.8-5.5c-0.8-2-2.1-3.7-3.4-5.5
			c-0.6-0.8,0.5-1.2,0.9-1.6c0.5-0.4,1.1,0.1,1.5,0.5c1.7,1.8,2.8,3.9,3.9,6c1.3,2.5,2.7,5,3.5,7.7c0.5,1.9,1.1,4.2,2.5,5.7
			c2.2,2.3,1.3,5.3,3.7,7.4c0.1,0.1,0.1,0.3,0.1,0.5c-0.1,2.6,0.9,2.4,2,5.1c0.6,1.5,1.5,3.1,1.8,4.6c0.3,1.5,0.9,2.8,1.6,4.1
			c0.6,1.3,1,2.6,1.4,3.9c0.7,2.3,1.8,4.5,2.8,6.7c1.2,2.7,1.6,5.5,2.9,8.2c0.9,1.8,2.4,3.3,3.3,5.1c0.6,1.1,1.2,2.2,1.2,3.4
			c0,0.5-0.3,1.3,0.9,1.4C223.7,163.6,223.7,165.8,223.7,167.9z M211.5,156.5c-0.1-0.2,0.3-0.6-0.6-0.8c-0.5-0.1-0.8-0.5-1.6-0.2
			c-2.1,0.8-3.1,2.2-3.8,3.7c-0.4,0.7,0.4,1.3,1.2,1.3C208.5,160.6,211.2,158.3,211.5,156.5z M219.4,164.5c-0.3-1-0.5-2-0.6-3.1
			c-0.1-1-1.4-1.2-2.4-1.2c-0.9,0-0.3,0.8-0.5,1.2c-0.4,0.9,0.7,1.3,1.3,1.9c0.6,0.5,1.3,0.7-0.1,1.5c-2.3,1.3-1.8,2.6,0.7,3.5
			c1,0.4,1.3,0,1.2-0.5C219,166.7,219.2,165.6,219.4,164.5z"/>
		<path fill="#FFFFFF" d="M158.7,109.5c1.4-1.6,4-2,5.6-3.5c1.6-1.4,3.5-2.6,5.3-3.9c1.7-1.2,0.4-2.1-0.4-3.1
			c-0.3-0.3-1.1-0.6-0.5-1.1c0.4-0.3,1-0.6,1.7-0.6c0.8,0,0.9,0.4,1.2,0.7c2.2,2.7,4.4,5.4,6,8.4c1.4,2.6,1.9,5.5,3.5,8
			c0.7,1.2,0.5,2.5,0.7,3.8c0.4,3.8,0.9,7.7,0.4,11.4c-0.5,4-0.6,8.1-2.3,11.9c-1.7,4.1-3,8.3-5.9,12c-1.8,2.3-3.3,4.9-6.2,6.8
			c-1.7,1.1-2.9,2.8-4.7,4c-2.8,1.8-6.2,1.5-9.4,2.1c-1.2,0.2-1.2,0.4-1.1,1.3c0.2,2.4,0.4,4.9-0.8,7.4c-1,2.2-1.4,4.6-2.1,6.9
			c-0.7,2.5-1.3,5-2.1,7.5c-1.6,4.9-2.6,9.9-3.5,15c-0.2,1.4-0.5,2.8-1.5,4.2c-1.4,2-0.7,4.5-1.7,6.5c-1.3,2.5-0.4,5.3-2,7.8
			c-1,1.6-0.7,3.6-1.1,5.4c-0.4,1.6-1.3,3.1-1.3,4.7c0,1.7,0.6,3.4-0.7,5.1c-1,1.3-0.2,2.7,0.7,3.9c0.5,0.8,1,1.6,0.2,2.3
			c-0.9,0.7-2.1,0.3-3.1-0.1c-1.7-0.6-3.4-0.5-5.1,0c-1.6,0.4-3.1,1-4.6,1.7c-0.9,0.4-2.3,0.8-1.9,1.7c0.4,0.9,1.8,1.3,3,1.2
			c1.7-0.2,3.2,0.4,4.8,0.6c1.1,0.1,2.7-0.2,4.1-0.3c2.4-0.2,4.1,1,5.3,2c1.5,1.3-0.3,2.8-1.2,3.9c-1.4,1.8-3.2,3.4-5.7,4.7
			c-2.9,1.5-5.5,3.6-8.1,5.4c-4,2.7-8.4,5-13.3,6.6c-2.6,0.9-5.4,1.1-7.8-0.3c-2.8-1.7-3.3-4-3-6.7c0.4-4.7,3.7-8.4,7.6-11.6
			c3.2-2.7,6.7-5.3,10.8-7.3c2.4-1.2,4.9-2.4,7.5-3.4c0.7-0.3,1.4-0.7,2.5-0.2c1.1,0.5,4-1.3,4.2-2.4c0.3-2.8-0.1-5.7,0.8-8.5
			c1.7-5.4,2.9-10.8,4.2-16.3c0.9-3.5,1.7-7.1,2.7-10.7c1.4-5.1,2.6-10.3,3.7-15.5c0.5-2.3,1.3-4.5,1.9-6.7
			c0.9-3.8,2.3-7.5,3.1-11.2c0.2-0.9,1.3-1.6,1-2.8c-0.3-1.2-0.9-2.4-1.9-2.8c-2.6-1-3.6-3-5.5-4.3c-1.6-1.1-3.1-2.3-3.9-3.7
			c-1.5-2.8-2.5-5.8-3.1-8.8c-0.6-2.9-0.6-5.9-1-8.8c-0.2-1.6-0.9-3.3-0.3-4.8c0.8-1.7-0.5-3.2,0.2-4.8c0.6-1.6,0.5-3.4,0.6-5.1
			c0.2-2.8,1.1-5.6,1.7-8.4c0.4-1.7,0.8-3.3,1.4-5c1.4-3.6,3-7.2,4.7-10.8c1.6-3.4,3.8-6.4,6.3-9.3c0.3-0.4,0.7-0.7,1.1-1
			c0.9-0.8,2.1-1.3,3.3-0.8c1.2,0.5,2.2,1.4,1.7,2.8c1.4-0.6,2.8-0.4,4.2-0.5c2.9-0.3,4.9,1.3,7,2.4c0.6,0.3,0.3,0.9,0.1,1.4
			c-0.2,0.5-0.9,0.3-1.3,0.2c-0.6-0.1-1.2-0.4-1.8-0.5c-0.7-0.1-1.5-0.3-1.9,0.3c-1.3,2.4-4.4,3.7-6.6,5.4c-1.7,1.4-2.6,3.2-4.6,4.4
			c-0.1,0.1,0,0.6,0.2,0.7c0.4,0.2,0.8,0.2,1.3-0.2c2.6-1.8,5.2-3.5,7.9-5.3c0.5-0.4,1.1-0.6,1.7-0.9c1.2-0.6,2.5-0.5,3.1,0.5
			c0.6,0.9,1.3,1.9-0.2,3c-2.1,1.6-4.5,3.1-5.8,5.2c-0.6,0.3-1.2,0.6-1.7,0.9c-0.4,0.2-1.1,0.5-0.4,1c0.6,0.5,1.3,0.4,1.8-0.1
			C158.7,110.2,158.7,109.9,158.7,109.5z M171.3,131.3c0.2,0.7-0.2,1.3-1,1.8c-2.9,1.9-5.3,4.2-7.9,6.3c-1,0.9-1.2,1.5,0.1,2.3
			c0.4,0.2,0.8,0.5,1.1,0.8c1,1.1,1.9,0.9,2.7-0.1c1.4-1.9,3.9-2.8,5.9-4.1c0.6-0.4,1.3-0.4,2.1,0c2.5,1.2,3.4,1,3.6-1.2
			c0.4-3.6,1.6-7.2,1.3-10.9c-0.2-2.6,0-5.2-0.2-7.8c-0.1-0.5-0.5-1.3-0.8-1.9c-0.3-0.5-0.9-0.5-1.5-0.4c-0.7,0.1-1.3,0.4-1.4,0.9
			c-0.2,0.7,0.4,1.1,1.1,1.4c1.4,0.7,1.8,2.3,0.6,2.5c-1.8,0.4-2.5,1.5-3.5,2.4c-2,1.7-4.5,3.1-5.9,5.2c-0.2,0.3-0.7,0.7-0.3,1
			c0.3,0.3,0.8,0.1,1.2,0C170.1,129.2,171.3,129.9,171.3,131.3z M140.5,152.3c-0.9,0-0.6,0.6-0.5,1c0.2,1.9,1.7,3.4,2.8,4.9
			c0.5,0.7,1,1.4,0.7,2.2c1.8-0.1,2.6,1.3,4.1,1.8c1.5,0.5,1.8-0.3,2.3-0.9c0.5-0.5,1.2-1.1-0.1-1.7c-1.2-0.6-1.7-1.7-2.2-2.7
			c-1.2-2.4-4.9-2.7-6.7-4.6C140.9,152.3,140.8,152.3,140.5,152.3z M173.4,107.1c0.3,0,0.7,0.5,1,0c0.1-0.3,0-0.6-0.2-0.9
			c-0.8-1.2-2.5-1.2-3.5,0.1c-0.9,1.3-2.3,2.2-3.9,2.8c-2.8,1.1-4.2,3.4-6.6,4.9c-1.5,0.9-2.6,2.3-4.3,3.2c-0.7,0.4-1.4,0.8-1.7,1.4
			c-0.5,1-1.5,1.7-2.7,2.2c-0.6,0.2-1.9,0.4-1.1,1.2c0.6,0.6,1.4,0.1,2-0.3c1.7-1.1,3-2.6,5.1-3.3c0.1,0,0.2-0.2,0.3-0.2
			c3.9-3.6,8.9-6.5,12.9-10.1C171.4,107.3,172.2,106.9,173.4,107.1z M133,251.3c-1.4-0.1-2.3,0.2-2.9,1.3c-0.9,1.6-1.4,3.4-3.2,4.6
			c-1.1,0.8-0.3,1.2,0.8,1.4c2.1,0.4,3.6-0.3,4.8-1.4c0.9-0.9,1.7-1.8,2.6-2.8c0.6-0.6,1.7-1.1,1-2.1
			C135.3,251.5,134.3,251.1,133,251.3z M175.7,143c0.1-0.5,0-1-0.6-1.3c-0.6-0.3-0.6,0.4-1,0.5c-2.6,1.1-4,2.9-5.8,4.6
			c-1.5,1.4-2.9,2.9-4.4,4.3c-0.3,0.3-1.1,0.4-0.8,1c0.1,0.2,0.4,0.5,0.7,0.5c0.8,0.1,0.7-0.5,1-0.8c1.9-1.9,3.4-4.4,7.4-4
			c0.8,0.1,1.3-0.2,1.5-0.7C174.4,145.7,175.4,144.4,175.7,143z M154.7,96.4c-1.7,0.6-3.3,1-5.1,0.9c-0.3,0-0.8,0.2-0.9,0.4
			c-0.8,2-3.4,3.7-2.1,6.3C149.6,101.5,152.4,99.2,154.7,96.4z M137.7,144.3c0.4,0.9,0.7,1.9,1.3,2.7c0.5,0.7,1.3,0.8,2,0
			c0.3-0.4,0.7-0.7,1-1c2.1-2,2.1-1.9-1-2.7c-0.2,0-0.4-0.2-0.5-0.2c-0.6-0.3-1.2-1-2-0.6C137.9,142.8,137.8,143.6,137.7,144.3z
			 M117,250.6c-2.3,0.8-3.6,2-5.1,3c-0.5,0.3-1.3,0.8-0.3,1.5c0.9,0.5,2,1,2.8,0.2C115.8,254,116.8,252.6,117,250.6z M138.8,128.7
			c-0.7,0.2-1.2,0.8-0.9,1.3c0.5,1-0.4,2.3,1.3,3c0.4,0.2,2.7-1.7,2.7-2.1C141.8,130.2,139.7,128.6,138.8,128.7z M158.8,148.7
			c2.5,0.2,2.3-1.7,3.5-2.3C161.2,147,159.4,147.3,158.8,148.7z M142.7,115.5c0.5-0.2,1.1-0.5,1.1-1c0-0.6-0.6-0.5-1.1-0.5
			c-0.6,0-1.1,0.2-1,0.8C141.9,115.1,142,115.6,142.7,115.5z"/>
		<path fill="#FFFFFF" d="M89.5,174c0-1.7,0-3.5,0-5.2c0.7-1.9,1.3-3.7,2.2-5.6c1.7-3.2,4.3-5.5,8.8-6.4c2.1-0.4,3.1-1.8,3.8-3.2
			c0.9-2.1,0.5-4.5,2.9-6.2c-0.9-1.5,0.3-2.7,0.8-4c1.3-3.6,2.6-7.2,4.2-10.8c2.9-6.2,5.6-12.5,9.1-18.5c2.1-3.5,3.7-7.2,6.1-10.6
			c2.4-3.5,4.4-7.1,7.8-10.1c0.8-0.7,1.4-1.5,2.7-0.8c1.3,0.7,2.1,1.6,0.8,2.7c-2,1.7-3.6,3.7-4.9,5.7c-1.2,2-3.3,3.6-3.7,5.9
			c-0.1,0.7-0.7,1-1.1,1.5c-2.7,4-4.5,8.2-6.9,12.3c-1.6,2.7-2.8,5.6-4.4,8.4c-2.3,4-3.8,8.2-5.1,12.5c-0.4,1.5-1.2,2.9-2,4.2
			c-1.5,2.4-2,5.1-3.1,7.6c-1,2.3,0.5,3.6,2,5.3c2,2.2,3.7,4.6,2.2,7.5c-0.6,1.1-0.3,2.4-1.2,3.5c-1.8,2.6-3.6,5-6.5,7
			c-2.8,1.8-7,2.5-10,1.2C92.1,177,90.5,175.7,89.5,174z M105.8,165.9c-1.1-0.1-1.7,0.1-2.4,0.7c-1.4,1.3-2.1,2.7-2.9,4.2
			c-0.4,0.8-0.8,1.3,0.2,1.9c1.1,0.6,1.8,0.2,2.6-0.4c1.7-1.3,2.7-3,3.8-4.6c0.4-0.6,0.5-1.1,0.3-1.6
			C107.1,165.6,106.2,166.1,105.8,165.9z"/>
	</g>
</g>
</svg>
