<?xml version="1.0" encoding="utf-8"?>
<!-- Generator: Adobe Illustrator 16.0.0, SVG Export Plug-In . SVG Version: 6.00 Build 0)  -->
<!DOCTYPE svg PUBLIC "-//W3C//DTD SVG 1.1//EN" "http://www.w3.org/Graphics/SVG/1.1/DTD/svg11.dtd">
<svg version="1.1" id="Calque_1" xmlns="http://www.w3.org/2000/svg" xmlns:xlink="http://www.w3.org/1999/xlink" x="0px" y="0px"
	 width="542.374px" height="304.601px" viewBox="23.14 191.445 542.374 304.601"
	 enable-background="new 23.14 191.445 542.374 304.601" xml:space="preserve">
<path fill="#4B505C" d="M297.634,360.649c39.908,0,72.381-32.461,72.381-72.351c0-39.913-32.473-72.38-72.381-72.38
	c-39.919,0-72.392,32.467-72.392,72.38C225.242,328.188,257.715,360.649,297.634,360.649z M297.634,244.117
	c24.365,0,44.182,19.817,44.182,44.182c0,24.348-19.816,44.158-44.182,44.158c-24.371,0-44.2-19.811-44.2-44.158
	C253.435,263.934,273.263,244.117,297.634,244.117z M565.474,421.058c0.584,7.769-5.238,14.531-13.006,15.114
	c-0.357,0.029-0.715,0.042-1.078,0.042c-7.305,0-13.488-5.638-14.037-13.037c-2.346-31.146-15.143-66.892-94.041-66.892
	c-36.135,0-61.303,7.375-76.352,22.395c47.926,15.405,74.238,49.516,78.195,102.156c0.584,7.769-5.238,14.536-13.006,15.12
	c-7.721,0.607-14.531-5.232-15.115-13.007c-3-39.86-19.281-85.613-119.407-85.613c-100.197,0-116.431,45.771-119.389,85.654
	c-0.554,7.412-6.739,13.055-14.042,13.055c-0.357,0-0.703-0.012-1.06-0.041c-7.763-0.572-13.59-7.328-13.019-15.097
	c3.899-52.7,30.199-86.828,78.16-102.239c-15.048-15.002-40.205-22.377-76.333-22.389c-78.94,0-91.715,35.758-94.03,66.903
	c-0.554,7.417-6.739,13.061-14.043,13.061c-0.357,0-0.702-0.012-1.06-0.042c-7.762-0.577-13.596-7.333-13.019-15.103
	c4.583-61.725,45.676-93.024,122.157-93.024c52.986,0.024,88.066,14.383,106.924,43.724c11.989-1.702,24.817-2.667,38.753-2.667
	s26.764,0.965,38.752,2.667c18.854-29.359,53.939-43.724,106.932-43.724C519.74,328.075,560.837,359.357,565.474,421.058z
	 M443.318,319.623c33.805,0,61.307-27.484,61.307-61.272c0-33.812-27.502-61.32-61.307-61.32c-33.807,0-61.32,27.509-61.32,61.32
	C381.998,292.133,409.511,319.623,443.318,319.623z M443.318,225.223c18.25,0,33.109,14.857,33.109,33.121
	c0,18.239-14.854,33.079-33.109,33.079c-18.258,0-33.115-14.834-33.115-33.079C410.195,240.081,425.054,225.223,443.318,225.223z
	 M151.957,319.623c33.806,0,61.308-27.484,61.308-61.272c0-33.812-27.502-61.32-61.308-61.32c-33.812,0-61.32,27.509-61.32,61.32
	C90.644,292.133,118.151,319.623,151.957,319.623z M151.957,225.223c18.257,0,33.11,14.857,33.11,33.121
	c0,18.239-14.853,33.079-33.11,33.079s-33.115-14.834-33.115-33.079C118.842,240.081,133.7,225.223,151.957,225.223z"/>
</svg>
