<?xml version="1.0" encoding="utf-8"?>
<!-- Generator: Adobe Illustrator 16.0.0, SVG Export Plug-In . SVG Version: 6.00 Build 0)  -->
<!DOCTYPE svg PUBLIC "-//W3C//DTD SVG 1.1//EN" "http://www.w3.org/Graphics/SVG/1.1/DTD/svg11.dtd">
<svg version="1.1" id="Calque_1" xmlns="http://www.w3.org/2000/svg" xmlns:xlink="http://www.w3.org/1999/xlink" x="0px" y="0px"
	 width="290.04px" height="80.704px" viewBox="0 0 290.04 80.704" enable-background="new 0 0 290.04 80.704" xml:space="preserve">
<path fill="#1E1E1E" d="M27.839,30.852c-1.152,0-2.112-0.383-2.944-1.344c1.729-1.023,2.88-3.393,2.88-5.504
	c0-2.24-1.216-4.289-4.735-4.289c-3.521,0-5.889,1.984-5.889,5.824c0,9.408,14.399,10.688,14.399,24.512
	c0,10.75-8.703,15.998-17.983,15.998C6.271,66.049,0,62.85,0,55.042c0-6.91,4.928-10.494,9.407-10.494
	c2.239,0,5.439,0.896,5.632,4.225c-3.456,0-7.487,1.6-7.487,6.016c0,3.199,2.048,6.145,6.144,6.145c4.288,0,7.424-3.137,7.424-8.512
	C21.119,41.477,8,37.572,8,28.166c0-6.656,6.527-11.455,14.783-11.455c3.008,0,10.303,0.641,10.303,7.68
	C33.087,28.1,31.039,30.852,27.839,30.852z M50.497,22.598l-2.176,10.109h3.84l-0.512,2.561h-3.841l-4.096,19.2
	c-0.191,0.832-0.256,1.473-0.256,2.049c0,1.791,0.832,2.367,2.624,2.367c2.496,0,4.8-2.432,5.76-5.633h2.688
	c-3.648,10.432-9.983,11.84-13.439,11.84c-3.84,0-6.848-2.305-6.848-7.68c0-1.215,0.191-2.623,0.512-4.16l3.84-17.983h-2.112
	l0.513-2.561h2.111l1.921-8.83L50.497,22.598z M104.504,32.707l-0.832,3.969c2.24-1.92,4.672-3.969,7.743-3.969
	c2.88,0,4.416,2.369,4.416,4.801c0,2.24-1.472,4.672-4.608,4.672c-3.584,0-1.792-4.225-3.712-4.225s-3.071,0.961-4.672,2.434
	l-5.12,24.317h-9.215l6.784-31.999H104.504z M128.569,32.707l-4.608,21.758c-0.128,0.514-0.192,1.09-0.192,1.602
	c0,1.471,0.448,2.814,1.921,2.814c2.495,0,4.159-2.432,5.119-5.631l4.353-20.543h9.279l-7.808,37.118
	c-1.92,9.15-7.423,10.879-11.646,10.879c-3.904,0-7.552-2.752-7.552-6.912c0-5.951,4.992-7.807,11.071-9.598l0.641-2.816
	c-2.753,3.137-5.633,3.711-7.808,3.711c-3.84,0-6.848-2.303-6.848-7.678c0-1.217,0.191-2.625,0.512-4.16l4.353-20.543H128.569
	L128.569,32.707z M123.513,75.008c1.28,0,2.944-1.215,3.776-4.99l0.768-3.777c-4.031,1.344-7.103,3.201-7.103,6.656
	C120.953,73.793,122.105,75.008,123.513,75.008z M195.319,16.709l-9.6,45.438c-2.048,9.791-6.336,15.807-16.831,15.807
	c-6.08,0-9.471-3.713-9.471-9.023c0-4.352,2.752-8.574,7.807-8.574c2.561,0,6.272,0.191,6.272,4.287c0,0.705-0.128,1.6-0.384,2.561
	c-1.601-1.344-2.561-1.664-3.84-1.664c-2.944,0-4.48,2.367-4.48,4.736c0,3.328,2.496,4.479,4.352,4.479
	c2.881,0,4.608-1.279,6.08-7.869l10.048-45.694c-5.568,2.303-9.023,7.166-9.023,14.014c0,3.266,0.832,3.777,0.896,4.354
	c-4.416,0-6.848-1.602-6.848-6.209c0-8.512,11.775-16.639,22.462-16.639h2.561V16.709z M222.007,32.707l-4.607,21.758
	c-0.192,0.832-0.257,1.473-0.257,2.049c0,1.793,0.832,2.367,2.624,2.367c2.496,0,4.225-2.432,5.185-5.631h2.688
	c-3.647,10.432-9.406,11.838-12.862,11.838c-3.648,0-5.952-2.111-6.336-6.078c-3.2,5.248-6.784,6.078-9.472,6.078
	c-3.84,0-6.848-2.303-6.848-7.678c0-1.217,0.191-2.625,0.512-4.16l4.353-20.543h9.215l-4.608,21.758
	c-0.128,0.641-0.191,1.217-0.191,1.793c0,1.471,0.512,2.623,1.92,2.623c2.496,0,4.159-2.432,5.12-5.633l4.352-20.543h9.215V32.707z
	 M238.521,32.707l-4.607,21.758c-0.192,0.832-0.256,1.473-0.256,2.049c0,1.793,0.832,2.367,2.624,2.367
	c2.496,0,4.8-2.432,5.76-5.631h2.688c-3.647,10.432-9.982,11.838-13.438,11.838c-3.84,0-6.848-2.303-6.848-7.678
	c0-1.217,0.191-2.625,0.512-4.16l4.352-20.543H238.521L238.521,32.707z M235.641,19.076c2.816,0,5.12,2.305,5.12,5.121
	s-2.304,5.055-5.12,5.055c-2.815,0-5.056-2.238-5.056-5.055S232.825,19.076,235.641,19.076z M260.664,38.148
	c0-1.602-0.576-2.625-1.792-2.625c-4.032,0-8.191,11.711-8.191,18.815c0,4.354,1.536,5.377,4.608,5.377
	c5.056,0,8.127-2.816,11.327-6.465h2.176c-3.648,5.889-9.087,11.84-17.599,11.84c-6.017,0-9.983-2.943-9.983-10.176
	c0-7.422,4.224-22.782,17.215-22.782c5.696,0,7.104,2.943,7.104,5.889c0,3.135-1.536,4.672-3.393,4.672
	c-0.704,0-1.472-0.256-2.239-0.768C260.408,40.516,260.664,39.234,260.664,38.148z M279.161,59.01c2.432,0,5.504-1.6,7.551-3.393
	c-1.344,7.295-5.952,9.471-11.071,9.471c-5.951,0-9.919-2.943-9.919-10.174c0-7.359,4.16-22.784,17.279-22.784
	c5.696,0,7.039,2.945,7.039,6.145c0,7.424-7.039,13.055-14.719,13.504c-0.064,0.639-0.128,1.344-0.128,1.92
	C275.193,57.731,276.921,59.01,279.161,59.01z M283.513,35.523c-3.199,0-6.399,7.104-7.742,13.184
	c4.991-0.256,9.343-5.184,9.343-10.559C285.113,36.547,284.729,35.523,283.513,35.523z"/>
<path fill="#1E1E1E" d="M100.619,0l-16.69,6.428c-0.563,0.227-1.239,0.564-1.804,0.789l2.481,3.496
	c0.226-0.113,0.563-0.227,0.789-0.338l16.689-6.428L100.619,0z"/>
<path fill="#1E1E1E" d="M81.335,13.869l-3.496-2.48c-0.338,0.678-0.677,1.24-1.015,1.918l4.06,1.352
	C80.997,14.434,81.223,14.096,81.335,13.869z"/>
<path fill="#1E1E1E" d="M78.855,9.922l3.495,2.482c0.227-0.227,0.451-0.451,0.678-0.678L80.547,8.23
	C79.982,8.684,79.418,9.246,78.855,9.922z"/>
<polygon fill="#1E1E1E" points="76.261,14.998 80.321,16.352 70.785,48.75 66.286,48.75 "/>
<path fill="#1E1E1E" d="M71.915,31.082H57.833c-5.26,3.586-8.717,9.627-8.717,16.477c0,11.006,8.921,19.928,19.929,19.928
	c11.006,0,19.929-8.922,19.929-19.928c0-6.85-3.455-12.891-8.717-16.477h-3.191 M69.045,62.625c-8.309,0-15.069-6.76-15.069-15.068
	c0-2.799,0.778-5.494,2.191-7.819h25.757c1.411,2.325,2.189,5.02,2.189,7.819C84.113,55.866,77.353,62.625,69.045,62.625z
	 M80.783,38.117H57.305c0.637-0.789,1.35-1.52,2.143-2.176h19.193C79.435,36.598,80.149,37.328,80.783,38.117z M75.347,31.08h-1.715
	"/>
</svg>
